<svg width="127" height="35" viewBox="0 0 127 35" fill="none" xmlns="http://www.w3.org/2000/svg">
<g clip-path="url(#clip0_1_4767)">
<path d="M9.46964 35H4.4971V4.95779H0V0H9.46964V35Z" fill="#231F20"/>
<path d="M27.6632 20.4107L37.7744 10.3279C36.6688 4.94478 32.3752 0.719132 26.9354 0.0405606C26.8328 0.0275736 26.7286 0.01621 26.6261 0.00646973V5.00485C28.9821 5.40257 30.9359 6.92205 32.0757 9.01296L24.1561 16.9074L27.6632 20.4107Z" fill="#EB2026"/>
<path d="M33.0526 18.5487L33.0314 21.8441V21.8604C33.0314 26.3685 29.5894 30.0357 25.3593 30.0357C21.1292 30.0357 17.6905 26.3717 17.6872 21.8685L17.7474 13.0941V13.0779C17.7474 9.07142 20.4763 5.66557 24.1479 5.0146V0.0113525L23.8223 0.0486902C17.5195 0.873366 12.7717 6.47077 12.7668 13.0698L12.7098 21.8441V21.8604C12.7098 29.1023 18.3824 34.9935 25.3544 34.9935C32.3264 34.9935 37.9942 29.1071 37.9974 21.8685L38.0528 13.5584L33.0526 18.5487Z" fill="#231F20"/>
<path d="M57.0849 0.0227051V15.8539H54.9047V4.95939L49.9745 15.8766L45.2055 4.95939V15.8539H43.0237V0.0227051H45.637L49.9745 10.3052L54.496 0.0227051H57.0849Z" fill="#231F20"/>
<path d="M64.6153 0.0227051H62.4124V15.8977H64.6153V0.0227051Z" fill="#231F20"/>
<path d="M81.6529 0.0227051V15.8766H79.1536L72.18 3.89608V15.8766H70.0454V0.0227051H72.5675L79.5623 12.2971V0.0227051H81.6529Z" fill="#231F20"/>
<path d="M97.9512 0V10.3052C97.9232 11.5146 97.5088 12.6835 96.7683 13.6417C96.0278 14.6 94.9999 15.2976 93.8342 15.6331C92.6685 15.9685 91.4258 15.9242 90.2871 15.5067C89.1484 15.0892 88.173 14.3202 87.503 13.3117C86.9224 12.4116 86.6003 11.3701 86.5717 10.3003V0H88.7518V10.1916C88.7518 11.1172 89.1206 12.005 89.7771 12.6595C90.4336 13.3141 91.324 13.6818 92.2525 13.6818C93.1809 13.6818 94.0713 13.3141 94.7278 12.6595C95.3843 12.005 95.7531 11.1172 95.7531 10.1916V0H97.9512Z" fill="#231F20"/>
<path d="M114.067 0V2.10552L108.728 2.08442L108.774 15.8977H106.525L106.548 2.08442H101.302V0H114.067Z" fill="#231F20"/>
<path d="M127 13.7695V15.875H117.354V0.0227051H127V2.15095H119.536V7.02108H125.237V9.1266H119.536V13.7695H127Z" fill="#231F20"/>
<path d="M47.7911 34.8831C45.8161 34.8831 44.0006 33.9561 43.0237 32.6201V32.5747L43.9322 31.0357C44.6356 32.0552 45.9968 32.8474 47.8139 32.9594H48.4033C49.9696 32.9594 51.264 31.8052 51.264 30.2451C51.264 28.685 50.038 28.0487 48.4033 27.8003C48.0507 27.7284 47.6948 27.6742 47.3368 27.638C45.0899 27.2094 43.0693 25.8961 43.0693 23.5195C43.0693 21.1428 44.9987 19.1558 47.3368 19.1558H47.6771C49.2434 19.1558 50.9221 19.8344 51.7623 20.8977L50.7414 22.776C49.8556 21.8019 49.0171 21.2597 47.6771 21.1915H47.3368C46.1336 21.1915 45.1355 22.2792 45.1355 23.5227C45.1355 24.7224 45.9756 25.3782 47.3368 25.56C47.905 25.6282 48.2893 25.651 48.4489 25.6737C51.1501 26.0357 53.1935 27.5747 53.1935 30.2451C53.1935 32.9156 51.0361 34.8149 48.4033 34.8831H47.7911Z" fill="#231F20"/>
<path d="M67.1146 33.4805C65.7846 34.4274 64.1899 34.9339 62.5556 34.9286C60.4488 34.9286 58.4282 34.0941 56.9384 32.6087C55.4486 31.1234 54.6116 29.1088 54.6116 27.0081C54.6116 24.9075 55.4486 22.8929 56.9384 21.4075C58.4282 19.9222 60.4488 19.0877 62.5556 19.0877C64.1875 19.0753 65.782 19.5739 67.1146 20.513L66.1165 22.5958C65.1126 21.7779 63.8486 21.3444 62.5524 21.3734C61.6452 21.3778 60.7524 21.5994 59.949 22.0197C59.1457 22.4399 58.4553 23.0464 57.9361 23.7881C57.4169 24.5298 57.0841 25.3851 56.9656 26.2818C56.847 27.1785 56.9463 28.0906 57.2551 28.9411C57.5639 29.7916 58.073 30.5557 58.7398 31.169C59.4065 31.7824 60.2113 32.2271 61.0864 32.4656C61.9614 32.7042 62.8812 32.7296 63.7682 32.5398C64.6552 32.3501 65.4835 31.9506 66.1833 31.375L67.1146 33.4805Z" fill="#231F20"/>
<path d="M81.0993 19.0876V34.9058H78.898V28.2987H71.6573V34.9058H69.456V19.0876H71.6573V26.3068H78.898V19.0876H81.0993Z" fill="#231F20"/>
<path d="M98.749 26.9627C98.749 31.3312 95.4128 34.9026 91.0167 34.9026C86.8403 34.9026 83.4813 31.3312 83.4813 26.9594C83.4813 22.6153 86.8403 19.0617 91.0167 19.0617C95.4128 19.0617 98.7555 22.6153 98.7555 26.9594M96.577 26.9594C96.577 23.815 94.1933 21.2565 91.0167 21.2565C88.0419 21.2565 85.6599 23.815 85.6599 26.9594C85.6599 30.151 88.0419 32.7305 91.0167 32.7305C94.1933 32.7305 96.577 30.151 96.577 26.9594Z" fill="#231F20"/>
<path d="M115.791 26.9627C115.791 31.3312 112.455 34.9059 108.053 34.9059C103.875 34.9059 100.516 31.3344 100.516 26.9627C100.516 22.6185 103.875 19.0649 108.053 19.0649C112.449 19.0649 115.791 22.6185 115.791 26.9627ZM113.613 26.9627C113.613 23.8182 111.229 21.2597 108.053 21.2597C105.078 21.2597 102.694 23.8182 102.694 26.9627C102.694 30.1542 105.078 32.7338 108.053 32.7338C111.229 32.7338 113.613 30.1542 113.613 26.9627" fill="#231F20"/>
<path d="M120.328 32.7792H127V34.9286H118.17V19.0876H120.328V32.7792Z" fill="#231F20"/>
</g>
<defs>
<clipPath id="clip0_1_4767">
<rect width="127" height="35" fill="white"/>
</clipPath>
</defs>
</svg>
