<svg width="174" height="56" viewBox="0 0 174 56" fill="none" xmlns="http://www.w3.org/2000/svg">
<g clip-path="url(#clip0_1_5527)">
<path fill-rule="evenodd" clip-rule="evenodd" d="M167.553 56H6.44682C2.8937 56 0 52.8439 0 49V7C0 3.14215 2.8937 0 6.44682 0H167.553C171.103 0 174 3.14215 174 7V49C174 52.8439 171.103 56 167.553 56Z" fill="black"/>
<path d="M167.553 55.5039H6.4468C3.20145 55.5039 0.492981 52.607 0.492981 48.9998V6.99977C0.492981 3.3793 3.20085 0.495605 6.4468 0.495605H167.553C170.796 0.495605 173.507 3.37947 173.507 6.99977V48.9998C173.507 52.6068 170.795 55.5039 167.553 55.5039Z" stroke="white" stroke-opacity="0.29" stroke-width="0.85"/>
<path d="M38.3565 29.3294C38.3717 28.1405 38.6857 26.9748 39.2692 25.9408C39.8528 24.9068 40.6869 24.0379 41.694 23.4153C41.0542 22.4963 40.2102 21.7401 39.229 21.2066C38.2477 20.673 37.1564 20.377 36.0415 20.342C33.6633 20.0909 31.3578 21.7732 30.1458 21.7732C28.9105 21.7732 27.0447 20.3668 25.0353 20.4085C23.7357 20.4507 22.4691 20.8308 21.3589 21.5117C20.2488 22.1926 19.333 23.1512 18.7007 24.2939C15.9616 29.0634 18.0047 36.0728 20.6284 39.9281C21.9411 41.8158 23.4754 43.9245 25.4827 43.8497C27.4472 43.7678 28.1809 42.5899 30.5521 42.5899C32.9013 42.5899 33.5896 43.8497 35.6377 43.8022C37.7457 43.7678 39.0738 41.906 40.3404 40.0004C41.2836 38.6552 42.0094 37.1686 42.4909 35.5954C41.2663 35.0745 40.2211 34.2025 39.4859 33.0883C38.7507 31.974 38.3579 30.6667 38.3565 29.3294Z" fill="white"/>
<path d="M34.495 17.8055C35.6444 16.4178 36.2107 14.6342 36.0736 12.8335C34.3177 13.019 32.6956 13.863 31.5308 15.1974C30.9613 15.8493 30.525 16.6077 30.2471 17.4292C29.9692 18.2508 29.855 19.1194 29.9111 19.9853C30.7893 19.9944 31.6581 19.8029 32.4521 19.4254C33.2463 19.0477 33.9447 18.4939 34.495 17.8055Z" fill="white"/>
<path d="M64.9278 37.8554H58.416L56.8522 42.3703H54.0941L60.2619 25.6665H63.1276L69.2954 42.3703H66.4902L64.9278 37.8554ZM59.0904 35.7721H64.2521L61.7075 28.4448H61.6364L59.0904 35.7721Z" fill="white"/>
<path d="M82.6103 36.2839C82.6103 40.0684 80.5387 42.4999 77.4125 42.4999C76.6206 42.5404 75.8329 42.362 75.1398 41.9851C74.4468 41.6083 73.8762 41.0483 73.4936 40.3692H73.4344V46.4012H70.8779V30.1941H73.3525V32.2197H73.3996C73.7998 31.5438 74.38 30.9866 75.0783 30.6075C75.7767 30.2284 76.5671 30.0415 77.3654 30.0667C80.5265 30.0667 82.6103 32.5099 82.6103 36.2839ZM79.9825 36.2839C79.9825 33.8184 78.6793 32.1973 76.691 32.1973C74.7377 32.1973 73.4237 33.8524 73.4237 36.2839C73.4237 38.7377 74.7377 40.381 76.691 40.381C78.6793 40.381 79.9825 38.7719 79.9825 36.2839Z" fill="white"/>
<path d="M96.3219 36.2839C96.3219 40.0684 94.2502 42.4999 91.124 42.4999C90.3321 42.5404 89.5445 42.362 88.8515 41.9851C88.1584 41.6083 87.5878 41.0483 87.2051 40.3692H87.1459V46.4012H84.5894V30.1941H87.064V32.2197H87.111C87.5113 31.5437 88.0915 30.9866 88.7899 30.6075C89.4882 30.2284 90.2786 30.0415 91.077 30.0667C94.2382 30.0667 96.3219 32.5099 96.3219 36.2839ZM93.694 36.2839C93.694 33.8182 92.3909 32.1973 90.4025 32.1973C88.4492 32.1973 87.1353 33.8524 87.1353 36.2839C87.1353 38.7377 88.4492 40.381 90.4025 40.381C92.3909 40.381 93.694 38.7718 93.694 36.2839Z" fill="white"/>
<path d="M105.377 37.7168C105.566 39.3733 107.212 40.4608 109.461 40.4608C111.616 40.4608 113.166 39.3733 113.166 37.8797C113.166 36.5832 112.231 35.8069 110.017 35.2748L107.803 34.7533C104.666 34.0124 103.21 32.578 103.21 30.2503C103.21 27.3683 105.779 25.3887 109.426 25.3887C113.036 25.3887 115.51 27.3683 115.594 30.2503H113.013C112.858 28.5834 111.449 27.5771 109.39 27.5771C107.33 27.5771 105.921 28.5951 105.921 30.0769C105.921 31.2578 106.821 31.9527 109.023 32.4847L110.905 32.9365C114.41 33.747 115.866 35.1237 115.866 37.567C115.866 40.6921 113.321 42.6493 109.271 42.6493C105.483 42.6493 102.925 40.738 102.76 37.7167L105.377 37.7168Z" fill="white"/>
<path d="M121.395 27.312V30.194H123.763V32.1736H121.395V38.8873C121.395 39.9303 121.868 40.4164 122.91 40.4164C123.191 40.4116 123.472 40.3923 123.751 40.3585V42.3263C123.282 42.4118 122.807 42.4506 122.331 42.4419C119.809 42.4419 118.826 41.5158 118.826 39.154V32.1736H117.015V30.194H118.826V27.312H121.395Z" fill="white"/>
<path d="M125.135 36.286C125.135 32.4543 127.443 30.0464 131.042 30.0464C134.654 30.0464 136.951 32.4542 136.951 36.286C136.951 40.1283 134.666 42.5255 131.042 42.5255C127.42 42.5255 125.135 40.1283 125.135 36.286ZM134.345 36.286C134.345 33.6575 133.113 32.1061 131.042 32.1061C128.971 32.1061 127.74 33.6692 127.74 36.286C127.74 38.925 128.971 40.4645 131.042 40.4645C133.113 40.4645 134.345 38.925 134.345 36.286Z" fill="white"/>
<path d="M139.064 30.1941H141.503V32.2669H141.562C141.726 31.6195 142.114 31.0474 142.66 30.6466C143.205 30.246 143.876 30.0411 144.558 30.0666C144.853 30.0656 145.146 30.0969 145.434 30.1599V32.4981C145.061 32.3869 144.674 32.336 144.284 32.347C143.913 32.3323 143.543 32.3963 143.2 32.5348C142.855 32.6731 142.547 32.8825 142.294 33.1488C142.041 33.415 141.849 33.7315 141.733 34.0769C141.617 34.4221 141.579 34.7878 141.621 35.1489V42.3723H139.064V30.1941Z" fill="white"/>
<path d="M157.214 38.7976C156.87 41.0084 154.669 42.5255 151.851 42.5255C148.228 42.5255 145.979 40.1518 145.979 36.3438C145.979 32.5238 148.24 30.0464 151.743 30.0464C155.189 30.0464 157.356 32.3609 157.356 36.0534V36.9099H148.56V37.061C148.519 37.5092 148.576 37.9607 148.728 38.3855C148.879 38.8104 149.122 39.1988 149.438 39.5251C149.756 39.8513 150.14 40.108 150.566 40.2778C150.993 40.4477 151.451 40.527 151.91 40.5105C152.515 40.5659 153.121 40.429 153.639 40.1204C154.157 39.8117 154.56 39.3479 154.787 38.7976H157.214ZM148.572 35.1628H154.799C154.822 34.7598 154.759 34.3565 154.615 33.9783C154.471 33.6001 154.249 33.255 153.962 32.9647C153.675 32.6745 153.33 32.4454 152.948 32.2918C152.567 32.1381 152.156 32.0633 151.743 32.072C151.327 32.0695 150.915 32.1478 150.53 32.3021C150.143 32.4564 149.794 32.6839 149.499 32.9712C149.204 33.2586 148.971 33.6002 148.811 33.9763C148.652 34.3526 148.57 34.7558 148.572 35.1628Z" fill="white"/>
<path d="M59.4665 10.9198C60.0183 10.88 60.572 10.9638 61.0876 11.1653C61.6033 11.3667 62.068 11.6808 62.4485 12.0848C62.8289 12.4887 63.1153 12.9726 63.2873 13.5015C63.4592 14.0302 63.5123 14.5909 63.4427 15.1429C63.4427 17.8581 61.9836 19.4188 59.4665 19.4188H56.4141V10.9198H59.4665ZM57.7266 18.2169H59.3199C59.7141 18.2406 60.1087 18.1756 60.4749 18.0265C60.841 17.8775 61.1695 17.6483 61.4365 17.3555C61.7034 17.0627 61.9021 16.7137 62.018 16.3339C62.134 15.9542 62.1643 15.5532 62.1066 15.1601C62.1601 14.7687 62.1267 14.3702 62.009 13.9932C61.8914 13.6163 61.6922 13.2701 61.4258 12.9796C61.1595 12.6891 60.8325 12.4615 60.4684 12.3131C60.1044 12.1646 59.7122 12.0989 59.3199 12.1209H57.7266V18.2169Z" fill="white"/>
<path d="M64.9289 16.2067C64.8888 15.7853 64.9368 15.3599 65.0696 14.9583C65.2026 14.5565 65.4175 14.187 65.7007 13.8737C65.9838 13.5604 66.329 13.31 66.714 13.1387C67.099 12.9673 67.5154 12.8789 67.9363 12.8789C68.3573 12.8789 68.7737 12.9673 69.1587 13.1387C69.5437 13.31 69.8888 13.5604 70.172 13.8737C70.4552 14.187 70.6701 14.5565 70.803 14.9583C70.936 15.3599 70.9839 15.7853 70.9438 16.2067C70.9846 16.6287 70.9373 17.0545 70.8047 17.457C70.6722 17.8594 70.4574 18.2295 70.1741 18.5434C69.8909 18.8574 69.5455 19.1082 69.1601 19.2799C68.7747 19.4517 68.3579 19.5403 67.9363 19.5403C67.5148 19.5403 67.098 19.4517 66.7127 19.2799C66.3272 19.1082 65.9819 18.8574 65.6986 18.5434C65.4153 18.2295 65.2006 17.8594 65.068 17.457C64.9354 17.0545 64.8881 16.6287 64.9289 16.2067ZM69.6492 16.2067C69.6492 14.8165 69.0282 14.0035 67.9384 14.0035C66.8444 14.0035 66.2291 14.8165 66.2291 16.2068C66.2291 17.6082 66.8444 18.415 67.9384 18.415C69.0282 18.415 69.6493 17.6026 69.6493 16.2067H69.6492Z" fill="white"/>
<path d="M78.9342 19.4202H77.6286L76.3106 14.6965H76.2111L74.8985 19.4202H73.6054L71.8475 13.0063H73.1241L74.2664 17.9005H74.3605L75.6717 13.0063H76.879L78.1901 17.9005H78.2898L79.4266 13.0063H80.6852L78.9342 19.4202Z" fill="white"/>
<path d="M82.1696 13.0022H83.3813V14.0211H83.4753C83.6348 13.6551 83.904 13.3484 84.245 13.1435C84.5862 12.9387 84.9824 12.8461 85.3783 12.8784C85.6886 12.8549 86.0002 12.9019 86.29 13.016C86.5797 13.1301 86.8403 13.3084 87.0522 13.5374C87.2642 13.7666 87.4222 14.0407 87.5146 14.3395C87.6069 14.6384 87.6313 14.9543 87.5857 15.264V19.416H86.3271V15.5818C86.3271 14.5511 85.8818 14.0385 84.951 14.0385C84.7403 14.0286 84.53 14.0646 84.3344 14.1442C84.139 14.2238 83.9629 14.3449 83.8182 14.4992C83.6736 14.6536 83.5638 14.8375 83.4966 15.0386C83.4293 15.2397 83.406 15.453 83.4282 15.6639V19.416H82.1696V13.0022Z" fill="white"/>
<path d="M89.5829 10.5H90.8413V19.4176H89.5829V10.5Z" fill="white"/>
<path d="M92.5966 16.2068C92.5566 15.7853 92.6046 15.3601 92.7376 14.9583C92.8704 14.5565 93.0855 14.1871 93.3686 13.8737C93.6518 13.5604 93.997 13.31 94.382 13.1387C94.767 12.9673 95.1834 12.8789 95.6044 12.8789C96.0255 12.8789 96.4419 12.9673 96.8269 13.1387C97.2119 13.31 97.5572 13.5604 97.8403 13.8737C98.1235 14.1871 98.3384 14.5565 98.4713 14.9583C98.6043 15.3601 98.6523 15.7853 98.6122 16.2068C98.653 16.6288 98.6056 17.0546 98.473 17.4571C98.3404 17.8595 98.1256 18.2296 97.8424 18.5435C97.5591 18.8575 97.2137 19.1083 96.8282 19.2801C96.4429 19.4517 96.026 19.5405 95.6044 19.5405C95.183 19.5405 94.7661 19.4517 94.3807 19.2801C93.9953 19.1083 93.6498 18.8575 93.3665 18.5435C93.0833 18.2296 92.8684 17.8595 92.7358 17.4571C92.6033 17.0546 92.5559 16.6288 92.5966 16.2068ZM97.317 16.2068C97.317 14.8166 96.696 14.0036 95.6061 14.0036C94.5122 14.0036 93.8968 14.8166 93.8968 16.2069C93.8968 17.6083 94.5123 18.4151 95.6061 18.4151C96.696 18.4151 97.317 17.6027 97.317 16.2068Z" fill="white"/>
<path d="M99.9321 17.6026C99.9321 16.4481 100.787 15.7825 102.304 15.688L104.032 15.5878V15.0342C104.032 14.3568 103.586 13.9743 102.726 13.9743C102.023 13.9743 101.537 14.2336 101.397 14.6871H100.178C100.307 13.5854 101.337 12.8789 102.784 12.8789C104.383 12.8789 105.285 13.6794 105.285 15.0342V19.4166H104.073V18.5152H103.973C103.771 18.8385 103.488 19.102 103.151 19.279C102.814 19.4559 102.437 19.5399 102.058 19.5223C101.79 19.5503 101.52 19.5214 101.264 19.4379C101.008 19.3543 100.772 19.2176 100.572 19.0368C100.371 18.856 100.211 18.6349 100.101 18.3879C99.9907 18.1408 99.9332 17.8734 99.9321 17.6026ZM104.032 17.0546V16.5184L102.474 16.6185C101.596 16.6777 101.198 16.9781 101.198 17.5436C101.198 18.1209 101.696 18.4567 102.38 18.4567C102.581 18.4772 102.783 18.4567 102.976 18.3969C103.169 18.3369 103.347 18.2386 103.501 18.1078C103.656 17.9769 103.782 17.8162 103.873 17.6354C103.964 17.4545 104.018 17.2569 104.032 17.0546Z" fill="white"/>
<path d="M106.947 16.2079C106.947 14.1813 107.982 12.8974 109.594 12.8974C109.992 12.879 110.388 12.975 110.734 13.1742C111.08 13.3735 111.363 13.6677 111.549 14.0226H111.643V10.5H112.902V19.4176H111.696V18.4043H111.596C111.396 18.7568 111.103 19.0475 110.75 19.2448C110.397 19.4419 109.997 19.5383 109.594 19.5234C107.971 19.5235 106.947 18.2395 106.947 16.2079ZM108.247 16.2079C108.247 17.5684 108.884 18.387 109.951 18.387C111.011 18.387 111.667 17.5566 111.667 16.2135C111.667 14.8767 111.004 14.0345 109.951 14.0345C108.891 14.0345 108.247 14.8587 108.247 16.2079Z" fill="white"/>
<path d="M118.098 16.2067C118.059 15.7853 118.107 15.3599 118.239 14.9583C118.372 14.5565 118.587 14.187 118.87 13.8737C119.154 13.5604 119.499 13.31 119.884 13.1387C120.269 12.9673 120.685 12.8789 121.106 12.8789C121.527 12.8789 121.944 12.9673 122.329 13.1387C122.713 13.31 123.059 13.5604 123.342 13.8737C123.625 14.187 123.839 14.5565 123.973 14.9583C124.106 15.3599 124.154 15.7853 124.113 16.2067C124.155 16.6287 124.107 17.0545 123.974 17.457C123.842 17.8594 123.627 18.2295 123.344 18.5434C123.061 18.8574 122.715 19.1082 122.33 19.2799C121.944 19.4517 121.527 19.5403 121.106 19.5403C120.684 19.5403 120.268 19.4517 119.883 19.2799C119.497 19.1082 119.152 18.8574 118.869 18.5434C118.584 18.2295 118.37 17.8594 118.238 17.457C118.105 17.0545 118.058 16.6287 118.098 16.2067ZM122.818 16.2067C122.818 14.8165 122.198 14.0035 121.109 14.0035C120.014 14.0035 119.399 14.8165 119.399 16.2068C119.399 17.6082 120.014 18.415 121.109 18.415C122.198 18.415 122.818 17.6026 122.818 16.2067Z" fill="white"/>
<path d="M125.815 13.0022H127.026V14.0211H127.12C127.28 13.6551 127.549 13.3484 127.89 13.1435C128.231 12.9387 128.628 12.8461 129.023 12.8784C129.334 12.8549 129.645 12.9019 129.935 13.016C130.225 13.1301 130.485 13.3084 130.697 13.5374C130.909 13.7666 131.067 14.0407 131.16 14.3395C131.252 14.6384 131.276 14.9543 131.231 15.264V19.416H129.972V15.5818C129.972 14.5511 129.527 14.0385 128.596 14.0385C128.385 14.0286 128.175 14.0646 127.979 14.1442C127.784 14.2238 127.608 14.3449 127.463 14.4992C127.318 14.6536 127.209 14.8375 127.142 15.0386C127.075 15.2397 127.051 15.453 127.073 15.6639V19.416H125.815V13.0022Z" fill="white"/>
<path d="M138.337 11.4067V13.0328H139.719V14.099H138.337V17.3971C138.337 18.0689 138.612 18.3631 139.238 18.3631C139.398 18.3626 139.56 18.3528 139.719 18.3339V19.3882C139.492 19.4289 139.264 19.4505 139.034 19.453C137.634 19.453 137.077 18.9577 137.077 17.7212V14.099H136.065V13.0328H137.077V11.4067H138.337Z" fill="white"/>
<path d="M141.439 10.5H142.686V14.0345H142.786C142.953 13.6652 143.23 13.3567 143.578 13.151C143.925 12.9454 144.327 12.8527 144.73 12.8856C145.038 12.8687 145.347 12.9205 145.633 13.0374C145.92 13.1542 146.177 13.3332 146.387 13.5616C146.597 13.79 146.754 14.0621 146.848 14.3586C146.941 14.6551 146.967 14.9686 146.927 15.2767V19.4176H145.667V15.589C145.667 14.5644 145.193 14.0456 144.303 14.0456C144.086 14.0278 143.869 14.0577 143.665 14.1332C143.462 14.2088 143.277 14.3282 143.124 14.4831C142.971 14.638 142.854 14.8246 142.78 15.0299C142.705 15.2353 142.678 15.4543 142.697 15.6717V19.4176H141.439V10.5Z" fill="white"/>
<path d="M154.261 17.6849C154.091 18.271 153.72 18.778 153.215 19.1173C152.709 19.4566 152.103 19.6062 151.498 19.5404C151.078 19.5515 150.661 19.4707 150.274 19.3033C149.889 19.1358 149.544 18.8859 149.263 18.5709C148.983 18.2559 148.775 17.8834 148.652 17.4792C148.529 17.0749 148.495 16.6486 148.553 16.2299C148.496 15.8098 148.531 15.3827 148.654 14.9771C148.776 14.5716 148.983 14.1973 149.263 13.8797C149.541 13.5619 149.885 13.3081 150.27 13.1354C150.654 12.9628 151.071 12.8754 151.492 12.879C153.267 12.879 154.338 14.0982 154.338 16.1123V16.554H149.835V16.6249C149.815 16.8603 149.844 17.0972 149.921 17.3205C149.997 17.5437 150.12 17.7484 150.279 17.9215C150.439 18.0945 150.634 18.2319 150.85 18.3251C151.066 18.4182 151.298 18.465 151.533 18.4623C151.834 18.4987 152.139 18.4442 152.409 18.3058C152.679 18.1673 152.902 17.9511 153.05 17.6847L154.261 17.6849ZM149.835 15.6179H153.056C153.071 15.4025 153.042 15.1863 152.97 14.9831C152.898 14.7797 152.785 14.5939 152.636 14.4374C152.489 14.281 152.31 14.1573 152.112 14.0745C151.914 13.9915 151.7 13.9513 151.486 13.9563C151.269 13.9535 151.052 13.9947 150.851 14.0772C150.649 14.1597 150.466 14.282 150.312 14.4369C150.158 14.5917 150.037 14.776 149.954 14.9788C149.872 15.1817 149.831 15.3989 149.835 15.6179Z" fill="white"/>
</g>
<defs>
<clipPath id="clip0_1_5527">
<rect width="174" height="56" fill="white"/>
</clipPath>
</defs>
</svg>
