<svg width="35" height="36" viewBox="0 0 35 36" fill="none" xmlns="http://www.w3.org/2000/svg">
<circle cx="17.3143" cy="17.9999" r="17" transform="rotate(-178.931 17.3143 17.9999)" fill="#E9EDF2" fill-opacity="0.5"/>
<g clip-path="url(#clip0_1_5625)">
<path d="M12.4003 18.8749L20.1156 26.8615C20.3684 27.123 20.7854 27.1304 21.0473 26.8776C21.3091 26.6248 21.3162 26.2075 21.0634 25.9458L13.8073 18.4345L21.3389 11.1993C21.6013 10.9472 21.6097 10.5302 21.3576 10.2678C21.2311 10.1362 21.0634 10.0685 20.8946 10.0654C20.7261 10.0622 20.5567 10.1232 20.4257 10.2491L12.4177 17.942C12.2913 18.0631 12.2186 18.2298 12.2153 18.4048C12.212 18.5799 12.2787 18.7489 12.4003 18.8749Z" fill="white"/>
</g>
<defs>
<clipPath id="clip0_1_5625">
<rect width="17" height="17" fill="white" transform="translate(25.145 27.1477) rotate(-178.931)"/>
</clipPath>
</defs>
</svg>
