<svg width="34" height="34" viewBox="0 0 34 34" fill="none" xmlns="http://www.w3.org/2000/svg">
<circle cx="17" cy="17" r="17" fill="#D9D9D9"/>
<g clip-path="url(#clip0_1_6216)">
<path d="M12.2427 17.0368L19.9677 25.0141C20.2208 25.2753 20.6378 25.2822 20.8995 25.0291C21.1609 24.776 21.1675 24.3587 20.9144 24.0973L13.6493 16.5948L21.1721 9.35045C21.4341 9.09799 21.4421 8.681 21.1897 8.4189C21.063 8.28751 20.8953 8.21999 20.7264 8.21705C20.5579 8.2141 20.3886 8.27531 20.2577 8.40131L12.259 16.1039C12.1328 16.2252 12.0602 16.392 12.0572 16.567C12.0541 16.742 12.121 16.911 12.2427 17.0368Z" fill="black"/>
</g>
<defs>
<clipPath id="clip0_1_6216">
<rect width="17" height="17" fill="white" transform="translate(24.9974 25.2942) rotate(-179)"/>
</clipPath>
</defs>
</svg>
