<svg width="34" height="35" viewBox="0 0 34 35" fill="none" xmlns="http://www.w3.org/2000/svg">
<circle cx="17" cy="17.5" r="17" fill="#D9D9D9"/>
<g clip-path="url(#clip0_1_6584)">
<path d="M21.8969 16.5335L14.0339 8.69224C13.7762 8.43548 13.3592 8.43591 13.102 8.69357C12.845 8.95119 12.8456 9.36852 13.1033 9.62548L20.4983 17L13.103 24.3745C12.8454 24.6315 12.8447 25.0486 13.1017 25.3063C13.2306 25.4354 13.3995 25.5 13.5684 25.5C13.7369 25.5 13.9051 25.4358 14.0338 25.3076L21.8969 17.4665C22.021 17.3431 22.0906 17.1751 22.0906 17C22.0906 16.825 22.0208 16.6572 21.8969 16.5335Z" fill="black"/>
</g>
<defs>
<clipPath id="clip0_1_6584">
<rect width="17" height="17" fill="white" transform="translate(9 8.5)"/>
</clipPath>
</defs>
</svg>
