<svg width="35" height="35" viewBox="0 0 35 35" fill="none" xmlns="http://www.w3.org/2000/svg">
<circle cx="17.3143" cy="17.4997" r="17" transform="rotate(-178.931 17.3143 17.4997)" fill="#E9EDF2" fill-opacity="0.5"/>
<g clip-path="url(#clip0_1_6274)">
<path d="M12.4003 18.3749L20.1156 26.3615C20.3684 26.623 20.7854 26.6304 21.0473 26.3776C21.3091 26.1248 21.3162 25.7075 21.0634 25.4458L13.8073 17.9345L21.3389 10.6993C21.6013 10.4472 21.6097 10.0302 21.3576 9.76779C21.2311 9.63625 21.0634 9.56853 20.8946 9.56537C20.7261 9.56223 20.5567 9.62323 20.4257 9.74907L12.4177 17.442C12.2913 17.5631 12.2186 17.7298 12.2153 17.9048C12.212 18.0799 12.2787 18.2489 12.4003 18.3749Z" fill="white"/>
</g>
<defs>
<clipPath id="clip0_1_6274">
<rect width="17" height="17" fill="white" transform="translate(25.145 26.6475) rotate(-178.931)"/>
</clipPath>
</defs>
</svg>
