<svg width="22" height="20" viewBox="0 0 22 20" fill="none" xmlns="http://www.w3.org/2000/svg">
<path d="M19.443 10.7675V17.5648C19.443 18.0798 18.8361 18.4973 18.0874 18.4973H3.91424C3.16554 18.4973 2.55859 18.0798 2.55859 17.5648V10.7675C2.55859 10.2525 3.16554 9.83496 3.91424 9.83496H18.0874C18.8361 9.83496 19.443 10.2525 19.443 10.7675Z" fill="#C7C6FD"/>
<path d="M20.4124 5.28374V11.8775C20.4124 12.6262 19.8055 13.2332 19.0568 13.2332H2.94451C2.19581 13.2332 1.58887 12.6262 1.58887 11.8775V5.28374C1.58887 4.53504 2.19581 3.9281 2.94451 3.9281H19.0568C19.8055 3.9281 20.4124 4.53504 20.4124 5.28374Z" fill="#6572EF"/>
<path d="M12.0649 13.1908V15.4597C12.0649 15.5774 11.9369 15.6505 11.8356 15.5906L11.0853 15.1473C11.0329 15.1163 10.9678 15.1161 10.9152 15.1467L10.1474 15.5932C10.0461 15.6522 9.91895 15.5791 9.91895 15.4618V13.1908H12.0649Z" fill="#6572EF"/>
<path d="M12.7293 12.4778V14.007C12.7293 14.2069 12.5673 14.369 12.3674 14.369H9.63441C9.43451 14.369 9.27246 14.2069 9.27246 14.007V12.4778C9.27246 12.2779 9.43451 12.1159 9.63441 12.1159H12.3674C12.5673 12.1159 12.7293 12.2779 12.7293 12.4778Z" fill="white"/>
<path d="M14.1348 3.9291H13.0503V2.81483C13.0503 2.68859 12.947 2.58531 12.8208 2.58531H9.17927C9.05303 2.58531 8.94975 2.68859 8.94975 2.81483V3.9291H7.86523V2.65666C7.86523 2.01829 8.38274 1.50079 9.02111 1.50079H12.9789C13.6173 1.50079 14.1348 2.01829 14.1348 2.65666V3.9291Z" fill="#C7C6FD"/>
</svg>
