<svg width="1169" height="480" viewBox="0 0 1169 480" fill="none" xmlns="http://www.w3.org/2000/svg">
<g clip-path="url(#clip0_1_5417)">
<g opacity="0.35">
<path d="M1169 0H0V480H1169V0Z" fill="url(#paint0_linear_1_5417)"/>
<path d="M835.111 -3.89145C835.111 -3.89145 832.285 -7.91315 824.949 -8.58257C817.612 -9.24677 813.215 -5.40742 805.053 -12.771C805.053 -12.771 809.104 -3.93315 817.681 -2.75321C826.257 -1.57327 831.744 -4.83177 836.71 1.16953L835.111 -3.88884V-3.89145Z" fill="#B459FF"/>
<path d="M346.302 -26.3335C339.122 -15.7401 334.342 -11.036 323.833 -4.2194C326.823 -0.822827 328.316 0.875485 331.307 4.27205C341.811 -2.54714 346.593 -7.25393 353.774 -17.8448C350.786 -21.2387 349.293 -22.9396 346.302 -26.3335Z" fill="#FF4F5D"/>
<path d="M910.336 322.104C907.048 324.888 905.614 326.701 903.603 330.616C902.453 329.597 901.879 329.09 900.729 328.071C902.739 324.156 904.169 322.346 907.461 319.559C908.612 320.577 909.186 321.085 910.336 322.104Z" fill="#FFCB00"/>
<path d="M597.06 284.354C595.006 286.841 594.183 288.36 593.202 291.496C592.237 290.912 591.753 290.621 590.788 290.037C591.771 286.904 592.591 285.38 594.648 282.892C595.614 283.476 596.095 283.767 597.063 284.351L597.06 284.354Z" fill="#FFCB00"/>
<path d="M1082.23 9.83057C1083.21 11.9065 1083.99 12.7583 1085.94 13.8315C1085.07 14.7327 1084.64 15.1833 1083.77 16.0871C1081.83 15.0114 1081.03 14.1597 1080.06 12.0837C1080.93 11.1825 1081.36 10.7292 1082.23 9.83057Z" fill="#FF4F5D"/>
<path d="M1127.21 69.1847C1127.78 68.1715 1127.91 67.5802 1127.81 66.4028C1128.42 66.5487 1128.72 66.6243 1129.32 66.7727C1129.42 67.9501 1129.29 68.5439 1128.72 69.5546C1128.11 69.4061 1127.8 69.3358 1127.21 69.1847Z" fill="#FF4F5D"/>
<path d="M1000.14 186.689C998.057 185.543 996.866 185.329 994.549 185.692C994.766 184.334 994.87 183.655 995.088 182.298C997.414 181.935 998.606 182.149 1000.69 183.295C1000.47 184.655 1000.36 185.335 1000.14 186.689Z" fill="#FF4F5D"/>
<path d="M892.261 177.849C893.044 178.713 893.559 179.008 894.678 179.219C894.377 179.805 894.229 180.096 893.933 180.685C892.817 180.472 892.3 180.177 891.514 179.315C891.813 178.729 891.96 178.437 892.261 177.849Z" fill="#FF4F5D"/>
<path d="M933.493 85.5296C936.804 81.7971 937.863 79.4164 938.469 74.3423C940.898 75.5509 942.115 76.1552 944.544 77.3612C943.935 82.4404 942.876 84.8185 939.568 88.5537C937.136 87.3451 935.919 86.7408 933.49 85.5296H933.493Z" fill="#FF4F5D"/>
<path d="M1047.82 58.2108C1047.01 56.8277 1046.42 56.2859 1044.99 55.666C1045.55 54.981 1045.82 54.6372 1046.38 53.9521C1047.8 54.5695 1048.39 55.114 1049.2 56.4971C1048.65 57.1821 1048.37 57.5258 1047.82 58.2108Z" fill="#FF4F5D"/>
<path d="M1041.95 96.3313C1037.04 96.597 1034.68 97.5477 1030.85 100.806C1029.87 98.1103 1029.39 96.7637 1028.42 94.0652C1032.25 90.8067 1034.61 89.8533 1039.52 89.5928C1040.5 92.2861 1040.98 93.6354 1041.95 96.3313Z" fill="#FF4F5D"/>
<path d="M933.642 252.201C932.452 253.774 932.105 254.745 932.012 256.756C931.023 256.36 930.529 256.162 929.54 255.769C929.629 253.756 929.976 252.787 931.172 251.213C932.157 251.609 932.655 251.805 933.642 252.203V252.201Z" fill="#FF4F5D"/>
<path d="M983.587 129.627C983.085 128.179 982.632 127.554 981.43 126.684C982.064 126.16 982.386 125.903 983.029 125.376C984.23 126.244 984.684 126.872 985.176 128.322C984.542 128.846 984.22 129.106 983.587 129.627Z" fill="#FF4F5D"/>
<path d="M257.256 204.686C258.524 203.516 258.973 202.732 259.353 201C260.151 201.508 260.549 201.763 261.353 202.271C260.974 204.003 260.527 204.787 259.261 205.957C258.461 205.449 258.059 205.191 257.259 204.683L257.256 204.686Z" fill="#FF4F5D"/>
<path d="M211.858 120.765C216.029 117.512 217.581 115.22 219.154 110C221.492 111.771 222.658 112.657 224.998 114.428C223.427 119.648 221.874 121.937 217.699 125.191C215.361 123.42 214.196 122.534 211.858 120.765Z" fill="#FF4F5D"/>
<path d="M537.993 255.196C536.856 254.623 536.21 254.529 534.966 254.771C535.057 254.037 535.106 253.667 535.2 252.932C536.441 252.69 537.087 252.784 538.228 253.36C538.136 254.094 538.09 254.464 537.993 255.196Z" fill="#FF4F5D"/>
<path d="M551.985 257.553C552.835 255.899 552.999 254.941 552.771 253.076C553.741 253.266 554.226 253.36 555.197 253.553C555.434 255.42 555.267 256.374 554.416 258.03C553.446 257.84 552.961 257.744 551.985 257.553Z" fill="#FF4F5D"/>
<path d="M774.607 34.3837C778.28 33.7377 779.98 32.8053 782.596 30C783.547 31.9405 784.023 32.9095 784.973 34.85C782.36 37.6527 780.659 38.5852 776.984 39.2312C776.035 37.2932 775.558 36.3242 774.604 34.3837H774.607Z" fill="#FF4F5D"/>
<path d="M214.628 254.069C214.284 252.86 213.934 252.326 212.982 251.56C213.527 251.162 213.8 250.961 214.345 250.562C215.294 251.326 215.646 251.862 215.991 253.071C215.446 253.469 215.173 253.67 214.628 254.069Z" fill="#FF4F5D"/>
<path d="M172.489 162.022C173.533 164.687 174.44 165.818 176.763 167.328C175.612 168.368 175.036 168.889 173.883 169.925C171.562 168.414 170.651 167.284 169.606 164.619C170.757 163.58 171.336 163.062 172.489 162.022Z" fill="#FF4F5D"/>
<path d="M96.6345 141.57C93.4569 140.427 91.7275 140.4 88.5175 141.45C88.5422 139.478 88.557 138.494 88.584 136.525C91.794 135.475 93.521 135.504 96.7017 136.647C96.6742 138.619 96.6619 139.603 96.6345 141.573V141.57Z" fill="#FF4F5D"/>
<path d="M116.32 43.8276C119.765 40.194 120.903 37.8393 121.673 32.7627C124.079 34.0651 125.278 34.7136 127.68 36.0134C126.908 41.09 125.768 43.4421 122.327 47.0757C119.922 45.7759 118.723 45.1247 116.32 43.825V43.8276Z" fill="#FF4F5D"/>
<path d="M487.962 26.4358C486.247 31.39 486.154 34.1016 487.521 39.1782C484.755 39.0714 483.367 39.0193 480.604 38.9099C479.239 33.8359 479.333 31.1217 481.042 26.1675C483.808 26.2743 485.193 26.3264 487.962 26.4358Z" fill="#FF4F5D"/>
<path d="M182.957 257.595C182.506 252.537 181.528 250.135 178.355 246.319C180.803 245.202 182.028 244.642 184.48 243.527C187.65 247.345 188.633 249.744 189.081 254.803C186.632 255.92 185.408 256.478 182.959 257.595H182.957Z" fill="#FF4F5D"/>
<path d="M549.564 473.923C546.125 475.39 544.667 476.684 542.699 480C541.38 478.336 540.718 477.5 539.397 475.833C541.368 472.514 542.829 471.22 546.265 469.756C547.587 471.42 548.247 472.256 549.564 473.923Z" fill="#FF4F5D"/>
<path d="M344.511 282.835C346.883 282.348 347.972 281.712 349.62 279.85C350.268 281.09 350.596 281.71 351.244 282.952C349.591 284.815 348.504 285.453 346.134 285.937C345.486 284.695 345.161 284.078 344.513 282.835H344.511Z" fill="#FF4F5D"/>
<path d="M887.974 464.366C884.064 469.19 882.879 472.209 882.394 478.536C879.314 477.182 877.774 476.507 874.698 475.15C875.186 468.818 876.373 465.802 880.278 460.975C883.357 462.332 884.894 463.009 887.971 464.364L887.974 464.366Z" fill="#FF4F5D"/>
<path d="M696.122 32.3278C692.505 28.4155 690.147 27.1054 685.048 26.1807C686.386 23.4926 687.05 22.1485 688.386 19.4604C693.486 20.3851 695.841 21.6954 699.457 25.6077C698.124 28.2958 697.454 29.6397 696.122 32.3278Z" fill="#FF4F5D"/>
<path d="M586.012 47.443C589.57 51.2016 591.876 52.4467 596.843 53.2802C595.573 55.9083 594.941 57.2211 593.674 59.8519C588.708 59.0158 586.402 57.7733 582.842 54.0121C584.113 51.3813 584.747 50.0712 586.012 47.4404V47.443Z" fill="#FF4F5D"/>
<path d="M171.859 326.644C170.164 326.337 169.292 326.472 167.748 327.277C167.612 326.279 167.545 325.779 167.405 324.782C168.948 323.979 169.822 323.847 171.52 324.149C171.655 325.149 171.724 325.649 171.859 326.647V326.644Z" fill="#FF4F5D"/>
<path d="M1091.27 105.408C1091.44 101.996 1091.01 100.298 1089.25 97.4278C1090.98 96.9381 1091.85 96.6933 1093.58 96.2036C1095.33 99.074 1095.77 100.769 1095.6 104.184C1093.86 104.674 1093 104.919 1091.27 105.406V105.408Z" fill="#FF4F5D"/>
<path d="M531.894 55.6532C526.516 53.8012 523.609 53.796 518.229 55.6323C518.229 52.3165 518.234 50.6599 518.239 47.3388C523.621 45.5025 526.526 45.5077 531.904 47.3571C531.899 50.6729 531.899 52.3348 531.894 55.6506V55.6532Z" fill="#FFCB00"/>
<path d="M492.5 292.428C492.088 295.504 492.349 297.083 493.724 299.831C492.118 300.128 491.312 300.274 489.706 300.573C488.329 297.828 488.07 296.252 488.481 293.173C490.088 292.876 490.893 292.725 492.5 292.428Z" fill="#FF4F5D"/>
<path d="M648.802 46.552C646.153 45.8748 644.756 45.9842 642.239 47.0782C642.125 45.4841 642.067 44.687 641.953 43.093C644.474 41.999 645.871 41.887 648.519 42.5668C648.631 44.1609 648.688 44.9553 648.804 46.5494L648.802 46.552Z" fill="#FFCB00"/>
<path d="M828.322 332.169C832.502 335.917 835.111 337.047 840.575 337.49C839.42 340.465 838.841 341.952 837.685 344.927C832.221 344.486 829.614 343.353 825.434 339.605C826.59 336.628 827.169 335.143 828.324 332.169H828.322Z" fill="#FF4F5D"/>
<path d="M556.298 1.61523C557.969 5.61871 559.383 7.29355 562.955 9.49715C561.242 11.1147 560.388 11.9248 558.675 13.5397C555.106 11.3361 553.687 9.66126 552.019 5.66039C553.729 4.04285 554.586 3.23538 556.298 1.61523Z" fill="#FF4F5D"/>
<path d="M352.604 348.38C351.164 346.166 350.128 345.322 347.733 344.429C348.596 343.244 349.021 342.655 349.879 341.47C352.274 342.369 353.31 343.21 354.749 345.421C353.887 346.604 353.461 347.195 352.604 348.38Z" fill="#FF4F5D"/>
<path d="M277.812 412.449C273.467 408.747 270.786 407.669 265.216 407.37C266.317 404.309 266.872 402.78 267.973 399.719C273.543 400.022 276.226 401.103 280.571 404.799C279.468 407.857 278.916 409.388 277.812 412.446V412.449Z" fill="#FF4F5D"/>
<path d="M177.464 477.838C175.843 472.272 174.214 469.818 169.814 466.317C172.315 464.46 173.563 463.53 176.067 461.673C180.469 465.174 182.097 467.625 183.718 473.194C181.218 475.054 179.966 475.981 177.464 477.838Z" fill="#FF4F5D"/>
<path d="M114.2 -10.2856C115.417 -6.32904 116.609 -4.5969 119.789 -2.15367C118.025 -0.794 117.143 -0.116763 115.374 1.24031C112.192 -1.20293 111.002 -2.93507 109.785 -6.89166C111.549 -8.24872 112.433 -8.92856 114.2 -10.2856Z" fill="#FFCB00"/>
<path d="M141.245 218.613C142.392 219.28 143.055 219.41 144.355 219.238C144.22 219.993 144.154 220.374 144.013 221.129C142.713 221.301 142.05 221.168 140.902 220.501C141.038 219.746 141.107 219.368 141.245 218.613Z" fill="#FF4F5D"/>
<path d="M733.52 353.605C734.707 355.692 735.604 356.512 737.72 357.463C736.882 358.484 736.463 358.995 735.628 360.013C733.508 359.062 732.613 358.242 731.426 356.156C732.263 355.137 732.682 354.627 733.52 353.605Z" fill="#01B5D6"/>
<path d="M807.761 284.26C809.786 282.809 810.56 281.757 811.395 279.324C812.466 280.207 813.003 280.647 814.075 281.53C813.24 283.966 812.466 285.015 810.439 286.469C809.367 285.586 808.83 285.146 807.761 284.263V284.26Z" fill="#01B5D6"/>
<path d="M287.511 89.1875C284.131 85.4706 281.919 84.2203 277.117 83.3087C278.393 80.7847 279.033 79.524 280.307 77C285.109 77.9117 287.323 79.1645 290.704 82.8762C289.428 85.4028 288.789 86.6636 287.511 89.1875Z" fill="#01B5D6"/>
<path d="M1020.66 199.148C1020.67 197.035 1020.35 196.004 1019.19 194.287C1020.25 193.933 1020.78 193.753 1021.83 193.396C1023 195.11 1023.31 196.144 1023.3 198.254C1022.24 198.614 1021.71 198.791 1020.66 199.148Z" fill="#01B5D6"/>
<path d="M1074.88 48.1775C1070.63 53.2281 1069.3 56.4137 1068.66 63.1443C1065.41 61.631 1063.79 60.8757 1060.54 59.3623C1061.18 52.6343 1062.5 49.446 1066.77 44.3955C1070.01 45.9088 1071.64 46.6668 1074.88 48.1775Z" fill="#01B5D6"/>
<path d="M1039.99 13.5059C1042.77 17.0301 1044.66 18.2881 1048.87 19.4186C1047.58 21.5701 1046.94 22.6484 1045.65 24.7999C1041.45 23.6669 1039.56 22.4088 1036.79 18.8846C1038.06 16.7331 1038.71 15.6548 1039.99 13.5059Z" fill="#01B5D6"/>
<path d="M1023.3 151.129C1021.63 152.351 1020.99 153.226 1020.32 155.25C1019.43 154.528 1018.99 154.169 1018.09 153.448C1018.76 151.424 1019.39 150.546 1021.06 149.324C1021.96 150.048 1022.4 150.408 1023.3 151.129Z" fill="#01B5D6"/>
<path d="M321.39 12.9355C323.339 17.7621 325.017 19.7964 329.274 22.4975C327.197 24.4119 326.158 25.3678 324.083 27.2797C319.826 24.5786 318.149 22.5443 316.199 17.7178C318.276 15.8033 319.314 14.8474 321.393 12.9355H321.39Z" fill="#01B5D6"/>
<path d="M105.932 233.896C107.885 228.52 108.035 225.561 106.633 220C109.651 220.169 111.159 220.255 114.177 220.425C115.579 225.988 115.428 228.947 113.472 234.321C110.456 234.151 108.947 234.066 105.929 233.896H105.932Z" fill="#01B5D6"/>
<path d="M1096.18 155.974C1102 157.175 1105.03 156.787 1110.4 154.146C1110.8 157.6 1110.99 159.324 1111.39 162.778C1106.02 165.416 1102.99 165.805 1097.18 164.604C1096.78 161.15 1096.58 159.426 1096.18 155.974Z" fill="#01B5D6"/>
<path d="M1009.49 255.204C1007.89 257.798 1007.5 259.34 1007.63 262.437C1006.06 261.984 1005.27 261.76 1003.7 261.309C1003.56 258.21 1003.96 256.67 1005.57 254.073C1007.14 254.524 1007.92 254.751 1009.49 255.204Z" fill="#01B5D6"/>
<path d="M418.437 338.644C417.458 334.112 416.298 332.062 412.992 328.999C415.086 327.676 416.136 327.017 418.227 325.693C421.535 328.757 422.694 330.809 423.674 335.341C421.58 336.662 420.531 337.323 418.437 338.644Z" fill="#01B5D6"/>
<path d="M391.744 33.8176C390.672 29.262 389.465 27.2147 386.07 24.1932C388.159 22.8153 389.206 22.1276 391.295 20.7471C394.69 23.7712 395.898 25.8185 396.969 30.3742C394.877 31.7521 393.835 32.4424 391.741 33.8176H391.744Z" fill="#01B5D6"/>
<path d="M999.504 53.2516C995.381 50.8682 993.007 50.3915 988.354 51.0167C988.836 48.3104 989.082 46.9559 989.564 44.2496C994.227 43.6245 996.601 44.1037 1000.71 46.487C1000.23 49.1933 999.987 50.5426 999.504 53.2516Z" fill="#01B5D6"/>
<path d="M261.951 304.626C265.055 305.824 266.751 305.887 269.929 304.933C269.863 306.869 269.831 307.84 269.765 309.776C266.587 310.734 264.889 310.669 261.785 309.471C261.849 307.535 261.883 306.564 261.951 304.629V304.626Z" fill="#01B5D6"/>
<path d="M94.8536 83.021C100.98 85.8679 104.407 86.23 110.948 84.7297C110.578 88.6368 110.394 90.5903 110.021 94.4974C103.481 95.9977 100.056 95.6331 93.9272 92.7887C94.3017 88.8816 94.4864 86.928 94.8564 83.021H94.8536Z" fill="#01B5D6"/>
<path d="M892.514 32.509C888.323 31.7797 886.163 32.1287 882.366 34.1396C882.009 31.6755 881.831 30.446 881.479 27.9819C885.277 25.9685 887.436 25.6221 891.631 26.3488C891.984 28.8129 892.161 30.0449 892.514 32.509Z" fill="#01B5D6"/>
<path d="M944.132 200.377C945.84 197.189 946.2 195.35 945.812 191.711C947.694 192.122 948.64 192.326 950.522 192.735C950.9 196.371 950.541 198.215 948.838 201.398C946.956 200.989 946.01 200.783 944.132 200.377Z" fill="url(#paint1_linear_1_5417)"/>
<path d="M1076.69 238.229C1082.02 236.997 1084.46 235.497 1088.1 231.183C1089.62 233.952 1090.39 235.335 1091.92 238.107C1088.28 242.417 1085.86 243.915 1080.51 245.152C1078.99 242.381 1078.22 240.998 1076.69 238.229Z" fill="url(#paint2_linear_1_5417)"/>
<path d="M830.425 51.6683C829.701 44.6147 828.284 41.2885 823.786 36.0321C827.18 34.4198 828.878 33.6123 832.275 32C836.776 37.259 838.19 40.5878 838.916 47.6362C835.519 49.2485 833.824 50.0534 830.425 51.6683Z" fill="url(#paint3_linear_1_5417)"/>
<path d="M629.914 -0.0932617C632.759 5.84552 635.043 8.27308 640.642 11.3154C638.164 13.9201 636.925 15.2251 634.446 17.8272C628.847 14.7849 626.566 12.3599 623.718 6.41596C626.196 3.81122 627.435 2.51147 629.914 -0.0932617Z" fill="url(#paint4_linear_1_5417)"/>
<path d="M202.4 56.4439C209.101 56.3735 212.369 55.2145 217.757 51C218.94 54.7248 219.531 56.5898 220.711 60.3197C215.326 64.5342 212.057 65.6933 205.353 65.7636C204.171 62.0362 203.582 60.1738 202.4 56.4439Z" fill="url(#paint5_linear_1_5417)"/>
<path d="M222.29 1.7041C222.319 6.15558 223.004 8.3227 225.497 11.9094C223.283 12.6882 222.173 13.0763 219.956 13.8577C217.463 10.2736 216.781 8.10131 216.749 3.65243C218.964 2.87362 220.07 2.48291 222.287 1.7041H222.29Z" fill="url(#paint6_linear_1_5417)"/>
</g>
</g>
<defs>
<linearGradient id="paint0_linear_1_5417" x1="584.5" y1="0" x2="584.5" y2="480" gradientUnits="userSpaceOnUse">
<stop stop-color="white"/>
<stop offset="1" stop-color="white" stop-opacity="0"/>
</linearGradient>
<linearGradient id="paint1_linear_1_5417" x1="944.132" y1="196.556" x2="950.654" y2="196.556" gradientUnits="userSpaceOnUse">
<stop stop-color="#CE38BF"/>
<stop offset="0.73" stop-color="#E051CA"/>
<stop offset="1" stop-color="#E85CCF"/>
</linearGradient>
<linearGradient id="paint2_linear_1_5417" x1="1076.69" y1="238.169" x2="1091.92" y2="238.169" gradientUnits="userSpaceOnUse">
<stop stop-color="#CE38BF"/>
<stop offset="0.73" stop-color="#E051CA"/>
<stop offset="1" stop-color="#E85CCF"/>
</linearGradient>
<linearGradient id="paint3_linear_1_5417" x1="828.215" y1="31.6718" x2="835.992" y2="50.428" gradientUnits="userSpaceOnUse">
<stop stop-color="#CE38BF"/>
<stop offset="0.73" stop-color="#E051CA"/>
<stop offset="1" stop-color="#E85CCF"/>
</linearGradient>
<linearGradient id="paint4_linear_1_5417" x1="624.477" y1="1.20389" x2="643.185" y2="19.961" gradientUnits="userSpaceOnUse">
<stop stop-color="#CE38BF"/>
<stop offset="0.73" stop-color="#E051CA"/>
<stop offset="1" stop-color="#E85CCF"/>
</linearGradient>
<linearGradient id="paint5_linear_1_5417" x1="202.4" y1="58.3818" x2="220.711" y2="58.3818" gradientUnits="userSpaceOnUse">
<stop stop-color="#CE38BF"/>
<stop offset="0.73" stop-color="#E051CA"/>
<stop offset="1" stop-color="#E85CCF"/>
</linearGradient>
<linearGradient id="paint6_linear_1_5417" x1="220.136" y1="6.11129" x2="224.182" y2="14.3232" gradientUnits="userSpaceOnUse">
<stop stop-color="#CE38BF"/>
<stop offset="0.73" stop-color="#E051CA"/>
<stop offset="1" stop-color="#E85CCF"/>
</linearGradient>
<clipPath id="clip0_1_5417">
<rect width="1169" height="480" fill="white"/>
</clipPath>
</defs>
</svg>
