<svg width="1445" height="1362" viewBox="0 0 1445 1362" fill="none" xmlns="http://www.w3.org/2000/svg">
<rect x="2" width="1440" height="1362" fill="#F4F7FD"/>
<g clip-path="url(#clip0_1_4805)">
<path d="M1232.95 1320.57C1292.8 1318.15 1408.05 1325.28 1499.58 1332.6C1496.34 1337.84 1486.18 1343 1476.09 1347.07L1435.62 1347.85L1470.19 1347.07C1449.77 1347.43 1121.26 1346.7 897.744 1346.76C1018.42 1336.56 1139.44 1324.35 1232.95 1320.57L1232.95 1320.57ZM261.255 1318.38C329.167 1322.52 416.917 1335.93 504.448 1347.12C341.919 1347.09 103.016 1347.94 88.1796 1347.55L113.304 1348.41L77.8697 1347.38L-18.8 1343.65C26.6136 1335.72 193.337 1314.24 261.255 1318.38V1318.38V1318.38Z" fill="#ECEFF5"/>
<path d="M459.089 1343.14C459.089 1343.14 453.624 1335.9 450.186 1334.79C446.747 1333.68 449.434 1337.51 449.434 1337.51C449.434 1337.51 443.887 1331.44 441.648 1332.04C439.597 1332.59 441.648 1336.71 441.648 1336.71C441.648 1336.71 439.337 1334.43 436.534 1334.43C433.732 1334.43 438.701 1342.97 438.701 1342.97L459.089 1343.14Z" fill="#9CC8A1"/>
<path d="M441.648 1343.1C441.648 1343.1 437.203 1331.94 432.577 1333.1C428.828 1334.03 431.03 1338.27 430.801 1338.04C430.572 1337.81 429.736 1336.38 426.483 1336.38C423.229 1336.38 426.541 1340.41 426.541 1340.41C426.541 1340.41 420.55 1338.81 420.007 1341.08C419.557 1342.95 422.075 1343.1 422.075 1343.1H441.648V1343.1ZM1092.03 1343.25C1092.03 1343.25 1095.97 1332.42 1100.78 1333.59C1104.69 1334.54 1101.86 1340.34 1102.1 1340.11C1102.33 1339.87 1104.42 1336.41 1107.81 1336.41C1111.2 1336.41 1106.77 1341.08 1106.77 1341.08C1106.77 1341.08 1113.98 1338.89 1114.55 1341.19C1115.02 1343.11 1112.4 1343.25 1112.4 1343.25H1092.03V1343.25Z" fill="#9CC8A1"/>
<path d="M-11.2891 1343.25H1501.45C1483.38 1351.22 1447.18 1357.5 1447.18 1357.5L1425.04 1357.41L-11.2891 1357.26V1343.25Z" fill="#D2EAF4"/>
<path d="M315.714 1343.06H317.238V1316.45H315.714V1343.06V1343.06Z" fill="#05173E"/>
<path d="M316.077 1269L323.586 1322.72H308.568L316.077 1269Z" fill="#9CC8A1"/>
<path d="M323.109 1319.31L309.636 1315.07L309.839 1313.62L322.887 1317.72L323.109 1319.31V1319.31ZM320.739 1302.34L311.808 1299.53L312.012 1298.08L320.516 1300.75L320.739 1302.34V1302.34Z" fill="#5BA06A"/>
<path d="M335.474 1342.52H336.769V1328.23H335.474V1342.52Z" fill="#05173E"/>
<path d="M336.123 1300.5L340.346 1334.52H331.898L336.123 1300.5Z" fill="#9CC8A1"/>
<path d="M338.814 1322.18L332.792 1327.33L333.024 1325.46L338.627 1320.67L338.814 1322.18V1322.18ZM337.888 1314.72L334.201 1315.98L334.373 1314.58L337.73 1313.44L337.888 1314.72Z" fill="#5BA06A"/>
<path d="M818.833 1344C818.833 1344 824.877 1327.33 832.26 1329.14C838.243 1330.6 833.9 1339.52 834.269 1339.16C834.63 1338.81 837.844 1333.48 843.037 1333.48C848.223 1333.48 841.442 1340.67 841.442 1340.67C841.442 1340.67 852.497 1337.29 853.37 1340.84C854.085 1343.78 850.066 1344 850.066 1344H818.833V1344Z" fill="#9CC8A1"/>
<g style="mix-blend-mode:luminosity" opacity="0.5">
<path d="M714.129 1342.07H717.71V1297.89H714.129V1342.07Z" fill="#FCF5EB"/>
<path d="M717.831 1280.2H692.672V1294.69H717.831V1280.2Z" fill="#B6D0D8"/>
<path d="M717.831 1280.2H714.866V1294.69H717.831V1280.2Z" fill="#E4E4E4"/>
<path d="M718.383 1279.5H691.522V1280.9H718.383V1279.5Z" fill="#2B373C"/>
<path d="M699.352 1290.54V1282.89H693.611V1290.54H699.352ZM706.533 1290.54V1282.89H700.791V1290.54H706.533ZM713.567 1290.54V1282.89H707.824V1290.54H713.567Z" fill="#D3E3F1"/>
<path d="M760.981 1294.69H786.14V1280.2H760.981V1294.69Z" fill="#B6D0D8"/>
<path d="M760.981 1294.69H763.946V1280.2H760.981V1294.69Z" fill="#E4E4E4"/>
<path d="M717.889 1294.91H686.091V1343.23H717.889V1294.91Z" fill="#B6D0D8"/>
<path d="M700.569 1305.53V1297.88H688.347V1305.53H700.569ZM700.569 1314.41V1306.76H688.347V1314.41H700.569ZM700.569 1323.28V1315.63H688.347V1323.28H700.569ZM700.569 1332.16V1324.51H688.347V1332.16H700.569ZM700.569 1341.03V1333.38H688.347V1341.03H700.569ZM714.123 1305.53V1297.88H701.901V1305.53H714.123ZM714.123 1314.41V1306.76H701.901V1314.41H714.123ZM714.123 1323.28V1315.63H701.901V1323.28H714.123ZM714.123 1332.16V1324.51H701.901V1332.16H714.123ZM714.123 1341.03V1333.38H701.901V1341.03H714.123Z" fill="#D3E3F1"/>
<path d="M760.981 1343.23H792.778V1294.9H760.981V1343.23V1343.23Z" fill="#B6D0D8"/>
<path d="M760.981 1343.23H793.154V1342.08H760.981V1343.23V1343.23ZM685.811 1343.23H717.987V1342.08H685.811V1343.23Z" fill="#2B373C"/>
<path d="M760.981 1343.23H763.946V1294.91H760.981V1343.23Z" fill="#E4E4E4"/>
<path d="M760.454 1280.9H787.292V1279.5H760.454V1280.9Z" fill="#2B373C"/>
<path d="M717.72 1294.34H760.981V1284.31H717.72V1294.34V1294.34ZM717.72 1343.23H760.981V1295.75H717.72V1343.23V1343.23Z" fill="#B6D0D8"/>
<path d="M790.52 1305.53V1297.88H778.298V1305.53H790.52ZM790.52 1314.41V1306.76H778.298V1314.41H790.52ZM790.52 1323.28V1315.63H778.298V1323.28H790.52ZM790.52 1332.16V1324.51H778.298V1332.16H790.52ZM790.52 1341.03V1333.38H778.298V1341.03H790.52ZM776.966 1305.53V1297.88H764.744V1305.53H776.966ZM785.2 1290.54V1282.89H779.457V1290.54H785.2ZM778.02 1290.54V1282.89H772.277V1290.54H778.02ZM770.983 1290.54V1282.89H765.24V1290.54H770.983ZM776.966 1314.41V1306.76H764.744V1314.41H776.966ZM776.966 1323.28V1315.63H764.744V1323.28H776.966ZM776.966 1332.16V1324.51H764.744V1332.16H776.966ZM776.966 1341.03V1333.38H764.744V1341.03H776.966Z" fill="#D3E3F1"/>
<path d="M732.844 1343.34H745.256V1331.32H732.844V1343.34Z" fill="#FF7768"/>
<path d="M779.299 1290.67H785.358V1290.27H779.299V1290.67ZM772.119 1290.67H778.178V1290.27H772.119V1290.67ZM765.082 1290.67H771.141V1290.27H765.082V1290.67V1290.67ZM707.739 1290.67H713.798V1290.27H707.739V1290.67ZM700.559 1290.67H706.618V1290.27H700.559V1290.67ZM693.524 1290.67H699.583V1290.27H693.524V1290.67Z" fill="#D3E3F1"/>
<path opacity="0.5" d="M784.665 1340.64H791.687L783.559 1297.88H776.537L784.665 1340.64Z" fill="white"/>
<path d="M790.52 1341.38H792.778V1297.88H790.52V1341.38Z" fill="#B6D0D8"/>
<path opacity="0.5" d="M775.634 1340.64H779.547L771.419 1297.88H767.513L775.634 1340.64V1340.64Z" fill="white"/>
<path d="M764.593 1305.53H777.116V1305.13H764.593V1305.53ZM778.148 1314.41H790.671V1314.01H778.148V1314.41ZM764.593 1314.41H777.116V1314.01H764.593V1314.41ZM778.148 1323.28H790.671V1322.88H778.148V1323.28ZM764.593 1323.28H777.116V1322.88H764.593V1323.28ZM778.148 1332.16H790.671V1331.76H778.148V1332.16ZM764.593 1332.16H777.116V1331.76H764.593V1332.16ZM778.148 1341.03H790.671V1340.64H778.148V1341.03ZM764.593 1341.03H777.116V1340.64H764.593V1341.03ZM778.148 1305.53H790.671V1305.13H778.148V1305.53Z" fill="#D3E3F1"/>
<path d="M776.966 1341.38H778.298V1297.83H776.966V1341.38V1341.38Z" fill="#B6D0D8"/>
<path d="M764.593 1333.38H790.972V1332.16H764.593V1333.38V1333.38ZM764.593 1324.51H790.972V1323.28H764.593V1324.51V1324.51ZM764.593 1315.63H790.972V1314.41H764.593V1315.63V1315.63ZM764.593 1306.76H790.972V1305.53H764.593V1306.76V1306.76Z" fill="#B6D0D8"/>
<path opacity="0.5" d="M710.34 1340.64H717.361L709.237 1297.88H702.216L710.34 1340.64ZM699.236 1340.64H703.144L695.019 1297.88H691.111L699.236 1340.64Z" fill="white"/>
<path d="M700.566 1341.38H701.896V1297.83H700.566V1341.38Z" fill="#B6D0D8"/>
<path d="M688.192 1333.38H714.571V1332.16H688.192V1333.38ZM688.192 1324.51H714.571V1323.28H688.192V1324.51ZM688.192 1315.63H714.571V1314.41H688.192V1315.63ZM688.192 1306.76H714.571V1305.53H688.192V1306.76Z" fill="#B6D0D8"/>
<path opacity="0.5" d="M782.49 1290.27H784.296L782.189 1282.89H780.383L782.49 1290.27ZM775.017 1290.27H776.281L774.174 1282.89H772.909L775.017 1290.27ZM769.636 1290.27H770.644L768.537 1282.89H767.528L769.636 1290.27ZM711.069 1290.27H712.878L710.771 1282.89H708.961L711.069 1290.27ZM703.597 1290.27H704.864L702.756 1282.89H701.49L703.597 1290.27V1290.27ZM698.22 1290.27H699.228L697.121 1282.89H696.113L698.22 1290.27Z" fill="white"/>
<path d="M688.218 1305.53H700.743V1305.13H688.218V1305.53ZM701.771 1314.41H714.297V1314.01H701.771V1314.41ZM688.218 1314.41H700.743V1314.01H688.218V1314.41ZM701.771 1323.28H714.297V1322.88H701.771V1323.28ZM688.218 1323.28H700.743V1322.88H688.218V1323.28ZM701.771 1332.16H714.297V1331.76H701.771V1332.16ZM688.218 1332.16H700.743V1331.76H688.218V1332.16ZM701.771 1341.03H714.297V1340.64H701.771V1341.03ZM688.218 1341.03H700.743V1340.64H688.218V1341.03ZM701.771 1305.53H714.297V1305.13H701.771V1305.53ZM745.685 1307.94V1300.29H733.462V1307.94H745.685ZM759.235 1307.94V1300.29H747.015V1307.94H759.235Z" fill="#D3E3F1"/>
<path d="M733.334 1307.94H745.859V1307.55H733.334V1307.94ZM732.192 1307.94V1300.29H719.969V1307.94H732.192Z" fill="#D3E3F1"/>
<path d="M719.84 1307.94H732.365V1307.55H719.84V1307.94ZM746.887 1307.94H759.408V1307.55H746.887V1307.94ZM745.686 1318.29V1310.64H733.463V1318.29H745.686ZM759.242 1318.29V1310.64H747.015V1318.29H759.242Z" fill="#D3E3F1"/>
<path d="M733.334 1318.29H745.859V1317.89H733.334V1318.29ZM732.192 1318.29V1310.64H719.969V1318.29H732.192Z" fill="#D3E3F1"/>
<path d="M719.84 1318.29H732.365V1317.89H719.84V1318.29ZM746.887 1318.29H759.408V1317.89H746.887V1318.29Z" fill="#D3E3F1"/>
<path opacity="0.5" d="M717.72 1287.65H760.981V1284.31H717.72V1287.65Z" fill="#F7EDE7"/>
<path d="M716.764 1285.07H761.936V1283.67H716.764V1285.07Z" fill="#2B373C"/>
<path d="M739.001 1343.34H739.1V1331.32H739.001V1343.34Z" fill="#FF5B51"/>
<path d="M720.314 1343.23H722.557V1331.32H720.314V1343.23ZM756.172 1343.23H758.414V1331.32H756.172V1343.23Z" fill="#FF7768"/>
<path d="M744.345 1340.64V1331.96H739.902V1340.64H744.345ZM738.199 1340.64V1331.96H733.756V1340.64H738.199Z" fill="#D3E3F1"/>
<path opacity="0.2" d="M742.008 1340.64H743.948L742.416 1331.96H740.477L742.008 1340.64ZM735.774 1340.64H737.712L736.182 1331.96H734.243L735.774 1340.64Z" fill="#E9F1F8"/>
<path d="M717.711 1295.6H714.746V1342.97H717.711V1295.6V1295.6Z" fill="#E4E4E4"/>
<path opacity="0.3" d="M755.426 1289.86H758.241V1288.79H755.426V1289.86ZM757.647 1291.5H760.454V1290.43H757.647V1291.5ZM755.825 1293.11H758.7V1292.2H755.825V1293.11ZM754.042 1291.42H756.834V1290.52H754.042V1291.42ZM736.925 1293.1H739.197V1292.29H736.925V1293.1ZM735.422 1291.78H737.694V1290.97H735.422V1291.78V1291.78ZM748.595 1334.98H750.866V1334.17H748.595V1334.98ZM747.093 1333.66H749.363V1332.85H747.093V1333.66ZM724.394 1334.58H726.665V1333.77H724.394V1334.58ZM723.267 1336.06H725.538V1335.25H723.267V1336.06ZM726.943 1289.17H724.134V1290.24H726.943V1289.17ZM718.638 1292.03H717.724V1293.1H718.638V1292.03ZM719.655 1290.31H717.701V1291.38H719.655V1290.31ZM725.55 1290.58H722.741V1291.65H725.55V1290.58ZM746.364 1290.93H743.556V1292H746.364V1290.93ZM748.045 1289.32H745.236V1290.4H748.045V1289.32ZM726.544 1292.2H723.67V1293.11H726.544V1292.2ZM731.275 1337.56H728.467V1338.64H731.275V1337.56ZM729.882 1338.97H727.073V1340.05H729.882V1338.97ZM730.876 1340.6H728.002V1341.51H730.876V1340.6ZM749.75 1338.86H752.557V1337.78H749.75V1338.86ZM751.142 1340.26H753.951V1339.19H751.142V1340.26ZM750.146 1341.73H753.018V1340.82H750.146V1341.73ZM728.862 1290.76H726.07V1291.67H728.862V1290.76Z" fill="#2A4667"/>
<path d="M720.278 1327.18H758.422V1318.99H720.278V1327.18Z" fill="#FF7768"/>
<path opacity="0.5" d="M755.916 1307.58H758.219L754.395 1300.29H752.095L755.916 1307.58V1307.58ZM752.444 1307.58H754.742L750.919 1300.29H748.62L752.444 1307.58V1307.58ZM742.386 1307.58H744.685L740.862 1300.29H738.564L742.386 1307.58V1307.58ZM738.913 1307.58H741.211L737.389 1300.29H735.09L738.913 1307.58V1307.58ZM728.856 1307.58H731.155L727.331 1300.29H725.033L728.856 1307.58ZM725.381 1307.58H727.679L723.855 1300.29H721.557L725.381 1307.58ZM755.916 1317.93H758.219L754.395 1310.64H752.095L755.916 1317.93V1317.93ZM752.444 1317.93H754.742L750.919 1310.64H748.62L752.444 1317.93V1317.93ZM742.386 1317.93H744.685L740.862 1310.64H738.564L742.386 1317.93V1317.93ZM738.913 1317.93H741.211L737.389 1310.64H735.09L738.913 1317.93V1317.93ZM728.856 1317.93H731.155L727.331 1310.64H725.033L728.856 1317.93ZM725.381 1317.93H727.679L723.855 1310.64H721.557L725.381 1317.93Z" fill="white"/>
<path d="M719.427 1331.32H759.272V1327.87H719.427V1331.32ZM730.042 1294.15H684.87V1295.76H730.042V1294.15Z" fill="#2B373C"/>
<path d="M724.132 1295.76H793.997V1294.15H724.132V1295.76Z" fill="#2B373C"/>
</g>
<g style="mix-blend-mode:luminosity" opacity="0.5">
<path d="M554.294 1313.71H485.592V1343.4H554.294V1313.71V1313.71Z" fill="#B6D0D8"/>
<path d="M515.409 1322.77H512.302V1317.79C512.302 1317.38 512.466 1316.99 512.757 1316.7C513.048 1316.41 513.444 1316.24 513.856 1316.24C514.268 1316.24 514.663 1316.41 514.954 1316.7C515.245 1316.99 515.409 1317.38 515.409 1317.79V1322.77Z" fill="#97B2E4"/>
<path style="mix-blend-mode:screen" d="M513.856 1316.24C512.998 1316.24 512.302 1316.94 512.302 1317.79V1320.71L515.409 1317.79C515.409 1316.94 514.714 1316.24 513.856 1316.24V1316.24Z" fill="url(#paint0_linear_1_4805)"/>
<path d="M513.856 1315.99C513.376 1315.99 512.916 1316.18 512.576 1316.52C512.237 1316.85 512.046 1317.31 512.046 1317.79V1323.02H515.661V1317.79C515.66 1317.31 515.47 1316.85 515.13 1316.52C514.791 1316.18 514.331 1315.99 513.851 1315.99H513.856ZM515.409 1317.79V1318.37H513.996V1316.25C514.382 1316.28 514.741 1316.46 515.003 1316.75C515.265 1317.03 515.409 1317.4 515.409 1317.79V1317.79ZM513.716 1316.25V1318.37H512.302V1317.79C512.302 1316.98 512.922 1316.32 513.716 1316.25ZM512.302 1318.64H513.716V1322.77H512.302V1318.64ZM513.996 1322.77V1318.64H515.409V1322.77H513.996Z" fill="white"/>
<path d="M515.409 1335.91H512.302V1330.93C512.302 1330.52 512.466 1330.13 512.757 1329.84C513.048 1329.55 513.444 1329.38 513.856 1329.38C514.268 1329.38 514.663 1329.55 514.954 1329.84C515.245 1330.13 515.409 1330.52 515.409 1330.93V1335.91Z" fill="#97B2E4"/>
<path style="mix-blend-mode:screen" d="M513.856 1329.38C512.998 1329.38 512.302 1330.07 512.302 1330.93V1333.84L515.409 1330.93C515.409 1330.07 514.714 1329.38 513.856 1329.38V1329.38Z" fill="url(#paint1_linear_1_4805)"/>
<path d="M513.856 1329.13C513.376 1329.13 512.915 1329.32 512.576 1329.66C512.237 1330 512.046 1330.45 512.046 1330.93V1336.16H515.661V1330.93C515.661 1330.45 515.47 1330 515.13 1329.66C514.791 1329.32 514.331 1329.13 513.851 1329.13H513.856ZM515.409 1330.93V1331.51H513.996V1329.39C514.382 1329.42 514.742 1329.6 515.003 1329.89C515.265 1330.17 515.41 1330.55 515.409 1330.93V1330.93ZM513.716 1329.39V1331.51H512.302V1330.93C512.302 1330.12 512.922 1329.46 513.716 1329.39ZM512.302 1331.78H513.716V1335.91H512.302V1331.78ZM513.996 1335.91V1331.78H515.409V1335.91H513.996Z" fill="white"/>
<path d="M528.205 1322.77H525.098V1317.79C525.098 1317.38 525.262 1316.99 525.553 1316.7C525.844 1316.41 526.239 1316.24 526.651 1316.24C527.063 1316.24 527.458 1316.41 527.75 1316.7C528.041 1316.99 528.205 1317.38 528.205 1317.79V1322.77Z" fill="#97B2E4"/>
<path style="mix-blend-mode:screen" d="M526.646 1316.24C525.788 1316.24 525.093 1316.94 525.093 1317.79V1320.71L528.199 1317.79C528.199 1316.94 527.505 1316.24 526.646 1316.24V1316.24Z" fill="url(#paint2_linear_1_4805)"/>
<path d="M526.646 1315.99C526.166 1315.99 525.706 1316.18 525.367 1316.52C525.028 1316.85 524.837 1317.31 524.836 1317.79V1323.02H528.452V1317.79C528.451 1317.31 528.26 1316.85 527.921 1316.52C527.581 1316.18 527.121 1315.99 526.642 1315.99H526.646ZM528.199 1317.79V1318.37H526.786V1316.25C527.173 1316.28 527.532 1316.46 527.793 1316.75C528.055 1317.03 528.2 1317.4 528.199 1317.79ZM526.506 1316.25V1318.37H525.093V1317.79C525.093 1316.98 525.714 1316.32 526.506 1316.25ZM525.093 1318.64H526.506V1322.77H525.093V1318.64ZM526.786 1322.77V1318.64H528.199V1322.77H526.786Z" fill="white"/>
<path d="M521.805 1322.77H518.699V1317.79C518.699 1317.38 518.862 1316.99 519.154 1316.7C519.445 1316.41 519.84 1316.24 520.252 1316.24C520.664 1316.24 521.059 1316.41 521.35 1316.7C521.642 1316.99 521.805 1317.38 521.805 1317.79V1322.77Z" fill="#97B2E4"/>
<g style="mix-blend-mode:screen">
<path d="M520.252 1316.24C519.394 1316.24 518.699 1316.94 518.699 1317.79V1320.71L521.805 1317.79C521.805 1316.94 521.111 1316.24 520.252 1316.24V1316.24Z" fill="black"/>
</g>
<path d="M520.252 1315.99C519.772 1315.99 519.312 1316.18 518.973 1316.52C518.633 1316.85 518.443 1317.31 518.442 1317.79V1323.02H522.057V1317.79C522.057 1317.31 521.866 1316.85 521.527 1316.52C521.187 1316.18 520.727 1315.99 520.247 1315.99H520.252ZM521.805 1317.79V1318.37H520.392V1316.25C520.778 1316.28 521.138 1316.46 521.399 1316.75C521.661 1317.03 521.806 1317.4 521.805 1317.79V1317.79ZM520.112 1316.25V1318.37H518.699V1317.79C518.699 1316.98 519.319 1316.32 520.112 1316.25ZM518.699 1318.64H520.112V1322.77H518.699V1318.64ZM520.392 1322.77V1318.64H521.805V1322.77H520.392Z" fill="white"/>
<path d="M528.205 1335.91H525.098V1330.93C525.098 1330.52 525.262 1330.13 525.553 1329.84C525.844 1329.55 526.239 1329.38 526.651 1329.38C527.063 1329.38 527.458 1329.55 527.75 1329.84C528.041 1330.13 528.205 1330.52 528.205 1330.93V1335.91Z" fill="#97B2E4"/>
<path style="mix-blend-mode:screen" d="M526.646 1329.38C525.788 1329.38 525.093 1330.07 525.093 1330.93V1333.84L528.199 1330.93C528.199 1330.07 527.505 1329.38 526.646 1329.38V1329.38Z" fill="url(#paint3_linear_1_4805)"/>
<path d="M526.646 1329.13C526.166 1329.13 525.706 1329.32 525.367 1329.66C525.027 1330 524.836 1330.45 524.836 1330.93V1336.16H528.452V1330.93C528.451 1330.45 528.26 1330 527.921 1329.66C527.582 1329.32 527.121 1329.13 526.642 1329.13H526.646ZM528.199 1330.93V1331.51H526.786V1329.39C527.173 1329.42 527.532 1329.6 527.794 1329.89C528.055 1330.17 528.2 1330.55 528.199 1330.93V1330.93ZM526.506 1329.39V1331.51H525.093V1330.93C525.093 1330.12 525.714 1329.46 526.506 1329.39ZM525.093 1331.78H526.506V1335.91H525.093V1331.78ZM526.786 1335.91V1331.78H528.199V1335.91H526.786Z" fill="white"/>
<path d="M539.06 1322.77H535.954V1317.79C535.954 1317.38 536.117 1316.99 536.408 1316.7C536.7 1316.41 537.095 1316.24 537.507 1316.24C537.919 1316.24 538.314 1316.41 538.605 1316.7C538.897 1316.99 539.06 1317.38 539.06 1317.79V1322.77Z" fill="#97B2E4"/>
<path style="mix-blend-mode:screen" d="M537.502 1316.24C536.644 1316.24 535.948 1316.94 535.948 1317.79V1320.71L539.055 1317.79C539.055 1316.94 538.36 1316.24 537.502 1316.24V1316.24Z" fill="url(#paint4_linear_1_4805)"/>
<path d="M537.502 1315.99C537.022 1315.99 536.562 1316.18 536.222 1316.52C535.883 1316.85 535.692 1317.31 535.692 1317.79V1323.02H539.307V1317.79C539.307 1317.31 539.116 1316.85 538.776 1316.52C538.437 1316.18 537.977 1315.99 537.497 1315.99H537.502ZM539.055 1317.79V1318.37H537.642V1316.25C538.028 1316.28 538.387 1316.46 538.649 1316.75C538.911 1317.03 539.055 1317.4 539.055 1317.79V1317.79ZM537.362 1316.25V1318.37H535.948V1317.79C535.948 1316.98 536.568 1316.32 537.362 1316.25ZM535.948 1318.64H537.362V1322.77H535.948V1318.64ZM537.642 1322.77V1318.64H539.055V1322.77H537.642Z" fill="white"/>
<path d="M539.06 1335.91H535.954V1330.93C535.954 1330.52 536.117 1330.13 536.408 1329.84C536.7 1329.55 537.095 1329.38 537.507 1329.38C537.919 1329.38 538.314 1329.55 538.605 1329.84C538.897 1330.13 539.06 1330.52 539.06 1330.93V1335.91Z" fill="#97B2E4"/>
<path style="mix-blend-mode:screen" d="M537.502 1329.38C536.644 1329.38 535.948 1330.07 535.948 1330.93V1333.84L539.055 1330.93C539.055 1330.72 539.015 1330.52 538.937 1330.34C538.859 1330.15 538.744 1329.98 538.6 1329.83C538.456 1329.69 538.285 1329.58 538.096 1329.5C537.908 1329.42 537.706 1329.38 537.502 1329.38V1329.38Z" fill="url(#paint5_linear_1_4805)"/>
<path d="M537.502 1329.13C537.022 1329.13 536.562 1329.32 536.222 1329.66C535.883 1330 535.692 1330.45 535.692 1330.93V1336.16H539.307V1330.93C539.307 1330.45 539.116 1330 538.776 1329.66C538.437 1329.32 537.977 1329.13 537.497 1329.13H537.502ZM539.055 1330.93V1331.51H537.642V1329.39C538.028 1329.42 538.387 1329.6 538.649 1329.89C538.911 1330.17 539.055 1330.55 539.055 1330.93V1330.93ZM537.362 1329.39V1331.51H535.948V1330.93C535.948 1330.12 536.568 1329.46 537.362 1329.39ZM535.948 1331.78H537.362V1335.91H535.948V1331.78V1331.78ZM537.642 1335.91V1331.78H539.055V1335.91H537.642Z" fill="white"/>
<path d="M545.774 1322.77H542.667V1317.79C542.667 1317.38 542.831 1316.99 543.122 1316.7C543.414 1316.41 543.809 1316.24 544.221 1316.24C544.633 1316.24 545.028 1316.41 545.319 1316.7C545.611 1316.99 545.774 1317.38 545.774 1317.79V1322.77Z" fill="#97B2E4"/>
<g style="mix-blend-mode:screen">
<path d="M544.221 1316.24C544.017 1316.24 543.815 1316.28 543.626 1316.36C543.438 1316.44 543.267 1316.55 543.122 1316.7C542.978 1316.84 542.864 1317.01 542.786 1317.2C542.708 1317.39 542.667 1317.59 542.667 1317.79V1320.71L545.774 1317.79C545.774 1316.94 545.079 1316.24 544.221 1316.24V1316.24Z" fill="black"/>
</g>
<path d="M544.221 1315.99C543.741 1315.99 543.281 1316.18 542.941 1316.52C542.602 1316.85 542.411 1317.31 542.411 1317.79V1323.02H546.026V1317.79C546.025 1317.31 545.834 1316.85 545.495 1316.52C545.156 1316.18 544.696 1315.99 544.216 1315.99H544.221ZM545.774 1317.79V1318.37H544.361V1316.25C544.747 1316.28 545.107 1316.46 545.368 1316.75C545.63 1317.03 545.775 1317.4 545.774 1317.79V1317.79ZM544.081 1316.25V1318.37H542.667V1317.79C542.667 1316.98 543.288 1316.32 544.081 1316.25ZM542.667 1318.64H544.081V1322.77H542.667V1318.64ZM544.361 1322.77V1318.64H545.774V1322.77H544.361Z" fill="white"/>
<path d="M545.774 1335.91H542.667V1330.93C542.667 1330.52 542.831 1330.13 543.122 1329.84C543.414 1329.55 543.809 1329.38 544.221 1329.38C544.633 1329.38 545.028 1329.55 545.319 1329.84C545.611 1330.13 545.774 1330.52 545.774 1330.93V1335.91Z" fill="#97B2E4"/>
<path style="mix-blend-mode:screen" d="M544.221 1329.38C544.017 1329.38 543.815 1329.42 543.626 1329.5C543.438 1329.57 543.267 1329.69 543.122 1329.83C542.978 1329.98 542.864 1330.15 542.786 1330.34C542.708 1330.52 542.667 1330.72 542.667 1330.93V1333.84L545.774 1330.93C545.774 1330.07 545.079 1329.38 544.221 1329.38V1329.38Z" fill="url(#paint6_linear_1_4805)"/>
<path d="M544.221 1329.13C543.741 1329.13 543.281 1329.32 542.941 1329.66C542.602 1330 542.411 1330.45 542.411 1330.93V1336.16H546.026V1330.93C546.025 1330.45 545.835 1330 545.496 1329.66C545.156 1329.32 544.696 1329.13 544.216 1329.13H544.221ZM545.774 1330.93V1331.51H544.361V1329.39C544.747 1329.42 545.107 1329.6 545.368 1329.89C545.63 1330.17 545.775 1330.55 545.774 1330.93ZM544.081 1329.39V1331.51H542.667V1330.93C542.667 1330.12 543.288 1329.46 544.081 1329.39ZM542.667 1331.78H544.081V1335.91H542.667V1331.78ZM544.361 1335.91V1331.78H545.774V1335.91H544.361Z" fill="white"/>
<path d="M552.643 1322.77H549.536V1317.79C549.536 1317.38 549.7 1316.99 549.991 1316.7C550.283 1316.41 550.678 1316.24 551.09 1316.24C551.502 1316.24 551.897 1316.41 552.188 1316.7C552.48 1316.99 552.643 1317.38 552.643 1317.79V1322.77Z" fill="#97B2E4"/>
<path style="mix-blend-mode:screen" d="M551.09 1316.24C550.886 1316.24 550.684 1316.28 550.495 1316.36C550.307 1316.44 550.136 1316.55 549.991 1316.7C549.847 1316.84 549.733 1317.01 549.655 1317.2C549.577 1317.39 549.536 1317.59 549.536 1317.79V1320.71L552.643 1317.79C552.643 1316.94 551.948 1316.24 551.09 1316.24V1316.24Z" fill="url(#paint7_linear_1_4805)"/>
<path d="M551.09 1315.99C550.61 1315.99 550.15 1316.18 549.81 1316.52C549.471 1316.85 549.28 1317.31 549.28 1317.79V1323.02H552.895V1317.79C552.894 1317.31 552.704 1316.85 552.364 1316.52C552.025 1316.18 551.565 1315.99 551.085 1315.99H551.09ZM552.643 1317.79V1318.37H551.23V1316.25C551.616 1316.28 551.976 1316.46 552.237 1316.75C552.499 1317.03 552.644 1317.4 552.643 1317.79ZM550.95 1316.25V1318.37H549.536V1317.79C549.536 1316.98 550.157 1316.32 550.95 1316.25ZM549.536 1318.64H550.95V1322.77H549.536V1318.64ZM551.23 1322.77V1318.64H552.643V1322.77H551.23Z" fill="white"/>
<path d="M552.643 1335.91H549.536V1330.93C549.536 1330.52 549.7 1330.13 549.991 1329.84C550.283 1329.55 550.678 1329.38 551.09 1329.38C551.502 1329.38 551.897 1329.55 552.188 1329.84C552.48 1330.13 552.643 1330.52 552.643 1330.93V1335.91Z" fill="#97B2E4"/>
<path style="mix-blend-mode:screen" d="M551.09 1329.38C550.886 1329.38 550.684 1329.42 550.495 1329.5C550.307 1329.58 550.136 1329.69 549.991 1329.83C549.847 1329.98 549.733 1330.15 549.655 1330.34C549.577 1330.52 549.536 1330.72 549.536 1330.93V1333.84L552.643 1330.93C552.643 1330.72 552.603 1330.52 552.525 1330.34C552.447 1330.15 552.333 1329.98 552.188 1329.83C552.044 1329.69 551.873 1329.58 551.684 1329.5C551.496 1329.42 551.294 1329.38 551.09 1329.38V1329.38Z" fill="url(#paint8_linear_1_4805)"/>
<path d="M551.09 1329.13C550.61 1329.13 550.15 1329.32 549.81 1329.66C549.471 1330 549.28 1330.45 549.28 1330.93V1336.16H552.895V1330.93C552.894 1330.45 552.704 1330 552.364 1329.66C552.025 1329.32 551.565 1329.13 551.085 1329.13H551.09ZM552.643 1330.93V1331.51H551.23V1329.39C551.616 1329.42 551.976 1329.6 552.237 1329.89C552.499 1330.17 552.644 1330.55 552.643 1330.93ZM550.95 1329.39V1331.51H549.536V1330.93C549.536 1330.12 550.157 1329.46 550.95 1329.39ZM549.536 1331.78H550.95V1335.91H549.536V1331.78V1331.78ZM551.23 1335.91V1331.78H552.643V1335.91H551.23Z" fill="white"/>
<path d="M490.944 1322.77H487.837V1317.79C487.837 1317.38 488.001 1316.99 488.292 1316.7C488.584 1316.41 488.979 1316.24 489.391 1316.24C489.803 1316.24 490.198 1316.41 490.489 1316.7C490.78 1316.99 490.944 1317.38 490.944 1317.79V1322.77Z" fill="#97B2E4"/>
<path style="mix-blend-mode:screen" d="M489.385 1316.24C488.527 1316.24 487.832 1316.94 487.832 1317.79V1320.71L490.939 1317.79C490.939 1316.94 490.244 1316.24 489.385 1316.24V1316.24Z" fill="url(#paint9_linear_1_4805)"/>
<path d="M489.385 1315.99C488.906 1315.99 488.446 1316.18 488.106 1316.52C487.767 1316.85 487.577 1317.31 487.576 1317.79V1323.02H491.191V1317.79C491.19 1317.31 491 1316.85 490.66 1316.52C490.321 1316.18 489.861 1315.99 489.381 1315.99H489.385ZM490.939 1317.79V1318.37H489.525V1316.25C489.912 1316.28 490.271 1316.46 490.533 1316.75C490.794 1317.03 490.939 1317.4 490.939 1317.79V1317.79ZM489.245 1316.25V1318.37H487.832V1317.79C487.832 1316.98 488.453 1316.32 489.245 1316.25ZM487.832 1318.64H489.245V1322.77H487.832V1318.64ZM489.525 1322.77V1318.64H490.939V1322.77H489.525Z" fill="white"/>
<path d="M490.944 1335.91H487.837V1330.93C487.837 1330.52 488.001 1330.13 488.292 1329.84C488.584 1329.55 488.979 1329.38 489.391 1329.38C489.803 1329.38 490.198 1329.55 490.489 1329.84C490.78 1330.13 490.944 1330.52 490.944 1330.93V1335.91Z" fill="#97B2E4"/>
<path style="mix-blend-mode:screen" d="M489.385 1329.38C488.527 1329.38 487.832 1330.07 487.832 1330.93V1333.84L490.939 1330.93C490.939 1330.07 490.244 1329.38 489.385 1329.38V1329.38Z" fill="url(#paint10_linear_1_4805)"/>
<path d="M489.385 1329.13C488.906 1329.13 488.445 1329.32 488.106 1329.66C487.767 1330 487.576 1330.45 487.576 1330.93V1336.16H491.191V1330.93C491.19 1330.45 491 1330 490.66 1329.66C490.321 1329.32 489.861 1329.13 489.381 1329.13H489.385ZM490.939 1330.93V1331.51H489.525V1329.39C489.912 1329.42 490.271 1329.6 490.533 1329.89C490.795 1330.17 490.939 1330.55 490.939 1330.93ZM489.245 1329.39V1331.51H487.832V1330.93C487.832 1330.12 488.453 1329.46 489.245 1329.39ZM487.832 1331.78H489.245V1335.91H487.832V1331.78ZM489.525 1335.91V1331.78H490.939V1335.91H489.525Z" fill="white"/>
<path d="M497.654 1322.77H494.547V1317.79C494.547 1317.38 494.711 1316.99 495.002 1316.7C495.294 1316.41 495.689 1316.24 496.101 1316.24C496.513 1316.24 496.908 1316.41 497.199 1316.7C497.491 1316.99 497.654 1317.38 497.654 1317.79V1322.77Z" fill="#97B2E4"/>
<g style="mix-blend-mode:screen">
<path d="M496.101 1316.24C495.243 1316.24 494.547 1316.94 494.547 1317.79V1320.71L497.654 1317.79C497.654 1316.94 496.96 1316.24 496.101 1316.24V1316.24Z" fill="black"/>
</g>
<path d="M496.101 1315.99C495.621 1315.99 495.161 1316.18 494.822 1316.52C494.482 1316.85 494.291 1317.31 494.291 1317.79V1323.02H497.906V1317.79C497.906 1317.31 497.715 1316.85 497.376 1316.52C497.036 1316.18 496.576 1315.99 496.096 1315.99H496.101ZM497.654 1317.79V1318.37H496.241V1316.25C496.627 1316.28 496.987 1316.46 497.248 1316.75C497.51 1317.03 497.655 1317.4 497.654 1317.79V1317.79ZM495.961 1316.25V1318.37H494.547V1317.79C494.547 1316.98 495.168 1316.32 495.961 1316.25ZM494.547 1318.64H495.961V1322.77H494.547V1318.64ZM496.241 1322.77V1318.64H497.654V1322.77H496.241Z" fill="white"/>
<path d="M497.654 1335.91H494.547V1330.93C494.547 1330.52 494.711 1330.13 495.002 1329.84C495.294 1329.55 495.689 1329.38 496.101 1329.38C496.513 1329.38 496.908 1329.55 497.199 1329.84C497.491 1330.13 497.654 1330.52 497.654 1330.93V1335.91Z" fill="#97B2E4"/>
<path style="mix-blend-mode:screen" d="M496.101 1329.38C495.243 1329.38 494.547 1330.07 494.547 1330.93V1333.84L497.654 1330.93C497.654 1330.07 496.96 1329.38 496.101 1329.38V1329.38Z" fill="url(#paint11_linear_1_4805)"/>
<path d="M496.101 1329.13C495.621 1329.13 495.161 1329.32 494.821 1329.66C494.482 1330 494.291 1330.45 494.291 1330.93V1336.16H497.906V1330.93C497.906 1330.45 497.715 1330 497.376 1329.66C497.036 1329.32 496.576 1329.13 496.096 1329.13H496.101ZM497.654 1330.93V1331.51H496.241V1329.39C496.627 1329.42 496.987 1329.6 497.248 1329.89C497.51 1330.17 497.655 1330.55 497.654 1330.93V1330.93ZM495.961 1329.39V1331.51H494.547V1330.93C494.547 1330.12 495.168 1329.46 495.961 1329.39ZM494.547 1331.78H495.961V1335.91H494.547V1331.78ZM496.241 1335.91V1331.78H497.654V1335.91H496.241Z" fill="white"/>
<path d="M504.526 1322.77H501.419V1317.79C501.419 1317.38 501.583 1316.99 501.874 1316.7C502.166 1316.41 502.561 1316.24 502.973 1316.24C503.385 1316.24 503.78 1316.41 504.071 1316.7C504.363 1316.99 504.526 1317.38 504.526 1317.79V1322.77Z" fill="#97B2E4"/>
<path style="mix-blend-mode:screen" d="M502.973 1316.24C502.115 1316.24 501.419 1316.94 501.419 1317.79V1320.7L504.526 1317.79C504.526 1316.94 503.832 1316.24 502.973 1316.24V1316.24Z" fill="url(#paint12_linear_1_4805)"/>
<path d="M502.973 1315.99C502.493 1315.99 502.033 1316.18 501.694 1316.52C501.354 1316.85 501.164 1317.31 501.163 1317.79V1323.02H504.778V1317.79C504.778 1317.31 504.587 1316.85 504.248 1316.52C503.908 1316.18 503.448 1315.99 502.968 1315.99H502.973ZM504.526 1317.79V1318.37H503.113V1316.25C503.499 1316.28 503.859 1316.46 504.12 1316.75C504.382 1317.03 504.527 1317.4 504.526 1317.79V1317.79ZM502.833 1316.25V1318.37H501.419V1317.79C501.419 1316.98 502.04 1316.32 502.833 1316.25V1316.25ZM501.419 1318.64H502.833V1322.76H501.419V1318.64ZM503.113 1322.76V1318.64H504.526V1322.76H503.113Z" fill="white"/>
<path d="M504.526 1335.91H501.419V1330.93C501.419 1330.52 501.583 1330.13 501.874 1329.84C502.166 1329.55 502.561 1329.38 502.973 1329.38C503.385 1329.38 503.78 1329.55 504.071 1329.84C504.363 1330.13 504.526 1330.52 504.526 1330.93V1335.91Z" fill="#97B2E4"/>
<path style="mix-blend-mode:screen" d="M502.973 1329.38C502.115 1329.38 501.419 1330.07 501.419 1330.93V1333.84L504.526 1330.93C504.526 1330.07 503.832 1329.38 502.973 1329.38V1329.38Z" fill="url(#paint13_linear_1_4805)"/>
<path d="M502.973 1329.13C502.493 1329.13 502.033 1329.32 501.693 1329.66C501.354 1330 501.163 1330.45 501.163 1330.93V1336.16H504.778V1330.93C504.778 1330.45 504.587 1330 504.248 1329.66C503.908 1329.32 503.448 1329.13 502.968 1329.13H502.973ZM504.526 1330.93V1331.51H503.113V1329.39C503.499 1329.42 503.859 1329.6 504.121 1329.89C504.382 1330.17 504.527 1330.55 504.526 1330.93ZM502.833 1329.39V1331.51H501.419V1330.93C501.419 1330.12 502.04 1329.46 502.833 1329.39ZM501.419 1331.78H502.833V1335.91H501.419V1331.78ZM503.113 1335.91V1331.78H504.526V1335.91H503.113Z" fill="white"/>
<path d="M554.294 1313.73H485.592V1314.86H554.294V1313.73Z" fill="#C9C8C8"/>
<path d="M555.399 1339.21H484.677V1343.4H555.399V1339.21Z" fill="#2B373C"/>
<path d="M555.213 1310.22H484.677V1313.73H555.213V1310.22ZM555.213 1324.17H484.677V1326.25H555.213V1324.17V1324.17Z" fill="#C5D9FC"/>
<path d="M529.688 1323.44H510.511V1327.2H529.688V1323.44Z" fill="#FF7768"/>
<path d="M534.874 1314.86H533.614V1339.22H534.874V1314.86ZM511.771 1314.86H510.511V1339.22H511.771V1314.86Z" fill="#C9C8C8"/>
<path d="M529.372 1338.46H533.943C534.293 1338.46 534.578 1338.75 534.578 1339.1V1339.22H528.733V1339.1C528.733 1338.75 529.017 1338.46 529.367 1338.46H529.372V1338.46ZM528.733 1313.71H534.578V1314.03C534.578 1314.09 534.567 1314.14 534.546 1314.19C534.524 1314.25 534.492 1314.29 534.453 1314.33C534.413 1314.37 534.365 1314.4 534.313 1314.43C534.261 1314.45 534.205 1314.46 534.149 1314.46H529.167C529.111 1314.46 529.055 1314.45 529.003 1314.43C528.95 1314.4 528.903 1314.37 528.863 1314.33C528.823 1314.29 528.791 1314.25 528.77 1314.19C528.748 1314.14 528.737 1314.09 528.738 1314.03V1313.71H528.733V1313.71ZM534.049 1314.46H529.258V1314.84H534.049V1314.46ZM533.622 1314.84H529.69V1338.46H533.622V1314.84Z" fill="#FF7768"/>
<path d="M534.049 1314.46H529.258V1314.65H534.049V1314.46ZM533.622 1314.84H529.69V1315.03H533.622V1314.84ZM534.578 1313.71H528.733V1313.9H534.578V1313.71ZM506.261 1338.46H510.832C511.182 1338.46 511.467 1338.75 511.467 1339.1V1339.22H505.622V1339.1C505.622 1338.75 505.907 1338.46 506.256 1338.46H506.261V1338.46ZM505.627 1313.71H511.472V1314.03C511.472 1314.09 511.461 1314.14 511.44 1314.19C511.418 1314.25 511.387 1314.29 511.347 1314.33C511.307 1314.37 511.26 1314.4 511.208 1314.43C511.155 1314.45 511.1 1314.46 511.043 1314.46H506.061C506.004 1314.46 505.948 1314.45 505.896 1314.43C505.844 1314.4 505.797 1314.37 505.757 1314.33C505.717 1314.29 505.686 1314.25 505.664 1314.19C505.643 1314.14 505.632 1314.09 505.632 1314.03V1313.71H505.627V1313.71ZM510.938 1314.46H506.147V1314.84H510.938V1314.46ZM510.515 1314.84H506.582V1338.46H510.515V1314.84Z" fill="#FF7768"/>
<path d="M510.938 1314.46H506.147V1314.65H510.938V1314.46ZM510.515 1314.84H506.582V1315.03H510.515V1314.84ZM511.472 1313.71H505.627V1313.9H511.472V1313.71Z" fill="#FF7768"/>
<path d="M554.294 1298.89H485.592V1310.22H554.294V1298.89Z" fill="#B6D0D8"/>
<path d="M519.961 1295.25L500.7 1310.22H539.227L519.961 1295.25Z" fill="#C5D9FC"/>
<path d="M506.709 1310.67L519.961 1300.37L533.219 1310.67H506.709Z" fill="white"/>
<path d="M528.021 1339.21H512.814V1340.26H528.021V1339.21Z" fill="#E0D6C0"/>
<path d="M528.021 1340.26H512.814V1341.3H528.021V1340.26Z" fill="#FFF7DF"/>
<path d="M528.021 1341.3H512.814V1342.35H528.021V1341.3Z" fill="#E0D6C0"/>
<path d="M528.021 1342.35H512.814V1343.4H528.021V1342.35Z" fill="#FFF7DF"/>
<path d="M516.171 1323.93C516.534 1323.93 516.731 1324.13 516.731 1324.49V1324.75C516.731 1324.78 516.712 1324.81 516.67 1324.81H516.277C516.241 1324.81 516.217 1324.78 516.217 1324.75V1324.58C516.217 1324.48 516.166 1324.43 516.063 1324.43H515.848C515.751 1324.43 515.695 1324.49 515.695 1324.58V1324.91L516.637 1325.22C516.668 1325.22 516.695 1325.24 516.714 1325.27C516.732 1325.3 516.741 1325.33 516.74 1325.36V1326.09C516.74 1326.46 516.544 1326.65 516.18 1326.65H515.742C515.377 1326.65 515.182 1326.45 515.182 1326.09V1325.84C515.182 1325.8 515.205 1325.78 515.243 1325.78H515.634C515.676 1325.78 515.695 1325.8 515.695 1325.84V1326C515.695 1326.11 515.755 1326.15 515.848 1326.15H516.058C516.162 1326.15 516.213 1326.1 516.213 1326V1325.61L515.279 1325.31C515.209 1325.29 515.173 1325.24 515.173 1325.16V1324.49C515.173 1324.13 515.373 1323.94 515.732 1323.94H516.171V1323.93V1323.93ZM518.647 1324.91C518.647 1324.95 518.624 1324.97 518.586 1324.97H518.223C518.181 1324.97 518.162 1324.95 518.162 1324.91V1324.6C518.162 1324.49 518.106 1324.44 518.008 1324.44H517.761C517.653 1324.44 517.607 1324.5 517.607 1324.6V1326.01C517.607 1326.11 517.663 1326.16 517.761 1326.16H518.008C518.111 1326.16 518.162 1326.11 518.162 1326.01V1325.68C518.162 1325.64 518.181 1325.62 518.223 1325.62H518.586C518.624 1325.62 518.647 1325.64 518.647 1325.68V1326.09C518.647 1326.46 518.446 1326.65 518.087 1326.65H517.653C517.285 1326.65 517.089 1326.46 517.089 1326.09V1324.49C517.089 1324.13 517.29 1323.94 517.653 1323.94H518.087C518.451 1323.94 518.647 1324.13 518.647 1324.49V1324.91ZM520.066 1324C520.066 1323.96 520.089 1323.94 520.126 1323.94H520.527C520.574 1323.94 520.593 1323.96 520.593 1324V1326.59C520.593 1326.63 520.574 1326.65 520.527 1326.65H520.126C520.089 1326.65 520.066 1326.63 520.066 1326.59V1325.56H519.567V1326.59C519.567 1326.63 519.544 1326.65 519.506 1326.65H519.105C519.058 1326.65 519.039 1326.63 519.039 1326.59V1324C519.039 1323.96 519.058 1323.94 519.105 1323.94H519.506C519.544 1323.94 519.567 1323.96 519.567 1324V1325.04H520.066V1324V1324ZM520.986 1324.49C520.986 1324.13 521.181 1323.94 521.546 1323.94H521.984C522.352 1323.94 522.544 1324.13 522.544 1324.49V1326.09C522.544 1326.46 522.348 1326.65 521.984 1326.65H521.546C521.177 1326.65 520.986 1326.46 520.986 1326.09V1324.49ZM521.896 1326.15C521.998 1326.15 522.049 1326.1 522.049 1326V1324.6C522.049 1324.49 521.993 1324.44 521.896 1324.44H521.648C521.546 1324.44 521.494 1324.5 521.494 1324.6V1326C521.494 1326.11 521.55 1326.15 521.648 1326.15H521.896ZM522.934 1324.49C522.934 1324.13 523.13 1323.94 523.494 1323.94H523.932C524.296 1323.94 524.492 1324.13 524.492 1324.49V1326.09C524.492 1326.46 524.296 1326.65 523.932 1326.65H523.494C523.125 1326.65 522.934 1326.46 522.934 1326.09V1324.49ZM523.844 1326.15C523.946 1326.15 523.998 1326.1 523.998 1326V1324.6C523.998 1324.49 523.942 1324.44 523.844 1324.44H523.597C523.494 1324.44 523.443 1324.5 523.443 1324.6V1326C523.443 1326.11 523.499 1326.15 523.597 1326.15H523.844ZM525.417 1326.14H526.187C526.229 1326.14 526.248 1326.16 526.248 1326.2V1326.59C526.248 1326.63 526.229 1326.65 526.187 1326.65H524.946C524.909 1326.65 524.886 1326.63 524.886 1326.59V1324C524.886 1323.96 524.909 1323.94 524.946 1323.94H525.352C525.394 1323.94 525.413 1323.96 525.413 1324V1326.14H525.417Z" fill="white"/>
<path d="M513.85 1339.21H512.814V1343.4H513.85V1339.21ZM524.649 1298.89H525.885L545.598 1310.22H539.227L524.649 1298.89ZM506.709 1310.67H507.157L520.391 1301.44L532.641 1310.67H533.219L519.961 1300.37L506.709 1310.67Z" fill="#C9C8C8"/>
<path d="M520.27 1328.74C518.376 1328.74 516.837 1330.14 516.837 1331.87V1339.22H523.703V1331.87C523.703 1330.14 522.164 1328.74 520.27 1328.74Z" fill="#E0D6C0"/>
<path d="M520.013 1329.02H520.149V1339.21H517.145V1331.88C517.145 1331.12 517.448 1330.39 517.985 1329.85C518.523 1329.32 519.253 1329.02 520.013 1329.02V1329.02ZM523.391 1339.22H520.387V1329.02H520.523C521.284 1329.02 522.013 1329.32 522.551 1329.86C523.089 1330.4 523.391 1331.12 523.391 1331.88V1339.22V1339.22Z" fill="#312A20"/>
<path d="M517.248 1306.62C517.248 1305.87 517.547 1305.15 518.08 1304.61C518.613 1304.08 519.335 1303.79 520.089 1303.78C520.842 1303.79 521.564 1304.08 522.097 1304.61C522.63 1305.15 522.929 1305.87 522.93 1306.62C522.929 1307.37 522.63 1308.09 522.097 1308.62C521.564 1309.15 520.842 1309.45 520.089 1309.45C519.335 1309.45 518.613 1309.15 518.08 1308.62C517.548 1308.09 517.248 1307.37 517.248 1306.62V1306.62Z" fill="#C5D9FC"/>
<path d="M521.556 1308.21L519.998 1306.65V1304.49H520.171V1306.58L521.682 1308.08L521.556 1308.21Z" fill="#312A20"/>
<path d="M506.578 1326.25H485.592V1327.04H506.578V1326.25ZM554.292 1326.25H534.873V1327.04H554.292V1326.25ZM529.693 1327.19H511.775V1328.05H529.693V1327.19Z" fill="#C9C8C8"/>
</g>
<g style="mix-blend-mode:luminosity" opacity="0.5">
<path d="M968.767 1260.38H928.081V1263.66H968.767V1260.38Z" fill="#366ED7"/>
<path d="M963.093 1257.11H933.756V1260.38H963.093V1257.11Z" fill="#A5E6FA"/>
<path d="M953.271 1253.83H943.577C943.145 1253.83 942.718 1253.91 942.318 1254.08C941.919 1254.24 941.557 1254.48 941.251 1254.79C940.946 1255.09 940.703 1255.45 940.538 1255.85C940.373 1256.25 940.288 1256.68 940.289 1257.11H956.56C956.56 1256.24 956.213 1255.4 955.597 1254.79C954.98 1254.18 954.143 1253.83 953.271 1253.83V1253.83Z" fill="#5FD6FA"/>
<path d="M972.763 1263.39H953.422V1344.41H972.763V1263.39ZM947.83 1263.39H943.149V1344.41H947.83V1263.39Z" fill="#A5E6FA"/>
<path d="M953.422 1262.97H946.799V1344.41H953.422V1262.97Z" fill="#5FD6FA"/>
<path d="M949.546 1250.57H946.114V1253.88H949.546V1250.57ZM948.191 1239.85H947.145V1250.57H948.191V1239.85Z" fill="#545244"/>
<path d="M947.83 1230.32H947.506V1241.04H947.83V1230.32Z" fill="#545244"/>
<path d="M948.326 1239.51H947.002V1239.85H948.326V1239.51V1239.51Z" fill="#545244"/>
<path d="M947.34 1230.32C947.34 1230.14 947.484 1230 947.664 1230C947.845 1230 947.988 1230.14 947.988 1230.32C947.988 1230.5 947.845 1230.64 947.664 1230.64C947.622 1230.64 947.579 1230.64 947.54 1230.62C947.501 1230.6 947.465 1230.58 947.435 1230.55C947.405 1230.52 947.381 1230.48 947.365 1230.45C947.349 1230.41 947.34 1230.36 947.34 1230.32V1230.32Z" fill="#D24A43"/>
<path d="M970.739 1266.02H955.356V1267.81H970.739V1266.02Z" fill="#366ED7"/>
<path d="M970.739 1265.59H955.356V1266.03H970.739V1265.59Z" fill="#6A777D"/>
<path d="M952.39 1266.02H947.83V1267.81H952.39V1266.02Z" fill="#366ED7"/>
<path d="M952.39 1265.59H947.83V1266.03H952.39V1265.59Z" fill="#41494D"/>
<path d="M952.39 1270.11H947.83V1271.9H952.39V1270.11Z" fill="#366ED7"/>
<path d="M952.39 1269.68H947.83V1270.11H952.39V1269.67V1269.68Z" fill="#41494D"/>
<path d="M952.39 1274.2H947.83V1275.99H952.39V1274.2Z" fill="#366ED7"/>
<path d="M952.39 1273.76H947.83V1274.2H952.39V1273.76Z" fill="#41494D"/>
<path d="M952.39 1278.28H947.83V1280.08H952.39V1278.28Z" fill="#366ED7"/>
<path d="M952.39 1277.85H947.83V1278.28H952.39V1277.85Z" fill="#41494D"/>
<path d="M952.39 1282.37H947.83V1284.16H952.39V1282.37Z" fill="#366ED7"/>
<path d="M952.39 1281.94H947.83V1282.37H952.39V1281.94V1281.94Z" fill="#41494D"/>
<path d="M952.39 1286.46H947.83V1288.25H952.39V1286.46Z" fill="#366ED7"/>
<path d="M952.39 1286.02H947.83V1286.46H952.39V1286.02V1286.02Z" fill="#41494D"/>
<path d="M952.39 1290.55H947.83V1292.34H952.39V1290.55Z" fill="#366ED7"/>
<path d="M952.39 1290.11H947.83V1290.55H952.39V1290.11V1290.11Z" fill="#41494D"/>
<path d="M952.39 1294.63H947.83V1296.43H952.39V1294.63Z" fill="#366ED7"/>
<path d="M952.39 1294.2H947.83V1294.63H952.39V1294.2V1294.2Z" fill="#41494D"/>
<path d="M952.39 1298.72H947.83V1300.51H952.39V1298.72Z" fill="#366ED7"/>
<path d="M952.39 1298.29H947.83V1298.72H952.39V1298.29Z" fill="#41494D"/>
<path d="M952.39 1302.81H947.83V1304.6H952.39V1302.81Z" fill="#366ED7"/>
<path d="M952.39 1302.37H947.83V1302.81H952.39V1302.38V1302.37Z" fill="#41494D"/>
<path d="M952.39 1306.89H947.83V1308.69H952.39V1306.89Z" fill="#366ED7"/>
<path d="M952.39 1306.46H947.83V1306.89H952.39V1306.46Z" fill="#41494D"/>
<path d="M952.39 1310.98H947.83V1312.78H952.39V1310.98Z" fill="#366ED7"/>
<path d="M952.39 1310.55H947.83V1310.98H952.39V1310.55Z" fill="#41494D"/>
<path d="M952.39 1315.07H947.83V1316.86H952.39V1315.07Z" fill="#366ED7"/>
<path d="M952.39 1314.64H947.83V1315.07H952.39V1314.64Z" fill="#41494D"/>
<path d="M952.39 1319.16H947.83V1320.95H952.39V1319.16Z" fill="#366ED7"/>
<path d="M952.39 1318.72H947.83V1319.16H952.39V1318.72Z" fill="#41494D"/>
<path d="M952.39 1323.24H947.83V1325.04H952.39V1323.24Z" fill="#366ED7"/>
<path d="M952.39 1322.81H947.83V1323.24H952.39V1322.81Z" fill="#41494D"/>
<path d="M952.39 1327.33H947.83V1329.13H952.39V1327.33Z" fill="#366ED7"/>
<path d="M952.39 1326.9H947.83V1327.33H952.39V1326.9Z" fill="#41494D"/>
<path d="M952.39 1331.42H947.83V1333.21H952.39V1331.42Z" fill="#366ED7"/>
<path d="M952.39 1330.99H947.83V1331.42H952.39V1330.99Z" fill="#41494D"/>
<path d="M943.149 1262.97H936.533V1344.41H943.149V1262.97Z" fill="#5FD6FA"/>
<path d="M942.117 1266.02H937.564V1267.81H942.117V1266.02Z" fill="#366ED7"/>
<path d="M942.117 1265.59H937.564V1266.03H942.117V1265.59Z" fill="#41494D"/>
<path d="M942.117 1270.11H937.564V1271.9H942.117V1270.11Z" fill="#366ED7"/>
<path d="M942.117 1269.68H937.564V1270.11H942.117V1269.67V1269.68Z" fill="#41494D"/>
<path d="M942.117 1274.19H937.564V1275.99H942.117V1274.19Z" fill="#366ED7"/>
<path d="M942.117 1273.76H937.564V1274.19H942.117V1273.76Z" fill="#41494D"/>
<path d="M942.117 1278.28H937.564V1280.08H942.117V1278.28Z" fill="#366ED7"/>
<path d="M942.117 1277.85H937.564V1278.28H942.117V1277.85V1277.85Z" fill="#41494D"/>
<path d="M942.117 1282.37H937.564V1284.16H942.117V1282.37Z" fill="#366ED7"/>
<path d="M942.117 1281.94H937.564V1282.37H942.117V1281.94V1281.94Z" fill="#41494D"/>
<path d="M942.117 1286.46H937.564V1288.25H942.117V1286.46Z" fill="#366ED7"/>
<path d="M942.117 1286.02H937.564V1286.46H942.117V1286.02V1286.02Z" fill="#41494D"/>
<path d="M942.117 1290.55H937.564V1292.34H942.117V1290.55Z" fill="#366ED7"/>
<path d="M942.117 1290.11H937.564V1290.55H942.117V1290.11V1290.11Z" fill="#41494D"/>
<path d="M942.117 1294.63H937.564V1296.43H942.117V1294.63Z" fill="#366ED7"/>
<path d="M942.117 1294.2H937.564V1294.63H942.117V1294.2V1294.2Z" fill="#41494D"/>
<path d="M942.117 1298.72H937.564V1300.51H942.117V1298.72Z" fill="#366ED7"/>
<path d="M942.117 1298.29H937.564V1298.72H942.117V1298.29Z" fill="#41494D"/>
<path d="M942.117 1302.81H937.564V1304.6H942.117V1302.81Z" fill="#366ED7"/>
<path d="M942.117 1302.37H937.564V1302.81H942.117V1302.38V1302.37Z" fill="#41494D"/>
<path d="M942.117 1306.89H937.564V1308.69H942.117V1306.89Z" fill="#366ED7"/>
<path d="M942.117 1306.46H937.564V1306.89H942.117V1306.46Z" fill="#41494D"/>
<path d="M942.117 1310.98H937.564V1312.78H942.117V1310.98Z" fill="#366ED7"/>
<path d="M942.117 1310.55H937.564V1310.98H942.117V1310.55Z" fill="#41494D"/>
<path d="M942.117 1315.07H937.564V1316.86H942.117V1315.07Z" fill="#366ED7"/>
<path d="M942.117 1314.64H937.564V1315.07H942.117V1314.64Z" fill="#41494D"/>
<path d="M942.117 1319.16H937.564V1320.95H942.117V1319.16Z" fill="#366ED7"/>
<path d="M942.117 1318.72H937.564V1319.16H942.117V1318.72Z" fill="#41494D"/>
<path d="M942.117 1323.24H937.564V1325.04H942.117V1323.24Z" fill="#366ED7"/>
<path d="M942.117 1322.81H937.564V1323.24H942.117V1322.81Z" fill="#41494D"/>
<path d="M942.117 1327.33H937.564V1329.13H942.117V1327.33Z" fill="#366ED7"/>
<path d="M942.117 1326.9H937.564V1327.33H942.117V1326.9Z" fill="#41494D"/>
<path d="M942.117 1331.42H937.564V1333.21H942.117V1331.42Z" fill="#366ED7"/>
<path d="M942.117 1330.99H937.564V1331.42H942.117V1330.99Z" fill="#41494D"/>
<path d="M970.739 1270.11H955.356V1271.9H970.739V1270.11Z" fill="#366ED7"/>
<path d="M970.739 1269.68H955.356V1270.11H970.739V1269.67V1269.68Z" fill="#6A777D"/>
<path d="M970.739 1274.2H955.356V1275.99H970.739V1274.2Z" fill="#366ED7"/>
<path d="M970.739 1273.76H955.356V1274.2H970.739V1273.76V1273.76Z" fill="#6A777D"/>
<path d="M970.739 1278.28H955.356V1280.08H970.739V1278.28Z" fill="#366ED7"/>
<path d="M970.739 1277.85H955.356V1278.28H970.739V1277.85V1277.85Z" fill="#6A777D"/>
<path d="M970.739 1282.37H955.356V1284.16H970.739V1282.37Z" fill="#366ED7"/>
<path d="M970.739 1281.94H955.356V1282.37H970.739V1281.94V1281.94Z" fill="#6A777D"/>
<path d="M970.739 1286.46H955.356V1288.25H970.739V1286.46Z" fill="#366ED7"/>
<path d="M970.739 1286.02H955.356V1286.46H970.739V1286.02V1286.02Z" fill="#6A777D"/>
<path d="M970.739 1290.55H955.356V1292.34H970.739V1290.55Z" fill="#366ED7"/>
<path d="M970.739 1290.11H955.356V1290.55H970.739V1290.11V1290.11Z" fill="#6A777D"/>
<path d="M970.739 1294.63H955.356V1296.43H970.739V1294.63Z" fill="#366ED7"/>
<path d="M970.739 1294.2H955.356V1294.63H970.739V1294.2V1294.2Z" fill="#6A777D"/>
<path d="M970.739 1298.72H955.356V1300.51H970.739V1298.72Z" fill="#366ED7"/>
<path d="M970.739 1298.29H955.356V1298.72H970.739V1298.29Z" fill="#6A777D"/>
<path d="M970.739 1302.81H955.356V1304.6H970.739V1302.81Z" fill="#366ED7"/>
<path d="M970.739 1302.37H955.356V1302.81H970.739V1302.38V1302.37Z" fill="#6A777D"/>
<path d="M970.739 1306.89H955.356V1308.69H970.739V1306.89Z" fill="#366ED7"/>
<path d="M970.739 1306.46H955.356V1306.89H970.739V1306.46Z" fill="#6A777D"/>
<path d="M970.739 1310.98H955.356V1312.78H970.739V1310.98Z" fill="#366ED7"/>
<path d="M970.739 1310.55H955.356V1310.98H970.739V1310.55Z" fill="#6A777D"/>
<path d="M970.739 1315.07H955.356V1316.86H970.739V1315.07Z" fill="#366ED7"/>
<path d="M970.739 1314.64H955.356V1315.07H970.739V1314.64Z" fill="#6A777D"/>
<path d="M970.739 1319.16H955.356V1320.95H970.739V1319.16Z" fill="#366ED7"/>
<path d="M970.739 1318.72H955.356V1319.16H970.739V1318.72Z" fill="#6A777D"/>
<path d="M970.739 1323.24H955.356V1325.04H970.739V1323.24Z" fill="#366ED7"/>
<path d="M970.739 1322.81H955.356V1323.24H970.739V1322.81Z" fill="#6A777D"/>
<path d="M970.739 1327.33H955.356V1329.13H970.739V1327.33Z" fill="#366ED7"/>
<path d="M970.739 1326.9H955.356V1327.33H970.739V1326.9Z" fill="#6A777D"/>
<path d="M970.739 1331.42H955.356V1333.21H970.739V1331.42Z" fill="#366ED7"/>
<path d="M970.739 1330.99H955.356V1331.42H970.739V1330.99Z" fill="#6A777D"/>
<path d="M936.533 1263.39H924.574V1344.41H936.533V1263.39Z" fill="#A5E6FA"/>
<path d="M934.516 1266.02H926.508V1267.81H934.516V1266.02Z" fill="#366ED7"/>
<path d="M934.516 1265.59H926.508V1266.03H934.516V1265.59Z" fill="#6A777D"/>
<path d="M934.516 1270.11H926.508V1271.9H934.516V1270.11Z" fill="#366ED7"/>
<path d="M934.516 1269.68H926.508V1270.11H934.516V1269.67V1269.68Z" fill="#6A777D"/>
<path d="M934.516 1274.19H926.508V1275.99H934.516V1274.19Z" fill="#366ED7"/>
<path d="M934.516 1273.76H926.508V1274.19H934.516V1273.76Z" fill="#6A777D"/>
<path d="M934.516 1278.28H926.508V1280.08H934.516V1278.28Z" fill="#366ED7"/>
<path d="M934.516 1277.85H926.508V1278.28H934.516V1277.85V1277.85Z" fill="#6A777D"/>
<path d="M934.516 1282.37H926.508V1284.16H934.516V1282.37Z" fill="#366ED7"/>
<path d="M934.516 1281.94H926.508V1282.37H934.516V1281.94V1281.94Z" fill="#6A777D"/>
<path d="M934.516 1286.46H926.508V1288.25H934.516V1286.46Z" fill="#366ED7"/>
<path d="M934.516 1286.02H926.508V1286.46H934.516V1286.02V1286.02Z" fill="#6A777D"/>
<path d="M934.516 1290.55H926.508V1292.34H934.516V1290.55Z" fill="#366ED7"/>
<path d="M934.516 1290.11H926.508V1290.55H934.516V1290.11V1290.11Z" fill="#6A777D"/>
<path d="M934.516 1294.63H926.508V1296.43H934.516V1294.63Z" fill="#366ED7"/>
<path d="M934.516 1294.2H926.508V1294.63H934.516V1294.2V1294.2Z" fill="#6A777D"/>
<path d="M934.516 1298.72H926.508V1300.51H934.516V1298.72Z" fill="#366ED7"/>
<path d="M934.516 1298.29H926.508V1298.72H934.516V1298.29Z" fill="#6A777D"/>
<path d="M934.516 1302.81H926.508V1304.6H934.516V1302.81Z" fill="#366ED7"/>
<path d="M934.516 1302.37H926.508V1302.81H934.516V1302.38V1302.37Z" fill="#6A777D"/>
<path d="M934.516 1306.89H926.508V1308.69H934.516V1306.89Z" fill="#366ED7"/>
<path d="M934.516 1306.46H926.508V1306.89H934.516V1306.46Z" fill="#6A777D"/>
<path d="M934.516 1310.98H926.508V1312.78H934.516V1310.98Z" fill="#366ED7"/>
<path d="M934.516 1310.55H926.508V1310.98H934.516V1310.55Z" fill="#6A777D"/>
<path d="M934.516 1315.07H926.508V1316.86H934.516V1315.07Z" fill="#366ED7"/>
<path d="M934.516 1314.64H926.508V1315.07H934.516V1314.64Z" fill="#6A777D"/>
<path d="M934.516 1319.16H926.508V1320.95H934.516V1319.16Z" fill="#366ED7"/>
<path d="M934.516 1318.72H926.508V1319.16H934.516V1318.72Z" fill="#6A777D"/>
<path d="M934.516 1323.24H926.508V1325.04H934.516V1323.24Z" fill="#366ED7"/>
<path d="M934.516 1322.81H926.508V1323.24H934.516V1322.81Z" fill="#6A777D"/>
<path d="M934.516 1327.33H926.508V1329.13H934.516V1327.33Z" fill="#366ED7"/>
<path d="M934.516 1326.9H926.508V1327.33H934.516V1326.9Z" fill="#6A777D"/>
<path d="M934.516 1331.42H926.508V1333.21H934.516V1331.42Z" fill="#366ED7"/>
<path d="M934.516 1330.99H926.508V1331.42H934.516V1330.99Z" fill="#6A777D"/>
<path d="M943.149 1344.41H943.954L945.685 1263.39H943.149V1344.41ZM953.422 1344.41H954.227L955.958 1263.39H953.422V1344.41Z" fill="#EBEEFC"/>
<path d="M973.358 1262.97H924.311V1263.66H973.358V1262.97Z" fill="#366ED7"/>
<path d="M936.533 1263.65H924.574V1264.25H936.533V1263.65Z" fill="#EBEEFC"/>
<path d="M972.763 1335.98H924.574V1344.41H972.763V1335.98Z" fill="#96D1E3"/>
<path d="M972.756 1263.65H955.95V1264.25H972.756V1263.65Z" fill="#EBEEFC"/>
<path d="M973.727 1334.2H923.445V1335.98H973.727V1334.2Z" fill="#366ED7"/>
<path d="M998.999 1334.2H972.395V1335.98H998.999V1334.2ZM926.508 1335.98H924.574V1344.41H926.508V1335.98Z" fill="#366ED7"/>
<path d="M972.763 1335.97H970.822V1344.4H972.763V1335.97Z" fill="#366ED7"/>
<path d="M944.804 1337.02H939.581V1344.41H944.804V1337.02Z" fill="#0F283D"/>
<path d="M944.624 1337.27H939.784V1344.17H944.624V1337.27Z" fill="#366ED7"/>
<path style="mix-blend-mode:screen" d="M944.624 1337.27L939.784 1342.45V1337.27H944.624Z" fill="url(#paint14_linear_1_4805)"/>
<path d="M942.366 1337.18H942.14V1344.29H942.366V1337.18ZM951.299 1337.02H946.076V1344.41H951.299V1337.02Z" fill="#0F283D"/>
<path d="M951.119 1337.27H946.279V1344.16H951.119V1337.27Z" fill="#366ED7"/>
<path style="mix-blend-mode:screen" d="M951.119 1337.27L946.279 1342.45V1337.27H951.119Z" fill="url(#paint15_linear_1_4805)"/>
<path d="M948.861 1337.18H948.635V1344.29H948.861V1337.18ZM957.749 1337.02H952.533V1344.41H957.749V1337.02Z" fill="#0F283D"/>
<path d="M957.576 1337.27H952.737V1344.16H957.576V1337.27Z" fill="#366ED7"/>
<path style="mix-blend-mode:screen" d="M957.576 1337.27L952.737 1342.45V1337.27H957.576Z" fill="url(#paint16_linear_1_4805)"/>
<path d="M955.318 1337.18H955.085V1344.29H955.318V1337.18Z" fill="#0F283D"/>
<path d="M938.302 1337.6H927.464V1340.03H938.302V1337.6Z" fill="#366ED7"/>
<path d="M938.302 1337.02H927.464V1337.6H938.302V1337.02Z" fill="#0F283D"/>
<path d="M969.949 1337.6H959.119V1340.03H969.949V1337.6Z" fill="#366ED7"/>
<path d="M969.949 1337.02H959.119V1337.6H969.949V1337.02Z" fill="#0F283D"/>
<path d="M970.822 1344.04H926.508V1344.41H970.822V1344.04Z" fill="#CAE1ED"/>
<path d="M958.946 1343.68H938.384V1344.05H958.946V1343.68Z" fill="#CAE1ED"/>
<path d="M998.111 1295.19H972.756V1334.2H998.111V1295.19Z" fill="#96D1E3"/>
<path d="M978.596 1301.95V1297.11H973.975V1301.95H978.596Z" fill="#B6D0D8"/>
<path d="M978.28 1301.63V1297.43H974.299V1301.63H978.28V1301.63Z" fill="#0F283D"/>
<path d="M977.919 1301.26V1297.71H974.645V1301.26H977.919V1301.26Z" fill="#366ED7"/>
<path style="mix-blend-mode:screen" d="M977.926 1298.88L974.653 1301.3V1297.72H977.926V1298.88Z" fill="url(#paint17_linear_1_4805)"/>
<path d="M984.617 1301.95V1297.11H979.996V1301.95H984.617Z" fill="#B6D0D8"/>
<path d="M984.308 1301.63V1297.43H980.32V1301.63H984.308V1301.63Z" fill="#0F283D"/>
<path d="M983.947 1301.26V1297.72H980.673V1301.26H983.947Z" fill="#366ED7"/>
<path style="mix-blend-mode:screen" d="M983.947 1298.88L980.673 1301.3V1297.72H983.947V1298.88Z" fill="url(#paint18_linear_1_4805)"/>
<path d="M990.645 1301.95V1297.11H986.024V1301.95H990.645Z" fill="#B6D0D8"/>
<path d="M990.329 1301.63V1297.43H986.348V1301.63H990.329V1301.63Z" fill="#0F283D"/>
<path d="M989.976 1301.26V1297.72H986.702V1301.26H989.976Z" fill="#366ED7"/>
<path style="mix-blend-mode:screen" d="M989.976 1298.88L986.702 1301.3V1297.72H989.976V1298.88Z" fill="url(#paint19_linear_1_4805)"/>
<path d="M996.674 1301.95V1297.11H992.045V1301.95H996.674Z" fill="#B6D0D8"/>
<path d="M996.358 1301.63V1297.43H992.376V1301.63H996.358V1301.63Z" fill="#0F283D"/>
<path d="M995.996 1301.26V1297.72H992.723V1301.26H995.996Z" fill="#366ED7"/>
<path style="mix-blend-mode:screen" d="M995.996 1298.88L992.723 1301.3V1297.72H995.996V1298.88Z" fill="url(#paint20_linear_1_4805)"/>
<path d="M978.596 1308.17V1303.33H973.975V1308.17H978.596Z" fill="#B6D0D8"/>
<path d="M978.28 1307.84V1303.65H974.299V1307.84H978.28Z" fill="#0F283D"/>
<path d="M977.926 1307.47V1303.92H974.653V1307.47H977.926Z" fill="#366ED7"/>
<path style="mix-blend-mode:screen" d="M977.926 1305.09L974.653 1307.52V1303.93H977.926V1305.09Z" fill="url(#paint21_linear_1_4805)"/>
<path d="M984.625 1308.16V1303.32H979.996V1308.16H984.625Z" fill="#B6D0D8"/>
<path d="M984.308 1307.84V1303.65H980.32V1307.84H984.308Z" fill="#0F283D"/>
<path d="M983.947 1307.48V1303.93H980.673V1307.48H983.947Z" fill="#366ED7"/>
<path style="mix-blend-mode:screen" d="M983.947 1305.09L980.673 1307.52V1303.93H983.947V1305.09Z" fill="url(#paint22_linear_1_4805)"/>
<path d="M990.645 1308.17V1303.33H986.024V1308.17H990.645Z" fill="#B6D0D8"/>
<path d="M990.329 1307.84V1303.65H986.348V1307.84H990.329Z" fill="#0F283D"/>
<path d="M989.976 1307.48V1303.93H986.702V1307.48H989.976Z" fill="#366ED7"/>
<path style="mix-blend-mode:screen" d="M989.976 1305.09L986.702 1307.52V1303.93H989.976V1305.09Z" fill="url(#paint23_linear_1_4805)"/>
<path d="M996.674 1308.16V1303.32H992.045V1308.16H996.674Z" fill="#B6D0D8"/>
<path d="M996.358 1307.84V1303.65H992.376V1307.84H996.358Z" fill="#0F283D"/>
<path d="M995.996 1307.48V1303.93H992.723V1307.48H995.996Z" fill="#366ED7"/>
<path style="mix-blend-mode:screen" d="M995.996 1305.09L992.723 1307.52V1303.93H995.996V1305.09Z" fill="url(#paint24_linear_1_4805)"/>
<path d="M978.596 1314.38V1309.54H973.975V1314.38H978.596Z" fill="#B6D0D8"/>
<path d="M978.28 1314.06V1309.86H974.299V1314.06H978.28Z" fill="#0F283D"/>
<path d="M977.926 1313.69V1310.14H974.653V1313.69H977.926Z" fill="#366ED7"/>
<path style="mix-blend-mode:screen" d="M977.926 1311.3L974.653 1313.74V1310.14H977.926V1311.3Z" fill="url(#paint25_linear_1_4805)"/>
<path d="M984.625 1314.38V1309.54H979.996V1314.38H984.625Z" fill="#B6D0D8"/>
<path d="M984.308 1314.06V1309.87H980.32V1314.06H984.308Z" fill="#0F283D"/>
<path d="M983.947 1313.69V1310.14H980.673V1313.69H983.947Z" fill="#366ED7"/>
<path style="mix-blend-mode:screen" d="M983.947 1311.3L980.673 1313.74V1310.14H983.947V1311.3Z" fill="url(#paint26_linear_1_4805)"/>
<path d="M990.645 1314.38V1309.54H986.024V1314.38H990.645Z" fill="#B6D0D8"/>
<path d="M990.329 1314.06V1309.86H986.348V1314.06H990.329Z" fill="#0F283D"/>
<path d="M989.976 1313.69V1310.14H986.702V1313.69H989.976Z" fill="#366ED7"/>
<path style="mix-blend-mode:screen" d="M989.976 1311.3L986.702 1313.74V1310.14H989.976V1311.3Z" fill="url(#paint27_linear_1_4805)"/>
<path d="M996.674 1314.38V1309.54H992.045V1314.38H996.674Z" fill="#B6D0D8"/>
<path d="M996.358 1314.06V1309.86H992.376V1314.06H996.358Z" fill="#0F283D"/>
<path d="M995.996 1313.69V1310.14H992.723V1313.69H995.996Z" fill="#366ED7"/>
<path style="mix-blend-mode:screen" d="M995.996 1311.3L992.723 1313.74V1310.14H995.996V1311.3Z" fill="url(#paint28_linear_1_4805)"/>
<path d="M978.596 1320.59V1315.76H973.975V1320.59H978.596Z" fill="#B6D0D8"/>
<path d="M978.273 1320.27V1316.07H974.291V1320.27H978.273Z" fill="#0F283D"/>
<path d="M977.926 1319.91V1316.36H974.653V1319.91H977.926Z" fill="#366ED7"/>
<path style="mix-blend-mode:screen" d="M977.926 1317.52L974.653 1319.95V1316.36H977.926V1317.52Z" fill="url(#paint29_linear_1_4805)"/>
<path d="M984.625 1320.59V1315.76H979.996V1320.59H984.625Z" fill="#B6D0D8"/>
<path d="M984.301 1320.28V1316.08H980.312V1320.28H984.301Z" fill="#0F283D"/>
<path d="M983.947 1319.91V1316.36H980.673V1319.91H983.947Z" fill="#366ED7"/>
<path style="mix-blend-mode:screen" d="M983.947 1317.52L980.673 1319.95V1316.36H983.947V1317.52Z" fill="url(#paint30_linear_1_4805)"/>
<path d="M990.645 1320.59V1315.76H986.024V1320.59H990.645Z" fill="#B6D0D8"/>
<path d="M990.322 1320.27V1316.07H986.34V1320.27H990.322Z" fill="#0F283D"/>
<path d="M989.976 1319.91V1316.36H986.702V1319.91H989.976Z" fill="#366ED7"/>
<path style="mix-blend-mode:screen" d="M989.976 1317.52L986.702 1319.95V1316.36H989.976V1317.52Z" fill="url(#paint31_linear_1_4805)"/>
<path d="M996.674 1320.59V1315.76H992.045V1320.59H996.674Z" fill="#B6D0D8"/>
<path d="M996.35 1320.28V1316.08H992.369V1320.28H996.35Z" fill="#0F283D"/>
<path d="M995.996 1319.91V1316.36H992.723V1319.91H995.996Z" fill="#366ED7"/>
<path style="mix-blend-mode:screen" d="M995.996 1317.52L992.723 1319.95V1316.36H995.996V1317.52Z" fill="url(#paint32_linear_1_4805)"/>
<path d="M978.596 1326.81V1321.97H973.975V1326.81H978.596Z" fill="#B6D0D8"/>
<path d="M978.28 1326.49V1322.29H974.299V1326.49H978.28Z" fill="#0F283D"/>
<path d="M977.926 1326.12V1322.57H974.653V1326.12H977.926Z" fill="#366ED7"/>
<path style="mix-blend-mode:screen" d="M977.926 1323.74L974.653 1326.17V1322.57H977.926V1323.74V1323.74Z" fill="url(#paint33_linear_1_4805)"/>
<path d="M984.625 1326.81V1321.97H979.996V1326.81H984.625Z" fill="#B6D0D8"/>
<path d="M984.301 1326.49V1322.29H980.312V1326.49H984.301Z" fill="#0F283D"/>
<path d="M983.947 1326.12V1322.57H980.681V1326.12H983.947Z" fill="#366ED7"/>
<path style="mix-blend-mode:screen" d="M983.947 1323.74L980.673 1326.17V1322.57H983.947V1323.74V1323.74Z" fill="url(#paint34_linear_1_4805)"/>
<path d="M990.653 1326.81V1321.97H986.024V1326.81H990.653Z" fill="#B6D0D8"/>
<path d="M990.329 1326.49V1322.29H986.34V1326.49H990.329Z" fill="#0F283D"/>
<path d="M989.976 1326.13V1322.58H986.702V1326.13H989.976Z" fill="#366ED7"/>
<path style="mix-blend-mode:screen" d="M989.976 1323.74L986.702 1326.17V1322.57H989.976V1323.74V1323.74Z" fill="url(#paint35_linear_1_4805)"/>
<path d="M996.674 1326.81V1321.97H992.045V1326.81H996.674Z" fill="#B6D0D8"/>
<path d="M996.35 1326.49V1322.29H992.369V1326.49H996.35Z" fill="#0F283D"/>
<path d="M996.004 1326.12V1322.57H992.73V1326.12H996.004Z" fill="#366ED7"/>
<path style="mix-blend-mode:screen" d="M995.996 1323.74L992.723 1326.17V1322.57H995.996V1323.74V1323.74Z" fill="url(#paint36_linear_1_4805)"/>
<path d="M978.596 1333.02V1328.19H973.975V1333.02H978.596Z" fill="#B6D0D8"/>
<path d="M978.28 1332.7V1328.5H974.299V1332.7H978.28Z" fill="#0F283D"/>
<path d="M977.926 1332.34V1328.79H974.653V1332.34H977.926Z" fill="#366ED7"/>
<path style="mix-blend-mode:screen" d="M977.926 1329.95L974.653 1332.38V1328.79H977.926V1329.95Z" fill="url(#paint37_linear_1_4805)"/>
<path d="M984.617 1333.02V1328.19H979.996V1333.02H984.617Z" fill="#B6D0D8"/>
<path d="M984.301 1332.71V1328.51H980.32V1332.71H984.301Z" fill="#0F283D"/>
<path d="M983.955 1332.34V1328.79H980.681V1332.34H983.955Z" fill="#366ED7"/>
<path style="mix-blend-mode:screen" d="M983.947 1329.95L980.673 1332.38V1328.79H983.947V1329.95Z" fill="url(#paint38_linear_1_4805)"/>
<path d="M990.645 1333.02V1328.19H986.024V1333.02H990.645Z" fill="#B6D0D8"/>
<path d="M990.329 1332.7V1328.5H986.348V1332.7H990.329Z" fill="#0F283D"/>
<path d="M989.976 1332.34V1328.79H986.702V1332.34H989.976Z" fill="#366ED7"/>
<path style="mix-blend-mode:screen" d="M989.976 1329.95L986.702 1332.38V1328.79H989.976V1329.95Z" fill="url(#paint39_linear_1_4805)"/>
<path d="M996.674 1333.02V1328.19H992.045V1333.02H996.674Z" fill="#B6D0D8"/>
<path d="M996.358 1332.71V1328.51H992.369V1332.71H996.358Z" fill="#0F283D"/>
<path d="M996.004 1332.34V1328.79H992.738V1332.34H996.004Z" fill="#366ED7"/>
<path style="mix-blend-mode:screen" d="M995.996 1329.95L992.73 1332.38V1328.79H995.996V1329.95Z" fill="url(#paint40_linear_1_4805)"/>
<path d="M998.487 1294.06H972.395V1295.45H998.487V1294.06V1294.06Z" fill="#B6D0D8"/>
<path d="M998.119 1296.33L972.756 1295.75V1295.45H998.119V1296.33Z" fill="#B7E3F0"/>
<path d="M998.119 1335.98H972.763V1344.41H998.119V1335.98Z" fill="#96D1E3"/>
<path d="M983.285 1337.02H978.062V1344.41H983.285V1337.02Z" fill="#0F283D"/>
<path d="M983.104 1337.27H978.265V1344.17H983.104V1337.27Z" fill="#366ED7"/>
<path style="mix-blend-mode:screen" d="M983.104 1337.27L978.265 1342.45V1337.27H983.104Z" fill="url(#paint41_linear_1_4805)"/>
<path d="M980.854 1337.18H980.621V1344.29H980.854V1337.18ZM989.848 1337.02H984.625V1344.41H989.848V1337.02Z" fill="#0F283D"/>
<path d="M989.667 1337.27H984.828V1344.17H989.667V1337.27Z" fill="#366ED7"/>
<path style="mix-blend-mode:screen" d="M989.667 1337.27L984.828 1342.45V1337.27H989.667Z" fill="url(#paint42_linear_1_4805)"/>
<path d="M987.409 1337.18H987.183V1344.29H987.409V1337.18Z" fill="#0F283D"/>
<path d="M990.412 1343.43H977.452V1343.91H990.412V1343.43ZM992.181 1343.92H975.684V1344.41H992.181V1343.92Z" fill="#CAE1ED"/>
</g>
</g>
<defs>
<linearGradient id="paint0_linear_1_4805" x1="512.302" y1="1318.47" x2="515.409" y2="1318.47" gradientUnits="userSpaceOnUse">
<stop/>
<stop offset="1" stop-color="#655E4F"/>
</linearGradient>
<linearGradient id="paint1_linear_1_4805" x1="474.905" y1="1331.62" x2="475.371" y2="1331.62" gradientUnits="userSpaceOnUse">
<stop/>
<stop offset="1" stop-color="#655E4F"/>
</linearGradient>
<linearGradient id="paint2_linear_1_4805" x1="525.093" y1="1295.25" x2="528.204" y2="1295.25" gradientUnits="userSpaceOnUse">
<stop/>
<stop offset="1" stop-color="#655E4F"/>
</linearGradient>
<linearGradient id="paint3_linear_1_4805" x1="525.093" y1="1331.62" x2="528.204" y2="1331.62" gradientUnits="userSpaceOnUse">
<stop/>
<stop offset="1" stop-color="#655E4F"/>
</linearGradient>
<linearGradient id="paint4_linear_1_4805" x1="535.948" y1="1295.25" x2="539.06" y2="1295.25" gradientUnits="userSpaceOnUse">
<stop/>
<stop offset="1" stop-color="#655E4F"/>
</linearGradient>
<linearGradient id="paint5_linear_1_4805" x1="535.948" y1="1331.62" x2="539.06" y2="1331.62" gradientUnits="userSpaceOnUse">
<stop/>
<stop offset="1" stop-color="#655E4F"/>
</linearGradient>
<linearGradient id="paint6_linear_1_4805" x1="542.667" y1="1331.62" x2="545.774" y2="1331.62" gradientUnits="userSpaceOnUse">
<stop/>
<stop offset="1" stop-color="#655E4F"/>
</linearGradient>
<linearGradient id="paint7_linear_1_4805" x1="549.531" y1="1295.25" x2="552.643" y2="1295.25" gradientUnits="userSpaceOnUse">
<stop/>
<stop offset="1" stop-color="#655E4F"/>
</linearGradient>
<linearGradient id="paint8_linear_1_4805" x1="549.531" y1="1331.62" x2="552.643" y2="1331.62" gradientUnits="userSpaceOnUse">
<stop/>
<stop offset="1" stop-color="#655E4F"/>
</linearGradient>
<linearGradient id="paint9_linear_1_4805" x1="487.832" y1="1295.25" x2="490.944" y2="1295.25" gradientUnits="userSpaceOnUse">
<stop/>
<stop offset="1" stop-color="#655E4F"/>
</linearGradient>
<linearGradient id="paint10_linear_1_4805" x1="487.832" y1="1331.62" x2="490.944" y2="1331.62" gradientUnits="userSpaceOnUse">
<stop/>
<stop offset="1" stop-color="#655E4F"/>
</linearGradient>
<linearGradient id="paint11_linear_1_4805" x1="494.547" y1="1331.62" x2="497.654" y2="1331.62" gradientUnits="userSpaceOnUse">
<stop/>
<stop offset="1" stop-color="#655E4F"/>
</linearGradient>
<linearGradient id="paint12_linear_1_4805" x1="501.415" y1="1295.25" x2="504.526" y2="1295.25" gradientUnits="userSpaceOnUse">
<stop/>
<stop offset="1" stop-color="#655E4F"/>
</linearGradient>
<linearGradient id="paint13_linear_1_4805" x1="501.415" y1="1331.62" x2="504.526" y2="1331.62" gradientUnits="userSpaceOnUse">
<stop/>
<stop offset="1" stop-color="#655E4F"/>
</linearGradient>
<linearGradient id="paint14_linear_1_4805" x1="939.784" y1="1339.86" x2="944.624" y2="1339.86" gradientUnits="userSpaceOnUse">
<stop/>
<stop offset="1" stop-color="#655E4F"/>
</linearGradient>
<linearGradient id="paint15_linear_1_4805" x1="946.279" y1="1230" x2="951.119" y2="1230" gradientUnits="userSpaceOnUse">
<stop/>
<stop offset="1" stop-color="#655E4F"/>
</linearGradient>
<linearGradient id="paint16_linear_1_4805" x1="952.737" y1="1230" x2="957.576" y2="1230" gradientUnits="userSpaceOnUse">
<stop/>
<stop offset="1" stop-color="#655E4F"/>
</linearGradient>
<linearGradient id="paint17_linear_1_4805" x1="974.653" y1="1299.51" x2="977.926" y2="1299.51" gradientUnits="userSpaceOnUse">
<stop/>
<stop offset="1" stop-color="#655E4F"/>
</linearGradient>
<linearGradient id="paint18_linear_1_4805" x1="980.673" y1="1299.51" x2="983.947" y2="1299.51" gradientUnits="userSpaceOnUse">
<stop/>
<stop offset="1" stop-color="#655E4F"/>
</linearGradient>
<linearGradient id="paint19_linear_1_4805" x1="986.702" y1="1299.51" x2="989.976" y2="1299.51" gradientUnits="userSpaceOnUse">
<stop/>
<stop offset="1" stop-color="#655E4F"/>
</linearGradient>
<linearGradient id="paint20_linear_1_4805" x1="992.723" y1="1299.51" x2="995.996" y2="1299.51" gradientUnits="userSpaceOnUse">
<stop/>
<stop offset="1" stop-color="#655E4F"/>
</linearGradient>
<linearGradient id="paint21_linear_1_4805" x1="974.653" y1="1305.72" x2="977.926" y2="1305.72" gradientUnits="userSpaceOnUse">
<stop/>
<stop offset="1" stop-color="#655E4F"/>
</linearGradient>
<linearGradient id="paint22_linear_1_4805" x1="980.673" y1="1305.72" x2="983.947" y2="1305.72" gradientUnits="userSpaceOnUse">
<stop/>
<stop offset="1" stop-color="#655E4F"/>
</linearGradient>
<linearGradient id="paint23_linear_1_4805" x1="986.702" y1="1305.72" x2="989.976" y2="1305.72" gradientUnits="userSpaceOnUse">
<stop/>
<stop offset="1" stop-color="#655E4F"/>
</linearGradient>
<linearGradient id="paint24_linear_1_4805" x1="992.723" y1="1305.72" x2="995.996" y2="1305.72" gradientUnits="userSpaceOnUse">
<stop/>
<stop offset="1" stop-color="#655E4F"/>
</linearGradient>
<linearGradient id="paint25_linear_1_4805" x1="974.653" y1="1311.94" x2="977.926" y2="1311.94" gradientUnits="userSpaceOnUse">
<stop/>
<stop offset="1" stop-color="#655E4F"/>
</linearGradient>
<linearGradient id="paint26_linear_1_4805" x1="980.673" y1="1311.94" x2="983.947" y2="1311.94" gradientUnits="userSpaceOnUse">
<stop/>
<stop offset="1" stop-color="#655E4F"/>
</linearGradient>
<linearGradient id="paint27_linear_1_4805" x1="986.702" y1="1311.94" x2="989.976" y2="1311.94" gradientUnits="userSpaceOnUse">
<stop/>
<stop offset="1" stop-color="#655E4F"/>
</linearGradient>
<linearGradient id="paint28_linear_1_4805" x1="992.723" y1="1311.94" x2="995.996" y2="1311.94" gradientUnits="userSpaceOnUse">
<stop/>
<stop offset="1" stop-color="#655E4F"/>
</linearGradient>
<linearGradient id="paint29_linear_1_4805" x1="974.653" y1="1318.15" x2="977.926" y2="1318.15" gradientUnits="userSpaceOnUse">
<stop/>
<stop offset="1" stop-color="#655E4F"/>
</linearGradient>
<linearGradient id="paint30_linear_1_4805" x1="980.673" y1="1318.15" x2="983.947" y2="1318.15" gradientUnits="userSpaceOnUse">
<stop/>
<stop offset="1" stop-color="#655E4F"/>
</linearGradient>
<linearGradient id="paint31_linear_1_4805" x1="986.702" y1="1318.15" x2="989.976" y2="1318.15" gradientUnits="userSpaceOnUse">
<stop/>
<stop offset="1" stop-color="#655E4F"/>
</linearGradient>
<linearGradient id="paint32_linear_1_4805" x1="992.723" y1="1318.15" x2="995.996" y2="1318.15" gradientUnits="userSpaceOnUse">
<stop/>
<stop offset="1" stop-color="#655E4F"/>
</linearGradient>
<linearGradient id="paint33_linear_1_4805" x1="974.653" y1="1324.37" x2="977.926" y2="1324.37" gradientUnits="userSpaceOnUse">
<stop/>
<stop offset="1" stop-color="#655E4F"/>
</linearGradient>
<linearGradient id="paint34_linear_1_4805" x1="980.673" y1="1324.37" x2="983.947" y2="1324.37" gradientUnits="userSpaceOnUse">
<stop/>
<stop offset="1" stop-color="#655E4F"/>
</linearGradient>
<linearGradient id="paint35_linear_1_4805" x1="986.702" y1="1324.37" x2="989.976" y2="1324.37" gradientUnits="userSpaceOnUse">
<stop/>
<stop offset="1" stop-color="#655E4F"/>
</linearGradient>
<linearGradient id="paint36_linear_1_4805" x1="992.723" y1="1324.37" x2="995.996" y2="1324.37" gradientUnits="userSpaceOnUse">
<stop/>
<stop offset="1" stop-color="#655E4F"/>
</linearGradient>
<linearGradient id="paint37_linear_1_4805" x1="974.653" y1="1330.59" x2="977.926" y2="1330.59" gradientUnits="userSpaceOnUse">
<stop/>
<stop offset="1" stop-color="#655E4F"/>
</linearGradient>
<linearGradient id="paint38_linear_1_4805" x1="980.673" y1="1330.59" x2="983.947" y2="1330.59" gradientUnits="userSpaceOnUse">
<stop/>
<stop offset="1" stop-color="#655E4F"/>
</linearGradient>
<linearGradient id="paint39_linear_1_4805" x1="986.702" y1="1330.59" x2="989.976" y2="1330.59" gradientUnits="userSpaceOnUse">
<stop/>
<stop offset="1" stop-color="#655E4F"/>
</linearGradient>
<linearGradient id="paint40_linear_1_4805" x1="992.73" y1="1330.59" x2="995.996" y2="1330.59" gradientUnits="userSpaceOnUse">
<stop/>
<stop offset="1" stop-color="#655E4F"/>
</linearGradient>
<linearGradient id="paint41_linear_1_4805" x1="978.265" y1="1230" x2="983.104" y2="1230" gradientUnits="userSpaceOnUse">
<stop/>
<stop offset="1" stop-color="#655E4F"/>
</linearGradient>
<linearGradient id="paint42_linear_1_4805" x1="984.828" y1="1230" x2="989.667" y2="1230" gradientUnits="userSpaceOnUse">
<stop/>
<stop offset="1" stop-color="#655E4F"/>
</linearGradient>
<clipPath id="clip0_1_4805">
<rect width="1445" height="132" fill="white" transform="translate(0 1230)"/>
</clipPath>
</defs>
</svg>
