<svg width="23" height="22" viewBox="0 0 23 22" fill="none" xmlns="http://www.w3.org/2000/svg">
<path opacity="0.4" d="M13.4218 5.03244C12.9854 4.95183 12.5847 5.23031 12.5016 5.65626C12.4185 6.08222 12.6979 6.4981 13.1224 6.58146C14.4004 6.83062 15.3873 7.81994 15.6374 9.1024V9.10331C15.7086 9.47248 16.0336 9.74088 16.4079 9.74088C16.4581 9.74088 16.5083 9.7363 16.5595 9.72714C16.984 9.64194 17.2633 9.22698 17.1803 8.8001C16.8069 6.88467 15.3325 5.40527 13.4218 5.03244Z" fill="white"/>
<path opacity="0.4" d="M13.3649 1.84052C13.1604 1.81121 12.955 1.87167 12.7916 2.00174C12.6236 2.13365 12.5186 2.32419 12.4958 2.53763C12.4474 2.96908 12.7587 3.35931 13.1896 3.40786C16.1612 3.73947 18.4708 6.05429 18.8049 9.03508C18.8497 9.43447 19.1847 9.73585 19.5846 9.73585C19.6147 9.73585 19.6439 9.73402 19.674 9.73035C19.8831 9.70745 20.0693 9.60394 20.2008 9.43905C20.3313 9.27417 20.3907 9.06897 20.3669 8.8592C19.9506 5.14009 17.0722 2.25365 13.3649 1.84052Z" fill="white"/>
<path fill-rule="evenodd" clip-rule="evenodd" d="M10.3173 11.8914C13.974 15.547 14.8035 11.3178 17.1317 13.6444C19.3763 15.8884 20.6664 16.3379 17.8225 19.181C17.4663 19.4673 15.203 22.9114 7.24916 14.9597C-0.705753 7.007 2.73639 4.74141 3.02274 4.38529C5.87348 1.53436 6.31531 2.83193 8.55989 5.07588C10.8881 7.40345 6.66071 8.23571 10.3173 11.8914Z" fill="white"/>
</svg>
