<svg width="69" height="40" viewBox="0 0 69 40" fill="none" xmlns="http://www.w3.org/2000/svg">
<g clip-path="url(#clip0_1_6139)">
<path d="M33.998 39.99C29.238 39.99 24.498 39.303 20.652 38.055C16.239 36.623 14.002 34.809 14.002 32.664V15.994C14.002 14.894 14.894 14.002 15.994 14.002H52.001C53.101 14.002 53.993 14.894 53.993 15.994V32.664C53.993 34.809 51.756 36.623 47.343 38.054C43.497 39.304 38.757 39.991 33.998 39.991V39.99ZM61.313 33.284C60.083 33.284 59.084 32.87 59.084 32.358V14.145C59.084 13.634 60.082 13.219 61.314 13.219C62.544 13.219 63.543 13.634 63.543 14.145V32.358C63.543 32.87 62.545 33.284 61.313 33.284V33.284Z" fill="#E0D6FF"/>
<path d="M61.222 34.32C62.2831 34.32 63.3008 33.8985 64.0511 33.1481C64.8015 32.3978 65.223 31.3801 65.223 30.319C65.223 29.2579 64.8015 28.2402 64.0511 27.4899C63.3008 26.7395 62.2831 26.318 61.222 26.318C60.1609 26.318 59.1432 26.7395 58.3929 27.4899C57.6425 28.2402 57.221 29.2579 57.221 30.319C57.221 31.3801 57.6425 32.3978 58.3929 33.1481C59.1432 33.8985 60.1609 34.32 61.222 34.32V34.32Z" fill="#E0D6FF"/>
<path d="M34.004 26.657C33.7767 26.6567 33.5511 26.6175 33.337 26.541L1.32902 15.162C0.941183 15.024 0.605615 14.7693 0.368457 14.4329C0.1313 14.0964 0.0042013 13.6947 0.0046398 13.2831C0.0050783 12.8714 0.133032 12.47 0.370906 12.1341C0.60878 11.7981 0.94489 11.5441 1.33302 11.407L33.341 0.113998C33.77 -0.037511 34.238 -0.037511 34.667 0.113998L66.675 11.407C67.0631 11.5441 67.3992 11.7981 67.6371 12.1341C67.875 12.47 68.003 12.8714 68.0034 13.2831C68.0038 13.6947 67.8767 14.0964 67.6396 14.4329C67.4024 14.7693 67.0668 15.024 66.679 15.162L34.671 26.542C34.4569 26.6182 34.2313 26.6571 34.004 26.657V26.657Z" fill="#9875FF"/>
</g>
<defs>
<clipPath id="clip0_1_6139">
<rect width="69" height="40" fill="white"/>
</clipPath>
</defs>
</svg>
