<svg width="24" height="16" viewBox="0 0 24 16" fill="none" xmlns="http://www.w3.org/2000/svg">
<g clip-path="url(#clip0_1_6072)">
<path d="M11.8254 15.996C10.1697 15.996 8.52105 15.7212 7.18331 15.222C5.64836 14.6492 4.87027 13.9236 4.87027 13.0656V6.3976C4.87027 5.9576 5.18053 5.6008 5.56314 5.6008H18.0873C18.4699 5.6008 18.7802 5.9576 18.7802 6.3976V13.0656C18.7802 13.9236 18.0021 14.6492 16.4671 15.2216C15.1294 15.7216 13.4807 15.9964 11.8254 15.9964V15.996ZM21.3263 13.3136C20.8984 13.3136 20.551 13.148 20.551 12.9432V5.658C20.551 5.4536 20.8981 5.2876 21.3266 5.2876C21.7544 5.2876 22.1019 5.4536 22.1019 5.658V12.9432C22.1019 13.148 21.7548 13.3136 21.3263 13.3136V13.3136Z" fill="#E0D6FF"/>
<path d="M21.2946 13.728C21.6637 13.728 22.0177 13.5594 22.2787 13.2593C22.5396 12.9591 22.6863 12.5521 22.6863 12.1276C22.6863 11.7032 22.5396 11.2961 22.2787 10.996C22.0177 10.6958 21.6637 10.5272 21.2946 10.5272C20.9255 10.5272 20.5715 10.6958 20.3106 10.996C20.0496 11.2961 19.903 11.7032 19.903 12.1276C19.903 12.5521 20.0496 12.9591 20.3106 13.2593C20.5715 13.5594 20.9255 13.728 21.2946 13.728V13.728Z" fill="#E0D6FF"/>
<path d="M11.8275 10.6628C11.7484 10.6627 11.6699 10.647 11.5955 10.6164L0.46227 6.06483C0.327372 6.00965 0.210653 5.90776 0.128163 5.77318C0.0456735 5.63859 0.0014653 5.47793 0.00161782 5.31327C0.00177035 5.14861 0.0462761 4.98806 0.129015 4.85367C0.211753 4.71929 0.328661 4.61769 0.463662 4.56283L11.5969 0.0456357C11.7461 -0.0149678 11.9089 -0.0149678 12.0581 0.0456357L23.1913 4.56283C23.3263 4.61769 23.4432 4.71929 23.526 4.85367C23.6087 4.98806 23.6532 5.14861 23.6534 5.31327C23.6535 5.47793 23.6093 5.63859 23.5268 5.77318C23.4443 5.90776 23.3276 6.00965 23.1927 6.06483L12.0595 10.6168C11.985 10.6473 11.9065 10.6629 11.8275 10.6628V10.6628Z" fill="#9875FF"/>
</g>
<defs>
<clipPath id="clip0_1_6072">
<rect width="24" height="16" fill="white"/>
</clipPath>
</defs>
</svg>
