<svg width="103" height="70" viewBox="0 0 103 70" fill="none" xmlns="http://www.w3.org/2000/svg">
<path d="M101.329 25.958C102.682 33.718 81.559 43.878 54.143 48.653C26.73 53.428 3.41002 51.006 2.05902 43.242C0.708022 35.482 21.837 25.323 49.249 20.552C76.663 15.772 99.979 18.197 101.329 25.958V25.958Z" fill="#4B4B54"/>
<path d="M75.527 37.475L75.387 29.408H77.931V39.577H74.274L71.734 31.232H71.679L71.821 39.577H69.292V29.407H73.109L75.472 37.475H75.527V37.475ZM29.283 30.36L27.876 39.684H25.101L27.005 29.408H31.576L33.474 39.684H30.71L29.342 30.361H29.284L29.283 30.36ZM41.266 37.264L42.536 29.408H46.726L46.948 39.684H44.38L44.312 30.445H44.259L42.541 39.684H39.934L38.214 30.445H38.159L38.096 39.684H35.522L35.749 29.408H39.943L41.21 37.264H41.266V37.264ZM20.773 36.785C20.874 37.034 20.843 37.355 20.796 37.547C20.71 37.888 20.477 38.237 19.796 38.237C19.15 38.237 18.76 37.867 18.76 37.305V36.31H16.003L16.001 37.105C16.001 39.396 17.805 40.089 19.738 40.089C21.598 40.089 23.128 39.454 23.37 37.74C23.495 36.853 23.401 36.271 23.36 36.052C22.926 33.901 19.025 33.258 18.735 32.056C18.695 31.8776 18.6916 31.6928 18.725 31.513C18.797 31.187 19.021 30.825 19.664 30.825C20.264 30.825 20.619 31.197 20.619 31.758V32.393H23.181V31.672C23.181 29.432 21.171 29.083 19.717 29.083C17.889 29.083 16.395 29.687 16.122 31.359C16.048 31.821 16.038 32.232 16.145 32.749C16.595 34.846 20.243 35.454 20.773 36.785ZM54.188 36.767C54.288 37.013 54.256 37.325 54.211 37.518C54.127 37.859 53.896 38.202 53.219 38.202C52.584 38.202 52.195 37.832 52.195 37.282L52.193 36.296H49.465L49.461 37.081C49.461 39.349 51.248 40.033 53.161 40.033C55 40.033 56.516 39.406 56.756 37.709C56.882 36.829 56.793 36.255 56.748 36.039C56.317 33.909 52.456 33.272 52.168 32.08C52.1279 31.9053 52.1245 31.7241 52.158 31.548C52.232 31.218 52.452 30.866 53.089 30.866C53.685 30.866 54.032 31.228 54.032 31.786V32.416H56.575V31.7C56.575 29.486 54.583 29.138 53.14 29.138C51.333 29.138 49.851 29.734 49.584 31.396C49.51 31.852 49.502 32.255 49.609 32.769C50.051 34.846 53.664 35.449 54.189 36.767H54.188ZM62.82 38.147C63.532 38.147 63.754 37.654 63.803 37.401C63.8233 37.2714 63.8317 37.1402 63.828 37.009V29.404H66.427V36.774C66.433 36.964 66.415 37.352 66.404 37.449C66.222 39.368 64.705 39.989 62.817 39.989C60.927 39.989 59.409 39.368 59.228 37.449C59.2129 37.2247 59.2056 36.9999 59.206 36.775V29.404H61.802V37.007C61.802 37.141 61.807 37.29 61.827 37.399C61.885 37.652 62.1 38.147 62.819 38.147H62.82ZM84.257 38.038C85 38.038 85.261 37.568 85.308 37.295C85.3262 37.1658 85.3339 37.0354 85.331 36.905V35.413H84.277V33.913H87.922V36.672C87.9202 36.8985 87.9079 37.1247 87.885 37.35C87.715 39.22 86.091 39.887 84.271 39.887C82.447 39.887 80.828 39.219 80.653 37.35C80.6322 37.1245 80.6199 36.8984 80.616 36.672L80.618 32.345C80.618 32.163 80.641 31.84 80.661 31.667C80.889 29.747 82.447 29.128 84.271 29.128C86.093 29.128 87.689 29.742 87.879 31.668C87.911 31.994 87.901 32.345 87.901 32.345V32.688H85.311V32.113C85.31 31.9824 85.2989 31.852 85.278 31.723C85.234 31.495 85.038 30.973 84.252 30.973C83.502 30.973 83.285 31.466 83.229 31.723C83.199 31.859 83.186 32.041 83.186 32.208V36.908C83.184 37.038 83.192 37.181 83.213 37.298C83.254 37.568 83.513 38.038 84.257 38.038V38.038Z" fill="#12111F"/>
</svg>
