<svg width="36" height="37" viewBox="0 0 36 37" fill="none" xmlns="http://www.w3.org/2000/svg">
<g clip-path="url(#clip0_1_6422)">
<path d="M24.457 20.6949C29.1034 20.6949 32.87 16.9283 32.87 12.2819C32.87 7.63553 29.1034 3.8689 24.457 3.8689C19.8106 3.8689 16.044 7.63553 16.044 12.2819C16.044 16.9283 19.8106 20.6949 24.457 20.6949Z" fill="white"/>
<path d="M35.742 21.8039L33.468 19.1839C35.1112 17.1305 36.0044 14.5778 36 11.9479C36 5.55092 30.796 0.346924 24.398 0.346924C18.001 0.346924 12.797 5.55092 12.797 11.9489C12.797 18.3459 18.001 23.5499 24.398 23.5499H34.945C35.1472 23.5499 35.3452 23.4917 35.5153 23.3823C35.6854 23.273 35.8205 23.117 35.9045 22.933C35.9885 22.749 36.0178 22.5448 35.989 22.3446C35.9602 22.1444 35.8745 21.9568 35.742 21.8039V21.8039ZM24.398 19.1199C24.2568 19.1243 24.1161 19.1002 23.9844 19.0492C23.8527 18.9981 23.7325 18.9212 23.6311 18.8228C23.5297 18.7245 23.449 18.6067 23.394 18.4766C23.3389 18.3465 23.3105 18.2067 23.3105 18.0654C23.3105 17.9241 23.3389 17.7843 23.394 17.6542C23.449 17.5241 23.5297 17.4064 23.6311 17.308C23.7325 17.2097 23.8527 17.1327 23.9844 17.0817C24.1161 17.0306 24.2568 17.0066 24.398 17.0109C24.6778 17.0109 24.9461 17.1221 25.144 17.3199C25.3418 17.5178 25.453 17.7861 25.453 18.0659C25.453 18.3457 25.3418 18.6141 25.144 18.8119C24.9461 19.0098 24.6778 19.1209 24.398 19.1209V19.1199ZM27.333 11.5379C26.8206 12.0762 26.1703 12.4636 25.453 12.6579V14.8729C25.453 15.1527 25.3418 15.4211 25.144 15.6189C24.9461 15.8168 24.6778 15.9279 24.398 15.9279C24.1182 15.9279 23.8499 15.8168 23.652 15.6189C23.4541 15.4211 23.343 15.1527 23.343 14.8729V11.7439C23.343 11.1619 23.816 10.6899 24.398 10.6899C24.6611 10.6909 24.9215 10.6378 25.1632 10.5338C25.4049 10.4299 25.6227 10.2775 25.803 10.0859C26.173 9.69592 26.361 9.18592 26.333 8.64792C26.3052 8.15347 26.0894 7.68834 25.7299 7.34777C25.3704 7.00719 24.8942 6.81693 24.399 6.81592C23.8853 6.81592 23.3926 7.02 23.0293 7.38326C22.6661 7.74652 22.462 8.2392 22.462 8.75292C22.462 9.03273 22.3508 9.30107 22.153 9.49892C21.9551 9.69677 21.6868 9.80792 21.407 9.80792C21.1272 9.80792 20.8589 9.69677 20.661 9.49892C20.4631 9.30107 20.352 9.03273 20.352 8.75292C20.3522 8.21453 20.4597 7.68158 20.6684 7.18526C20.877 6.68895 21.1826 6.23924 21.5672 5.86247C21.9518 5.4857 22.4077 5.18943 22.9082 4.99102C23.4087 4.7926 23.9437 4.69602 24.482 4.70692C25.5027 4.73077 26.4768 5.13846 27.2103 5.8487C27.9437 6.55895 28.3824 7.51954 28.439 8.53892C28.4699 9.08791 28.3876 9.63738 28.1974 10.1533C28.0071 10.6691 27.7129 11.1404 27.333 11.5379V11.5379Z" fill="#45C881"/>
<path d="M15.117 23.6909H8.086C7.8062 23.6909 7.53785 23.5798 7.34 23.3819C7.14215 23.184 7.031 22.9157 7.031 22.6359C7.031 22.3561 7.14215 22.0878 7.34 21.8899C7.53785 21.6921 7.8062 21.5809 8.086 21.5809H14.653C12.4107 19.32 11.0278 16.3474 10.743 13.1759C4.745 13.6159 0 18.6369 0 24.7459C0 27.3959 0.893 29.9299 2.532 31.9799L0.258 34.6009C0.125535 34.7537 0.0397885 34.9414 0.0109732 35.1416C-0.017842 35.3418 0.0114884 35.546 0.0954712 35.73C0.179454 35.914 0.31455 36.0699 0.484668 36.1793C0.654786 36.2887 0.852756 36.3469 1.055 36.3469H11.602C17.71 36.3469 22.73 31.6019 23.172 25.6039C20.6194 25.3762 18.1826 24.4339 16.141 22.8849C16.0854 23.1146 15.9542 23.3189 15.7685 23.4651C15.5828 23.6113 15.3533 23.6908 15.117 23.6909V23.6909ZM15.117 27.9089H8.086C7.81195 27.9005 7.55195 27.7857 7.36108 27.5888C7.17022 27.392 7.06348 27.1286 7.06348 26.8544C7.06348 26.5802 7.17022 26.3168 7.36108 26.12C7.55195 25.9231 7.81195 25.8083 8.086 25.7999H15.117C15.3968 25.7999 15.6651 25.9111 15.863 26.1089C16.0608 26.3068 16.172 26.5751 16.172 26.8549C16.172 27.1347 16.0608 27.403 15.863 27.6009C15.6651 27.7988 15.3968 27.9099 15.117 27.9099V27.9089Z" fill="#9BE6BE"/>
</g>
<defs>
<clipPath id="clip0_1_6422">
<rect width="36" height="36" fill="white" transform="translate(0 0.346924)"/>
</clipPath>
</defs>
</svg>
