<svg width="37" height="39" viewBox="0 0 37 39" fill="none" xmlns="http://www.w3.org/2000/svg">
<g clip-path="url(#clip0_1_6423)">
<path d="M25.392 37.8469C25.2014 37.8471 25.0142 37.797 24.8491 37.7016C24.6841 37.6063 24.5471 37.4691 24.452 37.3039L16.493 23.5179C16.4218 23.3946 16.3756 23.2584 16.3571 23.1173C16.3385 22.9761 16.3479 22.8327 16.3847 22.6951C16.4216 22.5576 16.4852 22.4287 16.5719 22.3157C16.6586 22.2028 16.7667 22.108 16.89 22.0369L24.508 17.6389C24.7569 17.4953 25.0525 17.4564 25.33 17.5306C25.6075 17.6049 25.8442 17.7862 25.988 18.0349L33.948 31.8219C34.0339 31.9706 34.0832 32.1376 34.0919 32.3091C34.1006 32.4806 34.0684 32.6517 33.998 32.8084C33.9276 32.965 33.821 33.1027 33.687 33.21C33.5529 33.3174 33.3953 33.3914 33.227 33.4259L29.039 34.2829L26.203 37.4819C26.1013 37.5964 25.9764 37.6881 25.8366 37.7508C25.6968 37.8136 25.5453 37.846 25.392 37.8459V37.8469Z" fill="#FFE4AD"/>
<path d="M11.612 37.8469C11.304 37.8469 11.008 37.7149 10.802 37.4819L7.96503 34.2819L3.77703 33.4259C3.6087 33.3915 3.45096 33.3176 3.31679 33.2103C3.18263 33.103 3.07589 32.9654 3.00537 32.8087C2.93486 32.6521 2.90259 32.4809 2.91122 32.3093C2.91985 32.1377 2.96914 31.9707 3.05503 31.8219L11.015 18.0349C11.1589 17.7862 11.3956 17.6049 11.6731 17.5306C11.9506 17.4564 12.2462 17.4953 12.495 17.6389L20.114 22.0369C20.632 22.3369 20.81 22.9989 20.511 23.5169L12.551 37.3039C12.4559 37.4687 12.319 37.6056 12.1542 37.7007C11.9893 37.7958 11.8023 37.8459 11.612 37.8459V37.8469Z" fill="#FFE4AD"/>
<path d="M18.534 28.8419H18.484C17.068 28.8199 16.069 27.9139 15.188 27.1149C14.673 26.6479 14.186 26.2069 13.694 26.0029C13.257 25.8219 12.648 25.8059 12.002 25.7889C10.855 25.7589 9.55602 25.7239 8.59202 24.7309C7.60602 23.7129 7.54002 22.3659 7.48202 21.1779C7.44802 20.4829 7.41602 19.8279 7.21202 19.3349C7.03102 18.8979 6.61202 18.4549 6.16702 17.9869C5.37702 17.1549 4.48303 16.2119 4.50403 14.8269C4.52603 13.4109 5.43202 12.4119 6.23102 11.5309C6.69802 11.0159 7.14002 10.5289 7.34402 10.0369C7.52402 9.59992 7.54103 8.99092 7.55803 8.34492C7.58803 7.19792 7.62202 5.89892 8.61602 4.93492C9.63302 3.94892 10.98 3.88292 12.169 3.82492C12.863 3.79092 13.519 3.75892 14.011 3.55492C14.448 3.37492 14.891 2.95492 15.359 2.50992C16.18 1.72992 17.113 0.846924 18.469 0.846924H18.519C19.935 0.868924 20.934 1.77492 21.815 2.57392C22.331 3.04192 22.817 3.48292 23.309 3.68692C23.747 3.86692 24.356 3.88392 25.001 3.90092C26.148 3.93092 27.448 3.96492 28.411 4.95892C29.397 5.97592 29.463 7.32292 29.521 8.51192C29.555 9.20592 29.587 9.86192 29.791 10.3539C29.972 10.7919 30.391 11.2339 30.836 11.7019C31.626 12.5339 32.52 13.4779 32.499 14.8619C32.477 16.2779 31.571 17.2769 30.772 18.1589C30.305 18.6739 29.864 19.1609 29.66 19.6519C29.479 20.0899 29.463 20.6989 29.446 21.3439C29.416 22.4909 29.381 23.7909 28.387 24.7539C27.37 25.7399 26.023 25.8059 24.835 25.8639C24.14 25.8979 23.485 25.9309 22.992 26.1339C22.555 26.3149 22.112 26.7339 21.644 27.1789C20.822 27.9589 19.891 28.8419 18.534 28.8419Z" fill="#FAB223"/>
<path d="M18.502 23.7839C13.572 23.7839 9.56201 19.7739 9.56201 14.8439C9.56201 9.91588 13.572 5.90588 18.502 5.90588C23.431 5.90588 27.441 9.91588 27.441 14.8449C27.441 19.7739 23.431 23.7839 18.501 23.7839H18.502Z" fill="#FAB223"/>
<path d="M15.938 19.7289C15.6578 19.7291 15.3884 19.6208 15.1863 19.4267C14.9843 19.2327 14.8652 18.9679 14.854 18.6879L14.756 16.1929L13.472 14.4009C13.3749 14.2653 13.3104 14.109 13.2836 13.9444C13.2567 13.7797 13.2682 13.6111 13.3172 13.4517C13.3661 13.2922 13.4512 13.1462 13.5659 13.025C13.6805 12.9038 13.8215 12.8107 13.978 12.7529L16.32 11.8879L17.628 10.1139C17.727 9.97974 17.8557 9.87024 18.0039 9.7939C18.1521 9.71756 18.3159 9.67644 18.4826 9.67373C18.6493 9.67102 18.8144 9.7068 18.965 9.77828C19.1156 9.84977 19.2477 9.95503 19.351 10.0859L20.898 12.0459L22.989 12.7409C23.1473 12.7935 23.2913 12.8819 23.4098 12.9992C23.5283 13.1165 23.6181 13.2596 23.6723 13.4173C23.7265 13.5751 23.7436 13.7431 23.7222 13.9085C23.7008 14.0739 23.6415 14.2321 23.549 14.3709L22.162 16.4489L22.147 18.6519C22.1459 18.8187 22.1063 18.983 22.0313 19.132C21.9562 19.281 21.8478 19.4107 21.7145 19.511C21.5811 19.6112 21.4264 19.6793 21.2625 19.71C21.0985 19.7407 20.9296 19.7331 20.769 19.6879L18.366 19.0109C18.366 19.0109 16.303 19.7289 15.938 19.7289V19.7289Z" fill="#FFFAC1"/>
</g>
<defs>
<clipPath id="clip0_1_6423">
<rect width="37" height="38" fill="white" transform="translate(0 0.346924)"/>
</clipPath>
</defs>
</svg>
