<svg width="103" height="70" viewBox="0 0 103 70" fill="none" xmlns="http://www.w3.org/2000/svg">
<path d="M29.368 27.5331C31.954 26.8251 33.914 24.2941 34.348 21.1631L34.566 19.6111H29.776C21.31 19.6111 18.071 20.4811 15.296 23.4481C13.6889 25.1454 12.5861 27.2565 12.111 29.5451C11.892 30.5781 11.783 29.9521 11.648 26.6871C11.485 22.9031 11.403 22.3871 10.558 21.1071C9.52499 19.5551 7.29299 18.2771 5.05899 17.9781L3.64499 17.7871L3.78099 24.4821C3.88999 30.3331 4.02599 31.4221 4.67799 33.0841C6.06599 36.5941 8.46299 38.6901 12.626 40.0241L14.586 40.6501L10.966 40.6771C8.19099 40.7041 6.99299 40.8681 5.90299 41.3581C3.69999 42.3671 1.98499 45.1441 1.98499 47.7031V48.7101L8.62699 48.5741C15.759 48.4121 17.064 48.1671 19.623 46.3691C21.312 45.1991 23.027 42.7491 23.733 40.4361L24.332 38.5311L24.495 41.9611C24.657 45.5541 24.958 46.4811 26.455 48.0861C27.597 49.3111 28.905 50.0191 30.755 50.3451C31.545 50.4811 32.335 50.4811 32.497 50.3451C33.014 49.8821 32.524 37.9881 31.898 36.0011C30.782 32.4611 28.306 30.0111 24.468 28.7061L22.181 27.9181H25.121C26.782 27.8881 28.687 27.7241 29.368 27.5331V27.5331ZM22.808 29.8201C24.007 31.0991 24.497 32.3801 24.497 34.3931C24.497 36.4631 22.973 38.9131 21.338 39.7271C16.712 41.9061 12.002 39.1551 11.921 34.3111C11.839 28.5691 18.888 25.6551 22.808 29.8211V29.8201ZM56.343 33.2221C55.634 29.0571 53.293 26.4991 49.728 25.9541C48.039 25.7091 45.808 26.2261 44.366 27.2611L43.386 27.9431V25.6551C43.386 22.1161 42.188 19.9401 40.121 19.9401H39.304V43.3471H41.237C43.061 43.3471 43.115 43.4011 43.115 42.5031V41.5781L43.959 42.3401C44.422 42.7771 45.402 43.3201 46.109 43.5921C47.796 44.1361 51.035 44.0281 52.505 43.1561C55.416 41.4961 57.049 37.2781 56.343 33.2221V33.2221ZM49.919 40.4361C48.422 41.1441 47.416 41.1441 45.972 40.4361C44.148 39.5381 43.332 37.8231 43.304 34.9661C43.304 30.9361 45.128 28.7041 48.231 29.0321C50.926 29.3031 52.449 31.4821 52.449 35.1281C52.449 37.7941 51.552 39.6741 49.919 40.4361V40.4361ZM84.322 43.4561C84.077 43.4291 83.669 42.9661 83.369 42.3941C82.961 41.6051 82.852 40.1351 82.852 35.8071C82.852 29.6021 82.58 28.4571 80.839 27.2061C77.137 24.5661 69.979 25.8721 68.481 29.4381C67.664 31.4241 67.8 31.6421 69.816 31.6421C71.475 31.6421 71.693 31.5601 72.21 30.6091C72.945 29.3301 74.28 28.7851 76.21 28.9761C77.899 29.1681 79.041 30.0101 79.041 31.1261C79.041 32.4041 78.008 32.9231 74.277 33.4931C69.268 34.2821 67.936 35.0731 67.446 37.7121C66.956 40.3251 68.29 42.7481 70.849 43.5631C72.373 44.1071 75.72 43.8621 77.6 42.9641L79.124 42.2561L79.64 42.9911C80.266 43.8891 82.035 44.2431 83.614 43.8081C84.214 43.6481 84.567 43.4831 84.322 43.4561V43.4561ZM78.362 39.2641C78.17 39.6181 77.409 40.1351 76.62 40.4621C74.932 41.1441 74.034 41.1441 72.59 40.5161C71.34 39.9721 70.931 39.0461 71.421 37.7941C71.858 36.6241 72.511 36.3241 75.56 35.8611C76.974 35.6431 78.255 35.3981 78.417 35.2891C78.825 35.0191 78.798 38.5021 78.362 39.2641V39.2641ZM89.93 43.8101C85.739 42.8031 83.67 39.5101 83.942 34.3931C84.16 30.3371 85.385 28.1881 88.296 26.7181C91.916 24.8931 97.742 26.3101 99.156 29.3301C100.408 32.0251 100.382 32.0251 98.094 32.0251C96.19 32.0251 96.025 31.9721 95.807 31.1551C95.535 30.0921 93.737 28.9231 92.377 28.9231C89.791 28.9231 88.077 30.7731 87.751 33.9031C87.479 36.4891 87.86 38.0681 89.085 39.4561C91.127 41.7961 94.365 41.2801 95.645 38.4221C96.325 36.8701 96.353 36.8431 98.039 36.8431C98.963 36.8431 99.807 36.9531 99.889 37.1151C99.972 37.2511 99.836 38.0951 99.562 38.9391C98.477 42.6671 94.149 44.8171 89.931 43.8101H89.93ZM57.621 34.7741V26.1191L59.446 26.2281C61.214 26.3371 61.27 26.3641 61.432 27.4801L61.595 28.6221L62.466 27.6691C63.5 26.5531 65.161 25.7911 66.604 25.7911C67.638 25.7911 67.638 25.8181 67.638 27.6961V29.6001H66.085C64.861 29.6001 64.288 29.8181 63.364 30.6341C61.811 31.9941 61.404 33.7101 61.404 39.0711V43.3991H57.595L57.621 34.7741V34.7741Z" fill="#4B4B54"/>
</svg>
