<svg width="103" height="70" viewBox="0 0 103 70" fill="none" xmlns="http://www.w3.org/2000/svg">
<path d="M9 43.8751H10.958V44.4401H9.71V45.4931H10.903V46.0601H9.709V47.7451H9V43.8751ZM16.012 43.8741H16.722V47.7451H16.012V43.8751V43.8741ZM21.98 43.8751H22.824L24.111 46.9131H24.121V43.8751H24.765V47.7451H23.917L22.635 44.7281H22.625V47.7451H21.98V43.8751ZM31.811 46.2701L31.323 44.4611H31.312L30.778 46.2711H31.811V46.2701ZM31.961 46.8141H30.631L30.352 47.7451H29.642L30.941 43.8751H31.717L32.965 47.7451H32.233L31.961 46.8141ZM37.842 43.8751H38.684L39.972 46.9131H39.982V43.8751H40.626V47.7451H39.778L38.496 44.7281H38.484V47.7451H37.842V43.8751V43.8751ZM48.342 47.6621C48.196 47.7391 47.854 47.8021 47.503 47.8021C46.329 47.8021 45.723 46.9411 45.723 45.8111C45.723 44.6791 46.329 43.8201 47.481 43.8201C47.876 43.8201 48.196 43.9251 48.341 43.9801L48.303 44.6181C48.158 44.5461 47.933 44.4071 47.571 44.4071C46.982 44.4071 46.477 44.8061 46.477 45.8111C46.477 46.8141 46.982 47.2131 47.571 47.2131C47.915 47.2131 48.142 47.1301 48.303 47.0111L48.342 47.6621V47.6621ZM53.4 43.8741H55.436V44.4391H54.11V45.4721H55.365V46.0381H54.11V47.1781H55.493V47.7451H53.4V43.8751V43.8741ZM42.818 36.2031C41.834 37.5181 40.352 38.1771 38.376 38.1771H37.226V27.2271H38.376C40.343 27.2271 41.825 27.8851 42.818 29.2021C43.565 30.1951 43.939 31.3601 43.939 32.6941C43.939 34.0301 43.565 35.1981 42.818 36.2031ZM48.159 28.4891C47.378 26.879 46.168 25.5157 44.662 24.5491C43.112 23.5421 41.433 23.0381 39.622 23.0381H33.682C33.2903 23.0397 32.9149 23.1954 32.6372 23.4717C32.3595 23.7479 32.2017 24.1224 32.198 24.5141V42.3691H39.622C40.6638 42.3692 41.6979 42.1916 42.68 41.8441C44.567 41.1841 46.118 39.9961 47.333 38.2841C48.545 36.5691 49.152 34.7081 49.152 32.6941C49.152 31.2501 48.821 29.8471 48.159 28.4891ZM9.001 42.3691H12.535C13.36 42.3691 14.028 41.7001 14.028 40.8771L14.029 23.0371H10.494C10.2981 23.0367 10.104 23.075 9.92288 23.1497C9.74176 23.2244 9.57715 23.334 9.43847 23.4724C9.29979 23.6108 9.18977 23.7752 9.11471 23.9562C9.03964 24.1372 9.001 24.3312 9.001 24.5271V42.3701V42.3691ZM24.99 31.1931C24.584 31.6651 23.834 31.9021 22.747 31.9021H21.069V27.0851H22.759C23.773 27.0851 24.491 27.3011 24.913 27.7331C25.333 28.1631 25.546 28.7381 25.546 29.4581C25.546 30.1891 25.36 30.7651 24.99 31.1931ZM21.069 35.9531H24.212C26.686 35.9531 28.456 35.2131 29.524 33.7311C30.347 32.5911 30.757 31.1471 30.757 29.4011C30.757 27.6281 30.247 26.1731 29.228 25.0311C28.048 23.7001 26.319 23.0381 24.042 23.0381H17.527C17.1327 23.0394 16.755 23.197 16.4766 23.4763C16.1983 23.7556 16.042 24.1338 16.042 24.5281L16.04 42.3681H19.58C19.975 42.3673 20.3536 42.2099 20.6327 41.9304C20.9118 41.6509 21.0687 41.2721 21.069 40.8771V35.9531V35.9531ZM64.916 39.0281C64.8103 38.49 64.5045 38.0119 64.0602 37.6905C63.6159 37.369 63.0662 37.2281 62.522 37.2961C62.044 37.4291 61.55 37.4961 61.039 37.4961C59.733 37.4961 58.597 37.1031 57.636 36.3171C56.414 35.3231 55.804 33.9651 55.804 32.2411C55.804 30.5091 56.414 29.1451 57.636 28.1501C58.597 27.3641 59.733 26.9731 61.038 26.9731C61.507 26.9731 61.96 27.0331 62.4 27.1431C62.9607 27.2458 63.5392 27.1233 64.0102 26.8023C64.4812 26.4813 64.8066 25.9875 64.916 25.4281L65.376 23.0771C63.706 22.4261 62.201 22.1001 60.861 22.1001C58.397 22.1001 56.201 22.8801 54.277 24.4371C51.82 26.4311 50.593 29.0311 50.593 32.2411C50.593 35.4421 51.82 38.0391 54.277 40.0311C56.201 41.5891 58.382 42.3691 60.819 42.3691C62.215 42.3691 63.736 42.0431 65.379 41.3921L64.916 39.0281V39.0281Z" fill="#4B4B54"/>
<path d="M78.425 25.436V25.437C76.796 25.437 76.165 26.691 76.12 26.858C69.481 44.156 56.823 47.736 56.823 47.736C56.823 47.736 76.21 47.22 84 25.436H78.427H78.425Z" fill="#4B4B54"/>
<path d="M85.66 22.1201H93.248C82.808 47.1461 56.824 47.7361 56.824 47.7361C56.824 47.7361 74.598 43.5941 83.488 23.5361C83.488 23.5361 84.093 22.1641 85.66 22.1201V22.1201Z" fill="#4B4B54"/>
<path d="M79.34 24.925C71.663 43.821 56.823 47.735 56.823 47.735C56.823 47.735 80.062 47.467 88.926 23.355H81.717C81.717 23.355 80.187 23.327 79.34 24.925V24.925Z" fill="#4B4B54"/>
<path d="M81.893 23.855H88.165C79.178 47.185 56.823 47.735 56.823 47.735C56.823 47.735 72.062 43.89 79.725 25.275C79.725 25.275 80.294 23.855 81.893 23.855V23.855Z" fill="#4B4B54"/>
</svg>
