<svg width="181" height="58" viewBox="0 0 181 58" fill="none" xmlns="http://www.w3.org/2000/svg">
<g clip-path="url(#clip0_1_5517)">
<path fill-rule="evenodd" clip-rule="evenodd" d="M174.293 58H6.70617C3.01011 58 0 54.7312 0 50.75V7.25C0 3.25437 3.01011 0 6.70617 0H174.293C177.987 0 181 3.25437 181 7.25V50.75C181 54.7312 177.987 58 174.293 58Z" fill="black"/>
<path d="M174.293 57.3957H6.70617C3.38677 57.3957 0.603333 54.4425 0.603333 50.7498V7.24984C0.603333 3.54346 3.38601 0.604004 6.70617 0.604004H174.293C177.61 0.604004 180.397 3.54366 180.397 7.24984V50.7498C180.397 54.4424 177.61 57.3957 174.293 57.3957Z" stroke="white" stroke-opacity="0.29"/>
<path d="M96.6593 19.8516C95.5735 19.8516 94.6581 19.4711 93.9342 18.7222C93.2162 17.9942 92.8154 16.9907 92.8334 15.9661C92.8334 14.8726 93.2043 13.9469 93.9342 13.2129C94.6551 12.464 95.5704 12.0835 96.6563 12.0835C97.7303 12.0835 98.6456 12.464 99.3816 13.2129C100.111 13.9709 100.482 14.8966 100.482 15.9661C100.47 17.0626 100.099 17.9883 99.3816 18.7192C98.6606 19.4741 97.7452 19.8516 96.6593 19.8516ZM64.3491 19.8516C63.2872 19.8516 62.3657 19.4772 61.6119 18.7372C60.8641 18.0002 60.4842 17.0685 60.4842 15.969C60.4842 14.8696 60.8641 13.9379 61.6119 13.201C62.3508 12.461 63.2722 12.0865 64.3491 12.0865C64.8756 12.0865 65.3871 12.1914 65.8777 12.4041C66.3593 12.6108 66.7513 12.8924 67.0413 13.2369L67.1131 13.3237L66.3025 14.1206L66.2188 14.0218C65.7611 13.4766 65.1478 13.2099 64.3371 13.2099C63.6132 13.2099 62.982 13.4675 62.4616 13.9768C61.938 14.4892 61.6718 15.1602 61.6718 15.972C61.6718 16.7839 61.938 17.455 62.4616 17.9672C62.982 18.4765 63.6132 18.7342 64.3371 18.7342C65.1089 18.7342 65.758 18.4765 66.2636 17.9672C66.5628 17.6677 66.7482 17.2483 66.814 16.7181H64.2145V15.5976H67.9298L67.9448 15.6994C67.9717 15.8882 67.9986 16.083 67.9986 16.2626C67.9986 17.2962 67.6875 18.1321 67.0713 18.7491C66.3713 19.4802 65.4559 19.8516 64.3491 19.8516ZM107.309 19.6929H106.163L102.654 14.0698L102.684 15.0823V19.6898H101.538V12.2453H102.846L102.882 12.3022L106.181 17.5988L106.151 16.5893V12.2453H107.309V19.6929ZM88.05 19.6929H86.8894V13.3657H84.8761V12.2453H90.0603V13.3657H88.0471V19.6929H88.05ZM83.9309 19.6929H82.7733V12.2453H83.9309V19.6929ZM77.4246 19.6929H76.2669V13.3657H74.2537V12.2453H79.4378V13.3657H77.4246V19.6929ZM73.5208 19.6809H69.0815V12.2453H73.5208V13.3657H70.2421V15.4088H73.2007V16.5174H70.2421V18.5604H73.5208V19.6809ZM94.7837 17.9523C95.3012 18.4706 95.9294 18.7313 96.6593 18.7313C97.4102 18.7313 98.0235 18.4765 98.535 17.9523C99.0435 17.4431 99.3007 16.775 99.3007 15.969C99.3007 15.1632 99.0435 14.4922 98.538 13.9859C98.0205 13.4675 97.3893 13.2069 96.6624 13.2069C95.9114 13.2069 95.2982 13.4616 94.7897 13.9859C94.2811 14.4951 94.0239 15.1632 94.0239 15.969C94.0239 16.775 94.2782 17.446 94.7837 17.9523Z" fill="white"/>
<path fill-rule="evenodd" clip-rule="evenodd" d="M92.7268 30.0886C89.8998 30.0886 87.6085 32.2366 87.6085 35.1994C87.6085 38.1353 89.9148 40.3103 92.7268 40.3103C95.5537 40.3103 97.8451 38.1474 97.8451 35.1994C97.8451 32.2366 95.5537 30.0886 92.7268 30.0886ZM92.7268 38.2851C91.1802 38.2851 89.849 37.003 89.849 35.1874C89.849 33.3451 91.1832 32.0898 92.7268 32.0898C94.2733 32.0898 95.6045 33.3451 95.6045 35.1874C95.6075 37.0149 94.2733 38.2851 92.7268 38.2851ZM81.5598 30.0886C78.733 30.0886 76.4415 32.2366 76.4415 35.1994C76.4415 38.1353 78.7479 40.3103 81.5598 40.3103C84.3867 40.3103 86.6781 38.1474 86.6781 35.1994C86.6781 32.2366 84.3837 30.0886 81.5598 30.0886ZM81.5598 38.2851C80.0132 38.2851 78.682 37.003 78.682 35.1874C78.682 33.3451 80.0163 32.0898 81.5598 32.0898C83.1064 32.0898 84.4375 33.3451 84.4375 35.1874C84.4375 37.0149 83.1064 38.2851 81.5598 38.2851ZM68.2719 31.6494V33.8124H73.4561C73.2975 35.0257 72.8967 35.9214 72.2835 36.5356C71.5236 37.2965 70.351 38.1233 68.284 38.1233C65.098 38.1233 62.6062 35.5469 62.6062 32.3564C62.6062 29.1658 65.098 26.5894 68.284 26.5894C70.0039 26.5894 71.2574 27.2695 72.1876 28.1383L73.7193 26.6044C72.427 25.3642 70.7069 24.4146 68.2959 24.4146C63.9254 24.4146 60.2579 27.9795 60.2579 32.3445C60.2579 36.7213 63.9225 40.2744 68.2959 40.2744C70.6561 40.2744 72.427 39.5014 73.827 38.0455C75.2539 36.6164 75.7056 34.6003 75.7056 32.9735C75.7056 32.4672 75.6667 32.0119 75.586 31.6254H68.269C68.2719 31.6225 68.2719 31.6494 68.2719 31.6494ZM122.623 33.333C122.196 32.1857 120.903 30.0766 118.253 30.0766C115.626 30.0766 113.442 32.1467 113.442 35.1874C113.442 38.0575 115.602 40.2983 118.507 40.2983C120.84 40.2983 122.198 38.8694 122.758 38.0305L121.025 36.8681C120.451 37.7219 119.652 38.2821 118.519 38.2821C117.373 38.2821 116.571 37.7608 116.039 36.7333L122.863 33.9023C122.863 33.9053 122.623 33.333 122.623 33.333ZM115.665 35.0406C115.611 33.0665 117.197 32.0628 118.33 32.0628C119.225 32.0628 119.97 32.5033 120.224 33.1443L115.665 35.0406ZM110.122 39.9927H112.362V24.9778H110.122V39.9927ZM106.442 31.224H106.362C105.856 30.6219 104.896 30.0766 103.669 30.0766C101.124 30.0766 98.7783 32.3204 98.7783 35.2024C98.7783 38.0725 101.112 40.2894 103.669 40.2894C104.881 40.2894 105.856 39.7411 106.362 39.127H106.442V39.8609C106.442 41.8112 105.401 42.8628 103.723 42.8628C102.35 42.8628 101.498 41.8741 101.151 41.0473L99.2032 41.8622C99.7625 43.2103 101.255 44.8789 103.72 44.8789C106.347 44.8789 108.572 43.33 108.572 39.5524V30.3821H106.454V31.224C106.457 31.224 106.442 31.224 106.442 31.224ZM103.87 38.2851C102.323 38.2851 101.031 36.991 101.031 35.2024C101.031 33.399 102.323 32.0928 103.87 32.0928C105.401 32.0928 106.589 33.414 106.589 35.2024C106.604 36.991 105.404 38.2851 103.87 38.2851ZM133.113 24.9778H127.756V39.9927H129.997V34.3067H133.117C135.597 34.3067 138.034 32.5063 138.034 29.6482C138.034 26.7903 135.605 24.9778 133.113 24.9778ZM133.18 32.2096H129.994V27.0568H133.18C134.858 27.0568 135.807 28.4439 135.807 29.6332C135.807 30.8106 134.846 32.2096 133.18 32.2096ZM147.015 30.0616C145.388 30.0616 143.709 30.7837 143.015 32.3564L145.002 33.1833C145.43 32.3564 146.213 32.0748 147.042 32.0748C148.203 32.0748 149.376 32.7698 149.402 34.0102V34.1689C149.002 33.9412 148.122 33.5937 147.069 33.5937C144.924 33.5937 142.749 34.768 142.749 36.97C142.749 38.9862 144.508 40.2803 146.468 40.2803C147.972 40.2803 148.801 39.6003 149.318 38.8125H149.399V39.9747H151.559V34.2228C151.559 31.5446 149.572 30.0616 147.015 30.0616ZM146.734 38.2851C146.001 38.2851 144.975 37.9257 144.975 37.003C144.975 35.8406 146.255 35.4002 147.347 35.4002C148.334 35.4002 148.801 35.6129 149.387 35.9065C149.226 37.2545 148.089 38.2732 146.734 38.2851ZM159.438 30.3821L156.865 36.8951H156.785L154.119 30.3821H151.708L155.708 39.4865L153.429 44.5464H155.761L161.915 30.3821H159.438ZM139.27 39.9927H141.511V24.9778H139.27V39.9927Z" fill="white"/>
<path fill-rule="evenodd" clip-rule="evenodd" d="M18.6474 13.7646C18.3004 14.139 18.1 14.7112 18.1 15.4601V42.024C18.1 42.773 18.3004 43.3452 18.6594 43.7046L18.7521 43.7856L33.6135 28.9023V28.5698L18.7401 13.6836L18.6474 13.7646Z" fill="url(#paint0_linear_1_5517)"/>
<path fill-rule="evenodd" clip-rule="evenodd" d="M38.555 33.8805L33.5982 28.9165V28.5689L38.555 23.605L38.6626 23.6708L44.5258 27.0081C46.204 27.9549 46.204 29.5187 44.5258 30.4774L38.6626 33.8147L38.555 33.8805Z" fill="url(#paint1_linear_1_5517)"/>
<path fill-rule="evenodd" clip-rule="evenodd" d="M38.6653 33.8147L33.6008 28.7427L18.6467 43.7188C19.1942 44.3059 20.1126 44.3719 21.1386 43.7996L38.6653 33.8147Z" fill="url(#paint2_linear_1_5517)"/>
<path fill-rule="evenodd" clip-rule="evenodd" d="M38.6653 23.6685L21.1386 13.6984C20.1126 13.1113 19.1912 13.1921 18.6467 13.7793L33.6008 28.7404L38.6653 23.6685Z" fill="url(#paint3_linear_1_5517)"/>
<path opacity="0.25" fill-rule="evenodd" clip-rule="evenodd" d="M21.1392 13.8725L44.5291 27.18C45.2889 27.6083 45.7167 28.1685 45.7825 28.7408C45.7825 28.1146 45.3697 27.4855 44.5291 27.0062L21.1392 13.6987C19.4611 12.7371 18.1 13.54 18.1 15.4604V15.6341C18.1 13.7108 19.4611 12.9229 21.1392 13.8725Z" fill="white"/>
</g>
<defs>
<linearGradient id="paint0_linear_1_5517" x1="32.2804" y1="15.1736" x2="8.47047" y2="21.5084" gradientUnits="userSpaceOnUse">
<stop stop-color="#00A0FF"/>
<stop offset="0.00657" stop-color="#00A1FF"/>
<stop offset="0.2601" stop-color="#00BEFF"/>
<stop offset="0.5122" stop-color="#00D2FF"/>
<stop offset="0.7604" stop-color="#00DFFF"/>
<stop offset="1" stop-color="#00E3FF"/>
</linearGradient>
<linearGradient id="paint1_linear_1_5517" x1="46.7143" y1="28.7428" x2="17.6888" y2="28.7428" gradientUnits="userSpaceOnUse">
<stop stop-color="#FFE000"/>
<stop offset="0.4087" stop-color="#FFBD00"/>
<stop offset="0.7754" stop-color="#FFA500"/>
<stop offset="1" stop-color="#FF9C00"/>
</linearGradient>
<linearGradient id="paint2_linear_1_5517" x1="35.9115" y1="31.5025" x2="16.7591" y2="63.6902" gradientUnits="userSpaceOnUse">
<stop stop-color="#FF3A44"/>
<stop offset="1" stop-color="#C31162"/>
</linearGradient>
<linearGradient id="paint3_linear_1_5517" x1="14.8812" y1="4.92873" x2="23.4258" y2="19.3042" gradientUnits="userSpaceOnUse">
<stop stop-color="#32A071"/>
<stop offset="0.0685" stop-color="#2DA771"/>
<stop offset="0.4762" stop-color="#15CF74"/>
<stop offset="0.8009" stop-color="#06E775"/>
<stop offset="1" stop-color="#00F076"/>
</linearGradient>
<clipPath id="clip0_1_5517">
<rect width="181" height="58" fill="white"/>
</clipPath>
</defs>
</svg>
