<svg width="41" height="41" viewBox="0 0 41 41" fill="none" xmlns="http://www.w3.org/2000/svg">
<ellipse cx="20.6285" cy="20.5" rx="20" ry="20.5" fill="#FCE0D6"/>
<g clip-path="url(#clip0_1_6292)">
<path d="M15.9898 19.6009C15.4234 19.4378 14.8569 19.355 14.3059 19.355C13.4549 19.355 12.7449 19.5495 12.1943 19.7876C12.7251 17.8445 14.0002 14.4917 16.5402 14.1142C16.7754 14.0792 16.9682 13.9091 17.0323 13.6801L17.5875 11.6946C17.6343 11.5266 17.6065 11.3469 17.5107 11.2012C17.415 11.0555 17.261 10.9582 17.0885 10.9346C16.9011 10.909 16.71 10.896 16.5206 10.896C13.4718 10.896 10.4525 14.0782 9.17836 18.6346C8.43046 21.3078 8.21115 25.3267 10.0534 27.8563C11.0843 29.2718 12.5883 30.0276 14.5237 30.1032C14.5317 30.1034 14.5394 30.1036 14.5474 30.1036C16.9353 30.1036 19.0529 28.4954 19.697 26.1931C20.0818 24.8167 19.9079 23.3732 19.2068 22.1276C18.5132 20.896 17.3708 19.9982 15.9898 19.6009Z" fill="#D33242"/>
<path d="M30.938 22.1278C30.2444 20.896 29.102 19.9982 27.7211 19.6009C27.1546 19.4378 26.5881 19.355 26.0373 19.355C25.1864 19.355 24.4761 19.5495 23.9256 19.7876C24.4563 17.8445 25.7314 14.4917 28.2716 14.1142C28.5069 14.0792 28.6994 13.9091 28.7638 13.6801L29.3189 11.6946C29.3657 11.5266 29.338 11.3469 29.2422 11.2012C29.1467 11.0555 28.9928 10.9582 28.82 10.9346C28.6328 10.909 28.4417 10.896 28.2521 10.896C25.2033 10.896 22.1839 14.0782 20.9096 18.6346C20.1619 21.3078 19.9426 25.3267 21.7851 27.8568C22.8158 29.272 24.32 30.0281 26.2552 30.1034C26.2631 30.1036 26.2709 30.1039 26.2791 30.1039C28.6668 30.1039 30.7846 28.4956 31.4288 26.1933C31.8131 24.8169 31.6389 23.3732 30.938 22.1278Z" fill="#D33242"/>
</g>
<defs>
<clipPath id="clip0_1_6292">
<rect width="23" height="23" fill="white" transform="translate(8.62854 9)"/>
</clipPath>
</defs>
</svg>
