<svg width="35" height="35" viewBox="0 0 35 35" fill="none" xmlns="http://www.w3.org/2000/svg">
<circle cx="17.6285" cy="17.5" r="17" fill="#D9D9D9"/>
<g clip-path="url(#clip0_1_6365)">
<path d="M22.5254 16.5335L14.6624 8.69224C14.4048 8.43548 13.9877 8.43591 13.7305 8.69357C13.4735 8.95119 13.4742 9.36852 13.7318 9.62548L21.1268 17L13.7316 24.3745C13.4739 24.6315 13.4733 25.0486 13.7302 25.3063C13.8592 25.4354 14.0281 25.5 14.197 25.5C14.3654 25.5 14.5337 25.4358 14.6624 25.3076L22.5254 17.4665C22.6495 17.3431 22.7191 17.1751 22.7191 17C22.7191 16.825 22.6493 16.6572 22.5254 16.5335Z" fill="black"/>
</g>
<defs>
<clipPath id="clip0_1_6365">
<rect width="17" height="17" fill="white" transform="translate(9.62854 8.5)"/>
</clipPath>
</defs>
</svg>
