<svg width="72" height="72" viewBox="0 0 72 72" fill="none" xmlns="http://www.w3.org/2000/svg">
<path d="M31.93 23.054C31.7754 22.7962 31.552 22.5865 31.285 22.4484C31.018 22.3103 30.7178 22.2492 30.418 22.272L17.266 23.288C16.6131 23.3364 15.9801 23.5342 15.4158 23.8663C14.8516 24.1984 14.3713 24.6557 14.012 25.203L8.492 33.551C8.21758 33.9643 8.05197 34.4402 8.01054 34.9346C7.9691 35.429 8.05319 35.9258 8.255 36.379C8.45452 36.8333 8.76556 37.2297 9.15926 37.5317C9.55296 37.8336 10.0165 38.0311 10.507 38.106L21.171 39.758C21.4812 39.8059 21.7986 39.7625 22.0846 39.6333C22.3707 39.504 22.6129 39.2944 22.782 39.03L31.906 24.757C32.236 24.24 32.246 23.581 31.931 23.054H31.93ZM48.187 39.311C47.9289 39.1564 47.6328 39.0769 47.3319 39.0813C47.0311 39.0857 46.7375 39.1739 46.484 39.336L32.212 48.459C31.672 48.804 31.386 49.437 31.484 50.07L33.136 60.735C33.291 61.735 33.936 62.578 34.862 62.987C35.3154 63.1882 35.8122 63.2719 36.3065 63.2303C36.8008 63.1887 37.2766 63.0232 37.69 62.749L46.039 57.23C46.5861 56.8706 47.0433 56.3902 47.3751 55.826C47.707 55.2618 47.9047 54.6288 47.953 53.976L48.969 40.824C48.9922 40.524 48.9313 40.2236 48.7932 39.9563C48.6551 39.689 48.4451 39.4656 48.187 39.311V39.311Z" fill="#EE7673"/>
<path d="M28.81 52.483C29.455 53.127 30.37 53.428 31.269 53.278C44.444 51.075 54.869 40.166 58.839 32.492C63.246 23.972 63.409 14.967 63.179 10.744C63.1413 10.0455 62.8468 9.38547 62.3522 8.89081C61.8575 8.39615 61.1975 8.10169 60.499 8.064C56.276 7.834 47.272 7.998 38.751 12.404C31.077 16.374 20.169 26.8 17.966 39.975C17.816 40.873 18.116 41.789 18.761 42.433L28.811 52.483H28.81Z" fill="#FFCD6B"/>
<path d="M9.65197 53.526C10.066 53.526 10.48 53.368 10.796 53.052L16.08 47.768C16.3836 47.4645 16.5543 47.0527 16.5544 46.6233C16.5545 46.194 16.384 45.7822 16.0805 45.4785C15.7769 45.1748 15.3652 45.0042 14.9358 45.0041C14.5065 45.004 14.0946 45.1745 13.791 45.478L8.50697 50.763C8.28032 50.9893 8.12593 51.2777 8.06335 51.5918C8.00077 51.9059 8.03282 52.2316 8.15543 52.5274C8.27804 52.8233 8.4857 53.0761 8.75211 53.2539C9.01852 53.4317 9.3317 53.5264 9.65197 53.526V53.526ZM20.922 50.322C20.7716 50.1716 20.5931 50.0523 20.3967 49.9709C20.2002 49.8895 19.9896 49.8476 19.777 49.8476C19.5643 49.8476 19.3537 49.8895 19.1573 49.9709C18.9608 50.0523 18.7823 50.1716 18.632 50.322L8.47497 60.48C8.1713 60.7835 8.00064 61.1953 8.00055 61.6246C8.00046 62.054 8.17093 62.4658 8.47447 62.7695C8.77801 63.0732 9.18975 63.2438 9.61912 63.2439C10.0485 63.244 10.4603 63.0735 10.764 62.77L20.923 52.61C21.2263 52.3066 21.3968 51.8951 21.3968 51.466C21.3968 51.0369 21.2263 50.6254 20.923 50.322H20.922ZM25.765 55.162C25.4614 54.8589 25.05 54.6886 24.621 54.6886C24.192 54.6886 23.7805 54.8589 23.477 55.162L18.193 60.446C18.0426 60.5962 17.9233 60.7746 17.8419 60.9709C17.7605 61.1673 17.7185 61.3777 17.7184 61.5903C17.7183 61.8028 17.7601 62.0133 17.8413 62.2097C17.9226 62.4062 18.0417 62.5846 18.192 62.735C18.3422 62.8854 18.5206 63.0047 18.7169 63.0861C18.9133 63.1675 19.1237 63.2095 19.3363 63.2096C19.5488 63.2097 19.7593 63.1679 19.9557 63.0866C20.1521 63.0054 20.3306 62.8862 20.481 62.736L25.765 57.451C25.9153 57.3007 26.0346 57.1223 26.116 56.9259C26.1974 56.7296 26.2393 56.5191 26.2393 56.3065C26.2393 56.0939 26.1974 55.8834 26.116 55.6871C26.0346 55.4907 25.9153 55.3123 25.765 55.162Z" fill="#FDC72E"/>
<path d="M45.842 20.549C45.2043 20.5478 44.5726 20.6726 43.9833 20.9163C43.394 21.16 42.8586 21.5177 42.408 21.969C41.9557 22.4188 41.5972 22.9538 41.3531 23.5431C41.109 24.1323 40.9842 24.7642 40.986 25.402C40.986 26.699 41.492 27.918 42.408 28.835C43.3192 29.7446 44.554 30.2554 45.8415 30.2554C47.1289 30.2554 48.3638 29.7446 49.275 28.835C49.7272 28.3852 50.0857 27.8502 50.3298 27.2609C50.5739 26.6716 50.6987 26.0398 50.697 25.402C50.6989 24.764 50.5741 24.132 50.3301 23.5425C50.086 22.9531 49.7274 22.4179 49.275 21.968C48.8245 21.5169 48.2893 21.1592 47.7001 20.9155C47.111 20.6718 46.4795 20.5469 45.842 20.548V20.549Z" fill="white"/>
</svg>
