<svg width="26" height="24" viewBox="0 0 26 24" fill="none" xmlns="http://www.w3.org/2000/svg">
<g clip-path="url(#clip0_1_6073)">
<path d="M11.397 6.54002C11.3298 6.42781 11.2326 6.33655 11.1163 6.2765C11.0001 6.21644 10.8695 6.18996 10.739 6.20002L5.02601 6.64202C4.74233 6.66307 4.46727 6.74904 4.22209 6.8933C3.97692 7.03757 3.76818 7.23625 3.61202 7.47402L1.21401 11.101C1.09457 11.2805 1.0224 11.4873 1.00422 11.7022C0.986042 11.917 1.02243 12.133 1.11001 12.33C1.28801 12.732 1.65302 13.012 2.08802 13.08L6.72101 13.797C6.85578 13.818 6.99375 13.7994 7.11806 13.7432C7.24237 13.6871 7.34765 13.596 7.42101 13.481L11.385 7.28102C11.4553 7.17081 11.4935 7.04317 11.4953 6.91245C11.497 6.78172 11.4623 6.6531 11.395 6.54102L11.397 6.54002ZM18.46 13.603C18.3479 13.5357 18.2193 13.501 18.0886 13.5028C17.9579 13.5045 17.8302 13.5427 17.72 13.613L11.519 17.577C11.4041 17.6505 11.3131 17.7558 11.257 17.8801C11.2009 18.0043 11.1821 18.1423 11.203 18.277L11.92 22.911C11.9659 23.2149 12.1195 23.4921 12.3529 23.692C12.5862 23.892 12.8837 24.0013 13.191 24C13.439 24 13.685 23.928 13.899 23.786L17.526 21.388C18.01 21.068 18.313 20.553 18.358 19.974L18.799 14.261C18.8092 14.1306 18.7828 13.9999 18.7227 13.8836C18.6626 13.7674 18.5713 13.6702 18.459 13.603H18.46Z" fill="#EE7673"/>
<path d="M10.042 19.325C10.322 19.605 10.719 19.736 11.109 19.671C16.833 18.714 21.363 13.975 23.087 10.641C25.002 6.93903 25.073 3.02703 24.973 1.19203C24.9567 0.888621 24.8288 0.601948 24.614 0.387094C24.3991 0.17224 24.1124 0.0443621 23.809 0.0280304C21.974 -0.0719696 18.062 -0.00196958 14.36 1.91403C11.026 3.63803 6.28702 8.16803 5.33002 13.892C5.26502 14.282 5.39602 14.68 5.67502 14.959L10.042 19.325V19.325Z" fill="#FFCD6B"/>
<path d="M1.71802 19.779C1.81036 19.7791 1.90181 19.761 1.9871 19.7257C2.0724 19.6903 2.14986 19.6384 2.21502 19.573L4.51102 17.277C4.64284 17.1451 4.71684 16.9662 4.71674 16.7796C4.71665 16.5931 4.64247 16.4143 4.51052 16.2825C4.37858 16.1507 4.19968 16.0767 4.01317 16.0768C3.82667 16.0769 3.64784 16.1511 3.51602 16.283L1.22102 18.578C1.12275 18.6763 1.05582 18.8016 1.02871 18.9379C1.0016 19.0742 1.01553 19.2156 1.06872 19.344C1.12191 19.4724 1.21199 19.5822 1.32756 19.6595C1.44313 19.7367 1.57901 19.778 1.71802 19.778V19.779ZM6.61402 18.387C6.54873 18.3216 6.47118 18.2697 6.38581 18.2343C6.30045 18.1989 6.20894 18.1807 6.11652 18.1807C6.02411 18.1807 5.9326 18.1989 5.84723 18.2343C5.76187 18.2697 5.68432 18.3216 5.61902 18.387L1.20602 22.8C1.07846 22.9327 1.00802 23.1101 1.00983 23.2941C1.01164 23.4782 1.08555 23.6542 1.2157 23.7843C1.34585 23.9145 1.52184 23.9884 1.70589 23.9902C1.88993 23.992 2.06734 23.9216 2.20002 23.794L6.61402 19.381C6.7458 19.2492 6.81983 19.0704 6.81983 18.884C6.81983 18.6976 6.7458 18.5188 6.61402 18.387V18.387ZM8.71902 20.49C8.65373 20.4246 8.57618 20.3727 8.49081 20.3373C8.40545 20.3019 8.31394 20.2837 8.22152 20.2837C8.12911 20.2837 8.0376 20.3019 7.95223 20.3373C7.86687 20.3727 7.78932 20.4246 7.72402 20.49L5.43002 22.785C5.36263 22.8498 5.30885 22.9274 5.2718 23.0132C5.23476 23.099 5.2152 23.1914 5.21429 23.2849C5.21337 23.3783 5.2311 23.4711 5.26645 23.5576C5.3018 23.6441 5.35405 23.7228 5.42016 23.7889C5.48626 23.855 5.56488 23.9072 5.65142 23.9426C5.73796 23.9779 5.83068 23.9957 5.92416 23.9947C6.01764 23.9938 6.11 23.9743 6.19583 23.9372C6.28165 23.9002 6.35923 23.8464 6.42402 23.779L8.72002 21.484C8.8518 21.3522 8.92583 21.1734 8.92583 20.987C8.92583 20.8006 8.8518 20.6218 8.72002 20.49H8.71902Z" fill="#FDC72E"/>
<path d="M17.44 5.45203C16.9 5.45203 16.36 5.65703 15.949 6.06903C15.7525 6.26435 15.5967 6.4967 15.4907 6.75263C15.3846 7.00856 15.3303 7.28299 15.331 7.56003C15.3574 8.10174 15.5911 8.61254 15.9839 8.9866C16.3766 9.36065 16.8981 9.5693 17.4405 9.5693C17.9829 9.5693 18.5044 9.36065 18.8971 8.9866C19.2899 8.61254 19.5236 8.10174 19.55 7.56003C19.55 6.99703 19.33 6.46703 18.932 6.06903C18.7362 5.87297 18.5036 5.71753 18.2476 5.61164C17.9915 5.50576 17.7171 5.45152 17.44 5.45203V5.45203Z" fill="white"/>
</g>
<defs>
<clipPath id="clip0_1_6073">
<rect width="25" height="24" fill="white" transform="translate(0.5)"/>
</clipPath>
</defs>
</svg>
