<svg width="38" height="40" viewBox="0 0 38 40" fill="none" xmlns="http://www.w3.org/2000/svg">
<path d="M13.16 4.49691L18.998 10.4099L24.835 4.49591" stroke="#FFAEAE" stroke-width="2.523" stroke-linecap="round" stroke-linejoin="round"/>
<path d="M34.693 27.3959V16.0589C34.693 11.3319 31.949 8.57892 27.247 8.57892H11.32C6.53997 8.57892 3.85797 11.3319 3.85797 16.0589V27.3969C3.85797 32.1999 6.54097 34.8739 11.32 34.8739H27.246C31.947 34.8739 34.692 32.1999 34.692 27.3959H34.693Z" fill="#F76060"/>
<path d="M21.414 25.5069L23.2 24.4669C25.502 23.1299 25.502 20.9339 23.2 19.5969L21.414 18.5549L19.628 17.5139C17.325 16.1769 15.441 17.2609 15.441 19.9489V24.1149C15.441 26.7889 17.325 27.8869 19.628 26.5499L21.414 25.5079V25.5069Z" fill="white"/>
</svg>
